<mxfile host="Electron" modified="2023-09-14T01:06:37.426Z" agent="Mozilla/5.0 (Macintosh; Intel Mac OS X 10_15_7) AppleWebKit/537.36 (KHTML, like Gecko) draw.io/21.6.8 Chrome/114.0.5735.289 Electron/25.5.0 Safari/537.36" etag="GJzpvpeaobHE4bCCJnQs" version="21.6.8" type="device" pages="2">
  <diagram id="3OdXiEzzcEI2Nj8AqFJW" name="Metadata">
    <mxGraphModel dx="1242" dy="795" grid="1" gridSize="10" guides="1" tooltips="1" connect="1" arrows="1" fold="1" page="1" pageScale="1" pageWidth="850" pageHeight="1100" math="0" shadow="0">
      <root>
        <mxCell id="0" />
        <mxCell id="1" parent="0" />
        <mxCell id="NS0YQzU_AUxI_QyIQXkB-1" value="&lt;font style=&quot;font-size: 10px;&quot;&gt;Go to&amp;nbsp;&lt;span style=&quot;background-color: initial;&quot;&gt;&lt;a href=&quot;https://github.ibm.com/ibmcloud/ibm-cloud-stencils#tools--conventions&quot;&gt;Tools &amp;amp; Conventions &amp;gt; Diagrams Metadata&lt;/a&gt;&amp;nbsp;for more information&lt;/span&gt;&lt;br&gt;&lt;/font&gt;" style="text;html=1;strokeColor=none;fillColor=none;align=center;verticalAlign=middle;whiteSpace=wrap;rounded=0;fontSize=10;" vertex="1" parent="1">
          <mxGeometry x="290" y="440" width="240" height="50" as="geometry" />
        </mxCell>
        <mxCell id="NS0YQzU_AUxI_QyIQXkB-2" value="Metadata" style="shape=table;startSize=30;container=1;collapsible=0;childLayout=tableLayout;fontSize=10;whiteSpace=wrap;" vertex="1" parent="1">
          <mxGeometry x="260" y="320" width="330" height="110" as="geometry" />
        </mxCell>
        <mxCell id="NS0YQzU_AUxI_QyIQXkB-3" value="" style="shape=tableRow;horizontal=0;startSize=0;swimlaneHead=0;swimlaneBody=0;strokeColor=inherit;top=0;left=0;bottom=0;right=0;collapsible=0;dropTarget=0;fillColor=none;points=[[0,0.5],[1,0.5]];portConstraint=eastwest;fontSize=8;" vertex="1" parent="NS0YQzU_AUxI_QyIQXkB-2">
          <mxGeometry y="30" width="330" height="40" as="geometry" />
        </mxCell>
        <mxCell id="NS0YQzU_AUxI_QyIQXkB-4" value="Date Created" style="shape=partialRectangle;html=1;whiteSpace=wrap;connectable=0;strokeColor=inherit;overflow=hidden;fillColor=none;top=0;left=0;bottom=0;right=0;pointerEvents=1;fontSize=8;" vertex="1" parent="NS0YQzU_AUxI_QyIQXkB-3">
          <mxGeometry width="66" height="40" as="geometry">
            <mxRectangle width="66" height="40" as="alternateBounds" />
          </mxGeometry>
        </mxCell>
        <mxCell id="NS0YQzU_AUxI_QyIQXkB-5" value="Date Updated" style="shape=partialRectangle;html=1;whiteSpace=wrap;connectable=0;strokeColor=inherit;overflow=hidden;fillColor=none;top=0;left=0;bottom=0;right=0;pointerEvents=1;fontSize=8;" vertex="1" parent="NS0YQzU_AUxI_QyIQXkB-3">
          <mxGeometry x="66" width="66" height="40" as="geometry">
            <mxRectangle width="66" height="40" as="alternateBounds" />
          </mxGeometry>
        </mxCell>
        <mxCell id="NS0YQzU_AUxI_QyIQXkB-6" value="Diagram Version" style="shape=partialRectangle;html=1;whiteSpace=wrap;connectable=0;strokeColor=inherit;overflow=hidden;fillColor=none;top=0;left=0;bottom=0;right=0;pointerEvents=1;fontSize=8;" vertex="1" parent="NS0YQzU_AUxI_QyIQXkB-3">
          <mxGeometry x="132" width="66" height="40" as="geometry">
            <mxRectangle width="66" height="40" as="alternateBounds" />
          </mxGeometry>
        </mxCell>
        <mxCell id="NS0YQzU_AUxI_QyIQXkB-7" value="File Format" style="shape=partialRectangle;html=1;whiteSpace=wrap;connectable=0;strokeColor=inherit;overflow=hidden;fillColor=none;top=0;left=0;bottom=0;right=0;pointerEvents=1;fontSize=8;" vertex="1" parent="NS0YQzU_AUxI_QyIQXkB-3">
          <mxGeometry x="198" width="66" height="40" as="geometry">
            <mxRectangle width="66" height="40" as="alternateBounds" />
          </mxGeometry>
        </mxCell>
        <mxCell id="NS0YQzU_AUxI_QyIQXkB-8" value="Stencils Source/Version" style="shape=partialRectangle;html=1;whiteSpace=wrap;connectable=0;strokeColor=inherit;overflow=hidden;fillColor=none;top=0;left=0;bottom=0;right=0;pointerEvents=1;fontSize=8;" vertex="1" parent="NS0YQzU_AUxI_QyIQXkB-3">
          <mxGeometry x="264" width="66" height="40" as="geometry">
            <mxRectangle width="66" height="40" as="alternateBounds" />
          </mxGeometry>
        </mxCell>
        <mxCell id="NS0YQzU_AUxI_QyIQXkB-9" style="shape=tableRow;horizontal=0;startSize=0;swimlaneHead=0;swimlaneBody=0;strokeColor=inherit;top=0;left=0;bottom=0;right=0;collapsible=0;dropTarget=0;fillColor=none;points=[[0,0.5],[1,0.5]];portConstraint=eastwest;fontSize=8;" vertex="1" parent="NS0YQzU_AUxI_QyIQXkB-2">
          <mxGeometry y="70" width="330" height="40" as="geometry" />
        </mxCell>
        <mxCell id="NS0YQzU_AUxI_QyIQXkB-10" value="09/13/2023" style="shape=partialRectangle;html=1;whiteSpace=wrap;connectable=0;strokeColor=inherit;overflow=hidden;fillColor=none;top=0;left=0;bottom=0;right=0;pointerEvents=1;fontSize=8;" vertex="1" parent="NS0YQzU_AUxI_QyIQXkB-9">
          <mxGeometry width="66" height="40" as="geometry">
            <mxRectangle width="66" height="40" as="alternateBounds" />
          </mxGeometry>
        </mxCell>
        <mxCell id="NS0YQzU_AUxI_QyIQXkB-11" value="09/13/2023" style="shape=partialRectangle;html=1;whiteSpace=wrap;connectable=0;strokeColor=inherit;overflow=hidden;fillColor=none;top=0;left=0;bottom=0;right=0;pointerEvents=1;fontSize=8;" vertex="1" parent="NS0YQzU_AUxI_QyIQXkB-9">
          <mxGeometry x="66" width="66" height="40" as="geometry">
            <mxRectangle width="66" height="40" as="alternateBounds" />
          </mxGeometry>
        </mxCell>
        <mxCell id="NS0YQzU_AUxI_QyIQXkB-12" value="1.0.0" style="shape=partialRectangle;html=1;whiteSpace=wrap;connectable=0;strokeColor=inherit;overflow=hidden;fillColor=none;top=0;left=0;bottom=0;right=0;pointerEvents=1;fontSize=8;" vertex="1" parent="NS0YQzU_AUxI_QyIQXkB-9">
          <mxGeometry x="132" width="66" height="40" as="geometry">
            <mxRectangle width="66" height="40" as="alternateBounds" />
          </mxGeometry>
        </mxCell>
        <mxCell id="NS0YQzU_AUxI_QyIQXkB-13" value="&lt;b&gt;&amp;nbsp;&lt;/b&gt;&lt;a href=&quot;https://github.com/jgraph/drawio-desktop/releases&quot; style=&quot;font-size: 8px;&quot;&gt;Desktop drawio&lt;/a&gt;" style="shape=partialRectangle;html=1;whiteSpace=wrap;connectable=0;strokeColor=inherit;overflow=hidden;fillColor=none;top=0;left=0;bottom=0;right=0;pointerEvents=1;fontSize=8;" vertex="1" parent="NS0YQzU_AUxI_QyIQXkB-9">
          <mxGeometry x="198" width="66" height="40" as="geometry">
            <mxRectangle width="66" height="40" as="alternateBounds" />
          </mxGeometry>
        </mxCell>
        <mxCell id="NS0YQzU_AUxI_QyIQXkB-14" value="&lt;a href=&quot;https://github.ibm.com/ibmcloud/ibm-cloud-stencils#compatible-with-official-drawio-application-1&quot;&gt;Static 2.0 Libraries&lt;/a&gt;&amp;nbsp;/&lt;a href=&quot;https://github.ibm.com/ibmcloud/ibm-cloud-stencils/releases/tag/v1.6.4&quot;&gt; &lt;/a&gt;&lt;a href=&quot;https://github.ibm.com/ibmcloud/ibm-cloud-stencils/releases/tag/v1.6.4.1-updated_ver_xmls&quot;&gt;v1.6.4&lt;/a&gt;" style="shape=partialRectangle;html=1;whiteSpace=wrap;connectable=0;strokeColor=inherit;overflow=hidden;fillColor=none;top=0;left=0;bottom=0;right=0;pointerEvents=1;fontSize=8;" vertex="1" parent="NS0YQzU_AUxI_QyIQXkB-9">
          <mxGeometry x="264" width="66" height="40" as="geometry">
            <mxRectangle width="66" height="40" as="alternateBounds" />
          </mxGeometry>
        </mxCell>
      </root>
    </mxGraphModel>
  </diagram>
  <diagram id="HGY_YLW6hG0_r_rPaPYd" name="Deployment">
    <mxGraphModel dx="1242" dy="9195" grid="1" gridSize="10" guides="1" tooltips="1" connect="1" arrows="1" fold="1" page="1" pageScale="1" pageWidth="1800" pageHeight="2800" math="0" shadow="0">
      <root>
        <mxCell id="0" />
        <mxCell id="1" parent="0" />
        <UserObject placeholders="1" label="&lt;b style=&#39;font-weight:600&#39;&gt;%Primary-Label%&lt;/b&gt;&lt;br&gt;%Secondary-Text%" Badge-Text="" Icon-Name="autoscaling" Primary-Label="Instance Group" Secondary-Text="" id="JBx76pNwKwFv1dZqiRyg-2">
          <mxCell style="shape=image;ibmType=nodep;ibmLayout=collapsed;strokeColor=#198038;fillColor=none;html=1;metaEdit=1;whiteSpace=wrap;fontFamily=IBM Plex Sans;fontSize=14;image=data:image/svg+xml,PHN2ZyBpZD0iTGF5ZXJfMSIgZGF0YS1uYW1lPSJMYXllciAxIiB4bWxucz0iaHR0cDovL3d3dy53My5vcmcvMjAwMC9zdmciIHZpZXdCb3g9IjAgMCA0OSA0OSI+PGRlZnM+PHN0eWxlPi5jbHMtMXtmaWxsOiMxOTgwMzg7fS5jbHMtMntmaWxsOiNmZmY7fS5jbHMtM3tmaWxsOm5vbmU7fTwvc3R5bGU+PC9kZWZzPjxyZWN0IGNsYXNzPSJjbHMtMSIgeD0iMC41IiB5PSIwLjUiIHdpZHRoPSI0OCIgaGVpZ2h0PSI0OCIvPjxwYXRoIGNsYXNzPSJjbHMtMiIgZD0iTTI4LjI1LDMySDIyVjMwLjc1aDYuMjV2LTEwaC0xMFYyN0gxN1YyMC43NWExLjI1LDEuMjUsMCwwLDEsMS4yNS0xLjI1aDEwYTEuMjUsMS4yNSwwLDAsMSwxLjI1LDEuMjV2MTBBMS4yNSwxLjI1LDAsMCwxLDI4LjI1LDMyWiIvPjxwYXRoIGNsYXNzPSJjbHMtMiIgZD0iTTMyLDI4LjI1SDMwLjc1VjI3SDMyVjE3SDIydjEuMjVIMjAuNzVWMTdBMS4yNSwxLjI1LDAsMCwxLDIyLDE1Ljc1SDMyQTEuMjUsMS4yNSwwLDAsMSwzMy4yNSwxN1YyN0ExLjI1LDEuMjUsMCwwLDEsMzIsMjguMjVaIi8+PHBvbHlnb24gY2xhc3M9ImNscy0yIiBwb2ludHM9IjIwLjc1IDIzLjI1IDIwLjc1IDI0LjUgMjMuNjIgMjQuNSAxNi4zOCAzMS43NCAxNy4yNiAzMi42MyAyNC41IDI1LjM4IDI0LjUgMjguMjUgMjUuNzUgMjguMjUgMjUuNzUgMjMuMjUgMjAuNzUgMjMuMjUiLz48cmVjdCBjbGFzcz0iY2xzLTMiIHg9IjE0LjUiIHk9IjE0LjUiIHdpZHRoPSIyMCIgaGVpZ2h0PSIyMCIvPjwvc3ZnPg==;align=center;verticalAlign=top;labelPosition=center;verticalLabelPosition=bottom;spacing=0;spacingLeft=16;spacingRight=16;spacingTop=0;spacingBottom=4;" parent="1" vertex="1">
            <mxGeometry x="231" y="-7672" width="48" height="48" as="geometry" />
          </mxCell>
        </UserObject>
        <UserObject placeholders="1" label="&lt;b style=&#39;font-weight:600&#39;&gt;%Primary-Label%&lt;/b&gt;&lt;br&gt;%Secondary-Text%" Badge-Text="" Icon-Name="instance--bx" Primary-Label="Virtual Server Profile Bx" Secondary-Text="" id="JBx76pNwKwFv1dZqiRyg-3">
          <mxCell style="shape=image;ibmType=nodep;ibmLayout=collapsed;strokeColor=#198038;fillColor=none;html=1;metaEdit=1;whiteSpace=wrap;fontFamily=IBM Plex Sans;fontSize=14;image=data:image/svg+xml,PHN2ZyBpZD0iTGF5ZXJfMSIgZGF0YS1uYW1lPSJMYXllciAxIiB4bWxucz0iaHR0cDovL3d3dy53My5vcmcvMjAwMC9zdmciIHZpZXdCb3g9IjAgMCA0OSA0OSI+PGRlZnM+PHN0eWxlPi5jbHMtMXtmaWxsOiMxOTgwMzg7fS5jbHMtMntmaWxsOiNmZmY7fS5jbHMtM3tmaWxsOm5vbmU7fTwvc3R5bGU+PC9kZWZzPjxyZWN0IGNsYXNzPSJjbHMtMSIgeD0iMC41IiB5PSIwLjUiIHdpZHRoPSI0OCIgaGVpZ2h0PSI0OCIvPjxwYXRoIGNsYXNzPSJjbHMtMiIgZD0iTTIyLDE3LjYyYTEuODgsMS44OCwwLDAsMC0xLjg4LTEuODdIMTd2OC4xM2gzLjEyQTEuODgsMS44OCwwLDAsMCwyMiwyMnYtLjk0YTEuODgsMS44OCwwLDAsMC0uNDktMS4yNUExLjg2LDEuODYsMCwwLDAsMjIsMTguNTZaTTE4LjI1LDE3aDEuODdhLjYzLjYzLDAsMCwxLC42My42MnYxYS42LjYsMCwwLDEtLjYzLjZIMTguMjVabTIuNSw1YS42My42MywwLDAsMS0uNjMuNjJIMTguMjVWMjAuNDRoMS44N2EuNjMuNjMsMCwwLDEsLjYzLjYyWiIvPjxwb2x5Z29uIGNsYXNzPSJjbHMtMiIgcG9pbnRzPSIyOC4yNSAxNy42MyAyNyAxNy42MyAyNS43NSAyMC4wNiAyNC41IDE3LjYzIDIzLjI1IDE3LjYzIDI1LjA3IDIwLjc1IDIzLjI1IDIzLjg4IDI0LjUgMjMuODggMjUuNzUgMjEuNSAyNyAyMy44OCAyOC4yNSAyMy44OCAyNi40NCAyMC43NSAyOC4yNSAxNy42MyIvPjxjaXJjbGUgY2xhc3M9ImNscy0yIiBjeD0iMjAuMTMiIGN5PSIzMS4zOCIgcj0iMC42MyIvPjxyZWN0IGNsYXNzPSJjbHMtMiIgeD0iMTUuNzUiIHk9IjI1Ljc1IiB3aWR0aD0iMi41IiBoZWlnaHQ9IjEuMjUiLz48cmVjdCBjbGFzcz0iY2xzLTIiIHg9IjE5LjUiIHk9IjI1Ljc1IiB3aWR0aD0iMi41IiBoZWlnaHQ9IjEuMjUiLz48cmVjdCBjbGFzcz0iY2xzLTIiIHg9IjIzLjI1IiB5PSIyNS43NSIgd2lkdGg9IjIuNSIgaGVpZ2h0PSIxLjI1Ii8+PHJlY3QgY2xhc3M9ImNscy0yIiB4PSIyNyIgeT0iMjUuNzUiIHdpZHRoPSIyLjUiIGhlaWdodD0iMS4yNSIvPjxyZWN0IGNsYXNzPSJjbHMtMiIgeD0iMzAuNzUiIHk9IjI1Ljc1IiB3aWR0aD0iMi41IiBoZWlnaHQ9IjEuMjUiLz48cGF0aCBjbGFzcz0iY2xzLTIiIGQ9Ik0zMC43NSwzMy44OEgxOC4yNUExLjI2LDEuMjYsMCwwLDEsMTcsMzIuNjJ2LTIuNWExLjI1LDEuMjUsMCwwLDEsMS4yNS0xLjI0aDEyLjVBMS4yNSwxLjI1LDAsMCwxLDMyLDMwLjEydjIuNUExLjI2LDEuMjYsMCwwLDEsMzAuNzUsMzMuODhabS0xMi41LTMuNzZ2Mi41aDEyLjV2LTIuNVoiLz48cmVjdCBjbGFzcz0iY2xzLTMiIHg9IjE0LjUiIHk9IjE0LjUiIHdpZHRoPSIyMCIgaGVpZ2h0PSIyMCIvPjwvc3ZnPg==;align=center;verticalAlign=top;labelPosition=center;verticalLabelPosition=bottom;spacing=0;spacingLeft=16;spacingRight=16;spacingTop=0;spacingBottom=4;" parent="1" vertex="1">
            <mxGeometry x="550" y="-7672" width="48" height="48" as="geometry" />
          </mxCell>
        </UserObject>
        <UserObject placeholders="1" label="&lt;b style=&#39;font-weight:600&#39;&gt;%Primary-Label%&lt;/b&gt;&lt;br&gt;%Secondary-Text%" Badge-Text="" Icon-Name="instance--cx" Primary-Label="Virtual Server Profile Cx" Secondary-Text="" id="JBx76pNwKwFv1dZqiRyg-4">
          <mxCell style="shape=image;ibmType=nodep;ibmLayout=collapsed;strokeColor=#198038;fillColor=none;html=1;metaEdit=1;whiteSpace=wrap;fontFamily=IBM Plex Sans;fontSize=14;image=data:image/svg+xml,PHN2ZyBpZD0iTGF5ZXJfMSIgZGF0YS1uYW1lPSJMYXllciAxIiB4bWxucz0iaHR0cDovL3d3dy53My5vcmcvMjAwMC9zdmciIHZpZXdCb3g9IjAgMCA0OSA0OSI+PGRlZnM+PHN0eWxlPi5jbHMtMXtmaWxsOiMxOTgwMzg7fS5jbHMtMntmaWxsOiNmZmY7fS5jbHMtM3tmaWxsOm5vbmU7fTwvc3R5bGU+PC9kZWZzPjxyZWN0IGNsYXNzPSJjbHMtMSIgeD0iMC41IiB5PSIwLjUiIHdpZHRoPSI0OCIgaGVpZ2h0PSI0OCIvPjxjaXJjbGUgY2xhc3M9ImNscy0yIiBjeD0iMjAuMTMiIGN5PSIzMS4zOCIgcj0iMC42MyIvPjxwb2x5Z29uIGNsYXNzPSJjbHMtMiIgcG9pbnRzPSIyOC4yNSAxNy42MyAyNyAxNy42MyAyNS43NSAyMC4wNiAyNC41IDE3LjYzIDIzLjI1IDE3LjYzIDI1LjA3IDIwLjc1IDIzLjI1IDIzLjg4IDI0LjUgMjMuODggMjUuNzUgMjEuNSAyNyAyMy44OCAyOC4yNSAyMy44OCAyNi40NCAyMC43NSAyOC4yNSAxNy42MyIvPjxwYXRoIGNsYXNzPSJjbHMtMiIgZD0iTTIyLDIzLjg4SDE4LjI1QTEuMjYsMS4yNiwwLDAsMSwxNywyMi42MlYxN2ExLjI1LDEuMjUsMCwwLDEsMS4yNS0xLjI1SDIyVjE3SDE4LjI1djUuNjJIMjJaIi8+PHJlY3QgY2xhc3M9ImNscy0yIiB4PSIxNS43NSIgeT0iMjUuNzUiIHdpZHRoPSIyLjUiIGhlaWdodD0iMS4yNSIvPjxyZWN0IGNsYXNzPSJjbHMtMiIgeD0iMTkuNSIgeT0iMjUuNzUiIHdpZHRoPSIyLjUiIGhlaWdodD0iMS4yNSIvPjxyZWN0IGNsYXNzPSJjbHMtMiIgeD0iMjMuMjUiIHk9IjI1Ljc1IiB3aWR0aD0iMi41IiBoZWlnaHQ9IjEuMjUiLz48cmVjdCBjbGFzcz0iY2xzLTIiIHg9IjI3IiB5PSIyNS43NSIgd2lkdGg9IjIuNSIgaGVpZ2h0PSIxLjI1Ii8+PHJlY3QgY2xhc3M9ImNscy0yIiB4PSIzMC43NSIgeT0iMjUuNzUiIHdpZHRoPSIyLjUiIGhlaWdodD0iMS4yNSIvPjxwYXRoIGNsYXNzPSJjbHMtMiIgZD0iTTMwLjc1LDMzLjg4SDE4LjI1QTEuMjYsMS4yNiwwLDAsMSwxNywzMi42MnYtMi41YTEuMjUsMS4yNSwwLDAsMSwxLjI1LTEuMjRoMTIuNUExLjI1LDEuMjUsMCwwLDEsMzIsMzAuMTJ2Mi41QTEuMjYsMS4yNiwwLDAsMSwzMC43NSwzMy44OFptLTEyLjUtMy43NnYyLjVoMTIuNXYtMi41WiIvPjxyZWN0IGNsYXNzPSJjbHMtMyIgeD0iMTQuNSIgeT0iMTQuNSIgd2lkdGg9IjIwIiBoZWlnaHQ9IjIwIi8+PC9zdmc+;align=center;verticalAlign=top;labelPosition=center;verticalLabelPosition=bottom;spacing=0;spacingLeft=16;spacingRight=16;spacingTop=0;spacingBottom=4;" parent="1" vertex="1">
            <mxGeometry x="629" y="-7672" width="48" height="48" as="geometry" />
          </mxCell>
        </UserObject>
        <UserObject placeholders="1" label="&lt;b style=&#39;font-weight:600&#39;&gt;%Primary-Label%&lt;/b&gt;&lt;br&gt;%Secondary-Text%" Badge-Text="" Icon-Name="instance--mx" Primary-Label="Virtual Server Profile Mx" Secondary-Text="" id="JBx76pNwKwFv1dZqiRyg-5">
          <mxCell style="shape=image;ibmType=nodep;ibmLayout=collapsed;strokeColor=#198038;fillColor=none;html=1;metaEdit=1;whiteSpace=wrap;fontFamily=IBM Plex Sans;fontSize=14;image=data:image/svg+xml,PHN2ZyBpZD0iTGF5ZXJfMSIgZGF0YS1uYW1lPSJMYXllciAxIiB4bWxucz0iaHR0cDovL3d3dy53My5vcmcvMjAwMC9zdmciIHZpZXdCb3g9IjAgMCA0OSA0OSI+PGRlZnM+PHN0eWxlPi5jbHMtMXtmaWxsOiMxOTgwMzg7fS5jbHMtMntmaWxsOiNmZmY7fS5jbHMtM3tmaWxsOm5vbmU7fTwvc3R5bGU+PC9kZWZzPjxyZWN0IGNsYXNzPSJjbHMtMSIgeD0iMC41IiB5PSIwLjUiIHdpZHRoPSI0OCIgaGVpZ2h0PSI0OCIvPjxwb2x5Z29uIGNsYXNzPSJjbHMtMiIgcG9pbnRzPSIyOC4yNSAxNy42MyAyNyAxNy42MyAyNS43NSAyMC4wNiAyNC41IDE3LjYzIDIzLjI1IDE3LjYzIDI1LjA3IDIwLjc1IDIzLjI1IDIzLjg4IDI0LjUgMjMuODggMjUuNzUgMjEuNSAyNyAyMy44OCAyOC4yNSAyMy44OCAyNi40NCAyMC43NSAyOC4yNSAxNy42MyIvPjxwb2x5Z29uIGNsYXNzPSJjbHMtMiIgcG9pbnRzPSIyMC43NSAxNS43NSAxOS44IDE4LjQ4IDE5LjUgMTkuNSAxOS4yMSAxOC40OCAxOC4yNSAxNS43NSAxNyAxNS43NSAxNyAyMy44OCAxOC4yNSAyMy44OCAxOC4yNSAxOS4xMSAxOC4xNSAxNy44NiAxOC41MSAxOS4xMSAxOS41IDIyIDIwLjQ5IDE5LjExIDIwLjg1IDE3Ljg2IDIwLjc1IDE5LjExIDIwLjc1IDIzLjg4IDIyIDIzLjg4IDIyIDE1Ljc1IDIwLjc1IDE1Ljc1Ii8+PGNpcmNsZSBjbGFzcz0iY2xzLTIiIGN4PSIyMC4xMyIgY3k9IjMxLjM4IiByPSIwLjYzIi8+PHJlY3QgY2xhc3M9ImNscy0yIiB4PSIxNS43NSIgeT0iMjUuNzUiIHdpZHRoPSIyLjUiIGhlaWdodD0iMS4yNSIvPjxyZWN0IGNsYXNzPSJjbHMtMiIgeD0iMTkuNSIgeT0iMjUuNzUiIHdpZHRoPSIyLjUiIGhlaWdodD0iMS4yNSIvPjxyZWN0IGNsYXNzPSJjbHMtMiIgeD0iMjMuMjUiIHk9IjI1Ljc1IiB3aWR0aD0iMi41IiBoZWlnaHQ9IjEuMjUiLz48cmVjdCBjbGFzcz0iY2xzLTIiIHg9IjI3IiB5PSIyNS43NSIgd2lkdGg9IjIuNSIgaGVpZ2h0PSIxLjI1Ii8+PHJlY3QgY2xhc3M9ImNscy0yIiB4PSIzMC43NSIgeT0iMjUuNzUiIHdpZHRoPSIyLjUiIGhlaWdodD0iMS4yNSIvPjxwYXRoIGNsYXNzPSJjbHMtMiIgZD0iTTMwLjc1LDMzLjg4SDE4LjI1QTEuMjYsMS4yNiwwLDAsMSwxNywzMi42MnYtMi41YTEuMjUsMS4yNSwwLDAsMSwxLjI1LTEuMjRoMTIuNUExLjI1LDEuMjUsMCwwLDEsMzIsMzAuMTJ2Mi41QTEuMjYsMS4yNiwwLDAsMSwzMC43NSwzMy44OFptLTEyLjUtMy43NnYyLjVoMTIuNXYtMi41WiIvPjxyZWN0IGNsYXNzPSJjbHMtMyIgeD0iMTQuNSIgeT0iMTQuNSIgd2lkdGg9IjIwIiBoZWlnaHQ9IjIwIi8+PC9zdmc+;align=center;verticalAlign=top;labelPosition=center;verticalLabelPosition=bottom;spacing=0;spacingLeft=16;spacingRight=16;spacingTop=0;spacingBottom=4;" parent="1" vertex="1">
            <mxGeometry x="709" y="-7672" width="48" height="48" as="geometry" />
          </mxCell>
        </UserObject>
        <UserObject placeholders="1" label="&lt;b style=&#39;font-weight:600&#39;&gt;%Primary-Label%&lt;/b&gt;&lt;br&gt;%Secondary-Text%" Badge-Text="" Icon-Name="bare-metal-server--01" Primary-Label="IBM Bare Metal" Secondary-Text="" id="JBx76pNwKwFv1dZqiRyg-6">
          <mxCell style="shape=image;ibmType=nodep;ibmLayout=collapsed;strokeColor=#198038;fillColor=none;html=1;metaEdit=1;whiteSpace=wrap;fontFamily=IBM Plex Sans;fontSize=14;image=data:image/svg+xml,PHN2ZyBpZD0iTGF5ZXJfMSIgZGF0YS1uYW1lPSJMYXllciAxIiB4bWxucz0iaHR0cDovL3d3dy53My5vcmcvMjAwMC9zdmciIHZpZXdCb3g9IjAgMCA0OSA0OSI+PGRlZnM+PHN0eWxlPi5jbHMtMXtmaWxsOiMxOTgwMzg7fS5jbHMtMntmaWxsOiNmZmY7fS5jbHMtM3tmaWxsOm5vbmU7fTwvc3R5bGU+PC9kZWZzPjxyZWN0IGNsYXNzPSJjbHMtMSIgeD0iMC41IiB5PSIwLjUiIHdpZHRoPSI0OCIgaGVpZ2h0PSI0OCIvPjxjaXJjbGUgY2xhc3M9ImNscy0yIiBjeD0iMjAuMTMiIGN5PSIyNC41IiByPSIwLjYzIi8+PHBhdGggY2xhc3M9ImNscy0yIiBkPSJNMzAuNzUsMjdIMTguMjVBMS4yNSwxLjI1LDAsMCwxLDE3LDI1Ljc1di0yLjVBMS4yNSwxLjI1LDAsMCwxLDE4LjI1LDIyaDEyLjVBMS4yNSwxLjI1LDAsMCwxLDMyLDIzLjI1djIuNUExLjI1LDEuMjUsMCwwLDEsMzAuNzUsMjdabS0xMi41LTMuNzV2Mi41aDEyLjV2LTIuNVoiLz48cG9seWdvbiBjbGFzcz0iY2xzLTIiIHBvaW50cz0iMjUuMTMgMzIgMjUuMTMgMjguMjUgMjMuODggMjguMjUgMjMuODggMzIgMTcuNjMgMzIgMTcuNjMgMzMuMjUgMzEuMzggMzMuMjUgMzEuMzggMzIgMjUuMTMgMzIiLz48cmVjdCBjbGFzcz0iY2xzLTMiIHg9IjE0LjUiIHk9IjE0LjUiIHdpZHRoPSIyMCIgaGVpZ2h0PSIyMCIvPjwvc3ZnPg==;align=center;verticalAlign=top;labelPosition=center;verticalLabelPosition=bottom;spacing=0;spacingLeft=16;spacingRight=16;spacingTop=0;spacingBottom=4;" parent="1" vertex="1">
            <mxGeometry x="311" y="-7672" width="48" height="48" as="geometry" />
          </mxCell>
        </UserObject>
        <UserObject placeholders="1" label="&lt;b style=&#39;font-weight:600&#39;&gt;%Primary-Label%&lt;/b&gt;&lt;br&gt;%Secondary-Text%" Badge-Text="" Icon-Name="ibm-cloud--dedicated-host" Primary-Label="Dedicated Host" Secondary-Text="" id="JBx76pNwKwFv1dZqiRyg-7">
          <mxCell style="shape=image;ibmType=nodep;ibmLayout=collapsed;strokeColor=#198038;fillColor=none;html=1;metaEdit=1;whiteSpace=wrap;fontFamily=IBM Plex Sans;fontSize=14;image=data:image/svg+xml,PHN2ZyBpZD0iTGF5ZXJfMSIgZGF0YS1uYW1lPSJMYXllciAxIiB4bWxucz0iaHR0cDovL3d3dy53My5vcmcvMjAwMC9zdmciIHZpZXdCb3g9IjAgMCA0OSA0OSI+PGRlZnM+PHN0eWxlPi5jbHMtMXtmaWxsOiMxOTgwMzg7fS5jbHMtMntmaWxsOiNmZmY7fS5jbHMtM3tmaWxsOm5vbmU7fTwvc3R5bGU+PC9kZWZzPjxyZWN0IGNsYXNzPSJjbHMtMSIgeD0iMC41IiB5PSIwLjUiIHdpZHRoPSI0OCIgaGVpZ2h0PSI0OCIvPjxjaXJjbGUgY2xhc3M9ImNscy0yIiBjeD0iMjAuMTIiIGN5PSIxOC4yNSIgcj0iMC42MyIvPjxwYXRoIGNsYXNzPSJjbHMtMiIgZD0iTTMwLjc1LDE1Ljc1SDE4LjI1QTEuMjUsMS4yNSwwLDAsMCwxNywxN3YyLjVhMS4yNSwxLjI1LDAsMCwwLDEuMjUsMS4yNWg1LjYzdjIuNWgxLjI0di0yLjVoNS42M0ExLjI1LDEuMjUsMCwwLDAsMzIsMTkuNVYxN0ExLjI1LDEuMjUsMCwwLDAsMzAuNzUsMTUuNzVabTAsMy43NUgxOC4yNVYxN2gxMi41WiIvPjxwb2x5Z29uIGNsYXNzPSJjbHMtMiIgcG9pbnRzPSIyNS4xMyAzMiAyNS4xMyAzMC43NSAyMy44OCAzMC43NSAyMy44OCAzMiAxNyAzMiAxNyAzMy4yNSAzMiAzMy4yNSAzMiAzMiAyNS4xMyAzMiIvPjxjaXJjbGUgaWQ9Im1hY2hpbmUiIGNsYXNzPSJjbHMtMiIgY3g9IjIwLjEzIiBjeT0iMjciIHI9IjAuNjMiLz48cGF0aCBpZD0iZGVkaWNhdGVkX2hvc3QiIGRhdGEtbmFtZT0iZGVkaWNhdGVkIGhvc3QiIGNsYXNzPSJjbHMtMiIgZD0iTTE4LjI1LDI5LjVoMTIuNUExLjI1LDEuMjUsMCwwLDAsMzIsMjguMjV2LTIuNWExLjI1LDEuMjUsMCwwLDAtMS4yNS0xLjI1SDE4LjI1QTEuMjUsMS4yNSwwLDAsMCwxNywyNS43NXYyLjVBMS4yNSwxLjI1LDAsMCwwLDE4LjI1LDI5LjVabTAtMy43NWgxMi41djIuNUgxOC4yNVoiLz48cmVjdCBjbGFzcz0iY2xzLTMiIHg9IjE0LjUiIHk9IjE0LjUiIHdpZHRoPSIyMCIgaGVpZ2h0PSIyMCIvPjwvc3ZnPg==;align=center;verticalAlign=top;labelPosition=center;verticalLabelPosition=bottom;spacing=0;spacingLeft=16;spacingRight=16;spacingTop=0;spacingBottom=4;" parent="1" vertex="1">
            <mxGeometry x="470" y="-7672" width="48" height="48" as="geometry" />
          </mxCell>
        </UserObject>
        <UserObject placeholders="1" label="&lt;b style=&#39;font-weight:600&#39;&gt;%Primary-Label%&lt;/b&gt;&lt;br&gt;%Secondary-Text%" Badge-Text="" Icon-Name="instance--virtual" Primary-Label="IBM Virtual Server" Secondary-Text="" id="JBx76pNwKwFv1dZqiRyg-8">
          <mxCell style="shape=image;ibmType=nodep;ibmLayout=collapsed;strokeColor=#198038;fillColor=none;html=1;metaEdit=1;whiteSpace=wrap;fontFamily=IBM Plex Sans;fontSize=14;image=data:image/svg+xml,PHN2ZyBpZD0iTGF5ZXJfMSIgZGF0YS1uYW1lPSJMYXllciAxIiB4bWxucz0iaHR0cDovL3d3dy53My5vcmcvMjAwMC9zdmciIHZpZXdCb3g9IjAgMCA0OSA0OSI+PGRlZnM+PHN0eWxlPi5jbHMtMXtmaWxsOiMxOTgwMzg7fS5jbHMtMntmaWxsOiNmZmY7fS5jbHMtM3tmaWxsOm5vbmU7fTwvc3R5bGU+PC9kZWZzPjxyZWN0IGNsYXNzPSJjbHMtMSIgeD0iMC41IiB5PSIwLjUiIHdpZHRoPSI0OCIgaGVpZ2h0PSI0OCIvPjxjaXJjbGUgY2xhc3M9ImNscy0yIiBjeD0iMTguODgiIGN5PSIyOC44OCIgcj0iMC42MyIvPjxyZWN0IGNsYXNzPSJjbHMtMiIgeD0iMTUuNzUiIHk9IjE4LjI1IiB3aWR0aD0iMi41IiBoZWlnaHQ9IjEuMjUiLz48cmVjdCBjbGFzcz0iY2xzLTIiIHg9IjE5LjUiIHk9IjE4LjI1IiB3aWR0aD0iMi41IiBoZWlnaHQ9IjEuMjUiLz48cmVjdCBjbGFzcz0iY2xzLTIiIHg9IjIzLjI1IiB5PSIxOC4yNSIgd2lkdGg9IjIuNSIgaGVpZ2h0PSIxLjI1Ii8+PHJlY3QgY2xhc3M9ImNscy0yIiB4PSIyNyIgeT0iMTguMjUiIHdpZHRoPSIyLjUiIGhlaWdodD0iMS4yNSIvPjxyZWN0IGNsYXNzPSJjbHMtMiIgeD0iMzAuNzUiIHk9IjE4LjI1IiB3aWR0aD0iMi41IiBoZWlnaHQ9IjEuMjUiLz48cGF0aCBjbGFzcz0iY2xzLTIiIGQ9Ik0zMiwzMkgxN2ExLjI1LDEuMjUsMCwwLDEtMS4yNS0xLjI1VjI3QTEuMjUsMS4yNSwwLDAsMSwxNywyNS43NUgzMkExLjI1LDEuMjUsMCwwLDEsMzMuMjUsMjd2My43NUExLjI1LDEuMjUsMCwwLDEsMzIsMzJaTTE3LDI3djMuNzVIMzJWMjdaIi8+PHJlY3QgY2xhc3M9ImNscy0zIiB4PSIxNC41IiB5PSIxNC41IiB3aWR0aD0iMjAiIGhlaWdodD0iMjAiLz48cmVjdCBjbGFzcz0iY2xzLTIiIHg9IjE1Ljc1IiB5PSIyMiIgd2lkdGg9IjE3LjUiIGhlaWdodD0iMS4yNSIvPjwvc3ZnPg==;align=center;verticalAlign=top;labelPosition=center;verticalLabelPosition=bottom;spacing=0;spacingLeft=16;spacingRight=16;spacingTop=0;spacingBottom=4;" parent="1" vertex="1">
            <mxGeometry x="390" y="-7672" width="48" height="48" as="geometry" />
          </mxCell>
        </UserObject>
        <UserObject placeholders="1" label="&lt;b style=&#39;font-weight:600&#39;&gt;%Primary-Label%&lt;/b&gt;&lt;br&gt;%Secondary-Text%" Badge-Text="" Icon-Name="block-storage--alt" Primary-Label="Block Storage" Secondary-Text="" id="JBx76pNwKwFv1dZqiRyg-9">
          <mxCell style="shape=image;ibmType=nodel;ibmLayout=collapsed;strokeColor=#0f62fe;fillColor=none;html=1;metaEdit=1;whiteSpace=wrap;fontFamily=IBM Plex Sans;fontSize=14;image=data:image/svg+xml,PHN2ZyBpZD0iTGF5ZXJfMSIgZGF0YS1uYW1lPSJMYXllciAxIiB4bWxucz0iaHR0cDovL3d3dy53My5vcmcvMjAwMC9zdmciIHZpZXdCb3g9IjAgMCA0OSA0OSI+PGRlZnM+PHN0eWxlPi5jbHMtMXtmaWxsOiMwZjYyZmU7fS5jbHMtMntmaWxsOiNmZmY7fS5jbHMtM3tmaWxsOm5vbmU7fTwvc3R5bGU+PC9kZWZzPjxyZWN0IGNsYXNzPSJjbHMtMSIgeD0iMC41IiB5PSIwLjUiIHdpZHRoPSI0OCIgaGVpZ2h0PSI0OCIgcng9IjgiLz48cGF0aCBjbGFzcz0iY2xzLTIiIGQ9Ik0zMiwyN0gzMC43NXYxLjI1SDMyVjMySDE3VjI4LjI1aDEuMjVWMjdIMTdhMS4yNSwxLjI1LDAsMCwwLTEuMjUsMS4yNVYzMkExLjI1LDEuMjUsMCwwLDAsMTcsMzMuMjVIMzJBMS4yNSwxLjI1LDAsMCwwLDMzLjI1LDMyVjI4LjI1QTEuMjUsMS4yNSwwLDAsMCwzMiwyN1oiLz48Y2lyY2xlIGNsYXNzPSJjbHMtMiIgY3g9IjE4Ljg4IiBjeT0iMzAuMTMiIHI9IjAuNjMiLz48cGF0aCBjbGFzcz0iY2xzLTIiIGQ9Ik0yMy44OCwyN0gxOS41VjIyLjYyaDQuMzhabS0zLjEzLTEuMjVoMS44N1YyMy44OEgyMC43NVoiLz48cGF0aCBjbGFzcz0iY2xzLTIiIGQ9Ik0yOS41LDI3SDI1LjEyVjIyLjYySDI5LjVabS0zLjEyLTEuMjVoMS44N1YyMy44OEgyNi4zOFoiLz48cGF0aCBjbGFzcz0iY2xzLTIiIGQ9Ik0yMy44OCwyMS4zOEgxOS41VjE3aDQuMzhabS0zLjEzLTEuMjZoMS44N1YxOC4yNUgyMC43NVoiLz48cGF0aCBjbGFzcz0iY2xzLTIiIGQ9Ik0yOS41LDIxLjM4SDI1LjEyVjE3SDI5LjVabS0zLjEyLTEuMjZoMS44N1YxOC4yNUgyNi4zOFoiLz48cmVjdCBjbGFzcz0iY2xzLTMiIHg9IjE0LjUiIHk9IjE0LjUiIHdpZHRoPSIyMCIgaGVpZ2h0PSIyMCIvPjwvc3ZnPg==;align=center;verticalAlign=top;labelPosition=center;verticalLabelPosition=bottom;spacing=0;spacingLeft=16;spacingRight=16;spacingTop=0;spacingBottom=4;" parent="1" vertex="1">
            <mxGeometry x="231" y="-7531" width="48" height="48" as="geometry" />
          </mxCell>
        </UserObject>
        <UserObject placeholders="1" label="&lt;b style=&#39;font-weight:600&#39;&gt;%Primary-Label%&lt;/b&gt;&lt;br&gt;%Secondary-Text%" Badge-Text="" Icon-Name="folder--details" Primary-Label="File Storage" Secondary-Text="" id="JBx76pNwKwFv1dZqiRyg-10">
          <mxCell style="shape=image;ibmType=nodel;ibmLayout=collapsed;strokeColor=#0f62fe;fillColor=none;html=1;metaEdit=1;whiteSpace=wrap;fontFamily=IBM Plex Sans;fontSize=14;image=data:image/svg+xml,PHN2ZyBpZD0iTGF5ZXJfMSIgZGF0YS1uYW1lPSJMYXllciAxIiB4bWxucz0iaHR0cDovL3d3dy53My5vcmcvMjAwMC9zdmciIHZpZXdCb3g9IjAgMCA0OSA0OSI+PGRlZnM+PHN0eWxlPi5jbHMtMXtmaWxsOiMwZjYyZmU7fS5jbHMtMntmaWxsOiNmZmY7fS5jbHMtM3tmaWxsOm5vbmU7fTwvc3R5bGU+PC9kZWZzPjxyZWN0IGNsYXNzPSJjbHMtMSIgeD0iMC41IiB5PSIwLjUiIHdpZHRoPSI0OCIgaGVpZ2h0PSI0OCIgcng9IjgiLz48cGF0aCBjbGFzcz0iY2xzLTIiIGQ9Ik0zMiwyN0gzMC43NXYxLjI1SDMyVjMySDE3VjI4LjI1aDEuMjVWMjdIMTdhMS4yNSwxLjI1LDAsMCwwLTEuMjUsMS4yNVYzMkExLjI1LDEuMjUsMCwwLDAsMTcsMzMuMjVIMzJBMS4yNSwxLjI1LDAsMCwwLDMzLjI1LDMyVjI4LjI1QTEuMjUsMS4yNSwwLDAsMCwzMiwyN1oiLz48Y2lyY2xlIGNsYXNzPSJjbHMtMiIgY3g9IjE4Ljg4IiBjeT0iMzAuMTMiIHI9IjAuNjMiLz48cGF0aCBjbGFzcz0iY2xzLTIiIGQ9Ik0yOC42OSwxOS4wNmwtMy4xMi0zLjEzYS42Ny42NywwLDAsMC0uNDUtLjE4SDIxLjM4QTEuMjYsMS4yNiwwLDAsMCwyMC4xMiwxN1YyN2ExLjI2LDEuMjYsMCwwLDAsMS4yNiwxLjI1aDYuMjRBMS4yNiwxLjI2LDAsMCwwLDI4Ljg4LDI3VjE5LjVBLjYxLjYxLDAsMCwwLDI4LjY5LDE5LjA2Wm0tMS4zMi40NEgyNS4xMlYxNy4yNlptLTYsNy41VjE3aDIuNXYyLjVhMS4yNSwxLjI1LDAsMCwwLDEuMjQsMS4yNWgyLjVWMjdaIi8+PHJlY3QgY2xhc3M9ImNscy0zIiB4PSIxNC41IiB5PSIxNC41IiB3aWR0aD0iMjAiIGhlaWdodD0iMjAiLz48L3N2Zz4=;align=center;verticalAlign=top;labelPosition=center;verticalLabelPosition=bottom;spacing=0;spacingLeft=16;spacingRight=16;spacingTop=0;spacingBottom=4;" parent="1" vertex="1">
            <mxGeometry x="311" y="-7531" width="48" height="48" as="geometry" />
          </mxCell>
        </UserObject>
        <UserObject placeholders="1" label="&lt;b style=&#39;font-weight:600&#39;&gt;%Primary-Label%&lt;/b&gt;&lt;br&gt;%Secondary-Text%" Badge-Text="" Icon-Name="object-storage--alt" Primary-Label="Object Storage" Secondary-Text="" id="JBx76pNwKwFv1dZqiRyg-11">
          <mxCell style="shape=image;ibmType=nodel;ibmLayout=collapsed;strokeColor=#0f62fe;fillColor=none;html=1;metaEdit=1;whiteSpace=wrap;fontFamily=IBM Plex Sans;fontSize=14;image=data:image/svg+xml,PHN2ZyBpZD0iTGF5ZXJfMSIgZGF0YS1uYW1lPSJMYXllciAxIiB4bWxucz0iaHR0cDovL3d3dy53My5vcmcvMjAwMC9zdmciIHZpZXdCb3g9IjAgMCA0OSA0OSI+PGRlZnM+PHN0eWxlPi5jbHMtMXtmaWxsOiMwZjYyZmU7fS5jbHMtMntmaWxsOiNmZmY7fS5jbHMtM3tmaWxsOm5vbmU7fTwvc3R5bGU+PC9kZWZzPjxyZWN0IGNsYXNzPSJjbHMtMSIgeD0iMC41IiB5PSIwLjUiIHdpZHRoPSI0OCIgaGVpZ2h0PSI0OCIgcng9IjgiLz48cGF0aCBjbGFzcz0iY2xzLTIiIGQ9Ik0zMiwyN0gzMC43NXYxLjI1SDMyVjMySDE3VjI4LjI1aDYuMjVWMjdIMTdhMS4yNSwxLjI1LDAsMCwwLTEuMjUsMS4yNVYzMkExLjI1LDEuMjUsMCwwLDAsMTcsMzMuMjVIMzJBMS4yNSwxLjI1LDAsMCwwLDMzLjI1LDMyVjI4LjI1QTEuMjUsMS4yNSwwLDAsMCwzMiwyN1oiLz48Y2lyY2xlIGNsYXNzPSJjbHMtMiIgY3g9IjE4Ljg4IiBjeT0iMzAuMTMiIHI9IjAuNjMiLz48cmVjdCBjbGFzcz0iY2xzLTMiIHg9IjE0LjUiIHk9IjE0LjUiIHdpZHRoPSIyMCIgaGVpZ2h0PSIyMCIvPjxwYXRoIGNsYXNzPSJjbHMtMiIgZD0iTTI3LjYyLDIzLjI1YTEuODgsMS44OCwwLDAsMC0xLjI3LjUxbC0yLjUtMS41YTIuMywyLjMsMCwwLDAsMC0uMjYsMi4zLDIuMywwLDAsMCwwLS4yNmwyLjUtMS41YTEuODcsMS44NywwLDEsMC0uNi0xLjM2LDEuMDcsMS4wNywwLDAsMCwwLC4yNWwtMi41MSwxLjVBMS44NiwxLjg2LDAsMCwwLDIyLDIwLjEyYTEuODgsMS44OCwwLDAsMCwwLDMuNzYsMS44NiwxLjg2LDAsMCwwLDEuMjctLjUxbDIuNTEsMS41YTEuMDcsMS4wNywwLDAsMCwwLC4yNSwxLjg4LDEuODgsMCwxLDAsMS44Ny0xLjg3Wm0wLTVhLjYzLjYzLDAsMSwxLS42Mi42M0EuNjMuNjMsMCwwLDEsMjcuNjIsMTguMjVaTTIyLDIyLjYyYS42Mi42MiwwLDEsMSwuNjItLjYyQS42Mi42MiwwLDAsMSwyMiwyMi42MlptNS42MiwzLjEzYS42My42MywwLDEsMSwuNjMtLjYzQS42My42MywwLDAsMSwyNy42MiwyNS43NVoiLz48L3N2Zz4=;align=center;verticalAlign=top;labelPosition=center;verticalLabelPosition=bottom;spacing=0;spacingLeft=16;spacingRight=16;spacingTop=0;spacingBottom=4;" parent="1" vertex="1">
            <mxGeometry x="390" y="-7531" width="48" height="48" as="geometry" />
          </mxCell>
        </UserObject>
        <UserObject placeholders="1" label="&lt;b style=&#39;font-weight:600&#39;&gt;%Primary-Label%&lt;/b&gt;&lt;br&gt;%Secondary-Text%" Badge-Text="" Icon-Name="data-accessor" Primary-Label="Object Storage Accessor" Secondary-Text="" id="JBx76pNwKwFv1dZqiRyg-12">
          <mxCell style="shape=image;ibmType=nodep;ibmLayout=collapsed;strokeColor=#0f62fe;fillColor=none;html=1;metaEdit=1;whiteSpace=wrap;fontFamily=IBM Plex Sans;fontSize=14;image=data:image/svg+xml,PHN2ZyBpZD0iTGF5ZXJfMSIgZGF0YS1uYW1lPSJMYXllciAxIiB4bWxucz0iaHR0cDovL3d3dy53My5vcmcvMjAwMC9zdmciIHZpZXdCb3g9IjAgMCA0OSA0OSI+PGRlZnM+PHN0eWxlPi5jbHMtMXtmaWxsOiMwZjYyZmU7fS5jbHMtMntmaWxsOiNmZmY7fS5jbHMtM3tmaWxsOm5vbmU7fTwvc3R5bGU+PC9kZWZzPjxyZWN0IGNsYXNzPSJjbHMtMSIgeD0iMC41IiB5PSIwLjUiIHdpZHRoPSI0OCIgaGVpZ2h0PSI0OCIvPjxwYXRoIGNsYXNzPSJjbHMtMiIgZD0iTTMyLDI3SDMwLjc1djEuMjVIMzJWMzJIMTdWMjguMjVoMS4yNVYyN0gxN2ExLjI1LDEuMjUsMCwwLDAtMS4yNSwxLjI1VjMyQTEuMjUsMS4yNSwwLDAsMCwxNywzMy4yNUgzMkExLjI1LDEuMjUsMCwwLDAsMzMuMjUsMzJWMjguMjVBMS4yNSwxLjI1LDAsMCwwLDMyLDI3WiIvPjxjaXJjbGUgY2xhc3M9ImNscy0yIiBjeD0iMTguODgiIGN5PSIzMC4xMyIgcj0iMC42MyIvPjxyZWN0IGNsYXNzPSJjbHMtMyIgeD0iMTQuNSIgeT0iMTQuNSIgd2lkdGg9IjIwIiBoZWlnaHQ9IjIwIi8+PHBhdGggY2xhc3M9ImNscy0yIiBkPSJNMjcuNjIsMjIuNjJhMiwyLDAsMCwwLS44LjE5bC0xLjQ0LTEuNDMsMS40NC0xLjQ0YTIsMiwwLDAsMCwuOC4xOCwxLjg3LDEuODcsMCwxLDAtMS44Ny0xLjg3LDEuNzgsMS43OCwwLDAsMCwuMTkuOEwyNC41LDIwLjQ5bC0xLjQ0LTEuNDRhMS43OCwxLjc4LDAsMCwwLC4xOS0uOCwxLjg4LDEuODgsMCwxLDAtMS44NywxLjg3LDIsMiwwLDAsMCwuOC0uMThsMS40NCwxLjQ0LTEuNDQsMS40M2EyLDIsMCwwLDAtLjgtLjE5LDEuODgsMS44OCwwLDEsMCwxLjg3LDEuODgsMS43OCwxLjc4LDAsMCwwLS4xOS0uOGwxLjQ0LTEuNDQsMS40NCwxLjQ0YTEuNzgsMS43OCwwLDAsMC0uMTkuOCwxLjg4LDEuODgsMCwxLDAsMS44Ny0xLjg4Wm0wLTVhLjYzLjYzLDAsMSwxLS42Mi42M0EuNjMuNjMsMCwwLDEsMjcuNjIsMTcuNjJabS02Ljg3LjYzYS42My42MywwLDEsMSwuNjMuNjNBLjYzLjYzLDAsMCwxLDIwLjc1LDE4LjI1Wm0uNjMsNi44N0EuNjIuNjIsMCwxLDEsMjIsMjQuNS42My42MywwLDAsMSwyMS4zOCwyNS4xMlptNi4yNCwwYS42Mi42MiwwLDEsMSwuNjMtLjYyQS42Mi42MiwwLDAsMSwyNy42MiwyNS4xMloiLz48L3N2Zz4=;align=center;verticalAlign=top;labelPosition=center;verticalLabelPosition=bottom;spacing=0;spacingLeft=16;spacingRight=16;spacingTop=0;spacingBottom=4;" parent="1" vertex="1">
            <mxGeometry x="470" y="-7531" width="48" height="48" as="geometry" />
          </mxCell>
        </UserObject>
        <UserObject placeholders="1" label="&lt;b style=&#39;font-weight:600&#39;&gt;%Primary-Label%&lt;/b&gt;&lt;br&gt;%Secondary-Text%" Badge-Text="" Icon-Name="slicestor" Primary-Label="Object Storage Slicestor" Secondary-Text="" id="JBx76pNwKwFv1dZqiRyg-13">
          <mxCell style="shape=image;ibmType=nodel;ibmLayout=collapsed;strokeColor=#0f62fe;fillColor=none;html=1;metaEdit=1;whiteSpace=wrap;fontFamily=IBM Plex Sans;fontSize=14;image=data:image/svg+xml,PD94bWwgdmVyc2lvbj0iMS4wIiBlbmNvZGluZz0iVVRGLTgiPz4KPHN2ZyB3aWR0aD0iNDlweCIgaGVpZ2h0PSI0OXB4IiB2aWV3Qm94PSIwIDAgNDkgNDkiIHZlcnNpb249IjEuMSIgeG1sbnM9Imh0dHA6Ly93d3cudzMub3JnLzIwMDAvc3ZnIiB4bWxuczp4bGluaz0iaHR0cDovL3d3dy53My5vcmcvMTk5OS94bGluayI+CiAgICA8dGl0bGU+U3RvcmFnZSBTbGljZXNvcjwvdGl0bGU+CiAgICA8ZyBpZD0iUGFnZS0xIiBzdHJva2U9Im5vbmUiIHN0cm9rZS13aWR0aD0iMSIgZmlsbD0ibm9uZSIgZmlsbC1ydWxlPSJldmVub2RkIj4KICAgICAgICA8ZyBpZD0idjItNDh4NDgiIHRyYW5zZm9ybT0idHJhbnNsYXRlKC0yMjQ0LjAwMDAwMCwgLTQwMy4wMDAwMDApIj4KICAgICAgICAgICAgPGcgaWQ9IlN0b3JhZ2UtU2xpY2Vzb3IiIHRyYW5zZm9ybT0idHJhbnNsYXRlKDIyNDQuNTAwMDAwLCA0MDMuNTAwMDAwKSI+CiAgICAgICAgICAgICAgICA8cGF0aCBkPSJNOS4yNDA4MjIxOSw0OCBDNC4xNTgzODE3Myw0OCAwLDQzLjc1MTUyIDAsMzguNTU4ODggTDAsOS40NDExMiBDMCw0LjI0ODQ4IDQuMTU4MzgxNzMsMCA5LjI0MDgyMjE5LDAgTDM4Ljc1OTA5OTUsMCBDNDMuODQxNTQsMCA0OCw0LjI0ODQ4IDQ4LDkuNDQxMTIgTDQ4LDM4LjU1ODg4IEM0OCw0My43NTE1MiA0My44NDE1NCw0OCAzOC43NTkwOTk1LDQ4IEw5LjI0MDgyMjE5LDQ4IFoiIGlkPSJSZWN0YW5nbGUiIGZpbGw9IiMxMDYxRkUiPjwvcGF0aD4KICAgICAgICAgICAgICAgIDxnIGlkPSJzbGlzb3IoMSkiIHRyYW5zZm9ybT0idHJhbnNsYXRlKDguMDAwMDAwLCA4LjAwMDAwMCkiPgogICAgICAgICAgICAgICAgICAgIDxwYXRoIGQ9Ik0yOCwyMCBMMjYsMjAgTDI2LDIyIEwyOCwyMiBMMjgsMjggTDQsMjggTDQsMjIgTDYsMjIgTDYsMjAgTDQsMjAgQzIuODk1OTc4NzQsMjAuMDAxMzIyNCAyLjAwMTMyMjQ1LDIwLjg5NTk3ODcgMiwyMiBMMiwyOCBDMi4wMDEzMjI0NSwyOS4xMDQwMjEzIDIuODk1OTc4NzQsMjkuOTk4Njc3NiA0LDMwIEwyOCwzMCBDMjkuMTA0MDIxMywyOS45OTg2Nzc2IDI5Ljk5ODY3NzYsMjkuMTA0MDIxMyAzMCwyOCBMMzAsMjIgQzI5Ljk5ODY3NzYsMjAuODk1OTc4NyAyOS4xMDQwMjEzLDIwLjAwMTMyMjQgMjgsMjAgWiIgaWQ9IlBhdGgiIGZpbGw9IiNGRkZGRkYiIGZpbGwtcnVsZT0ibm9uemVybyI+PC9wYXRoPgogICAgICAgICAgICAgICAgICAgIDxjaXJjbGUgaWQ9Ik92YWwiIGZpbGw9IiNGRkZGRkYiIGZpbGwtcnVsZT0ibm9uemVybyIgY3g9IjciIGN5PSIyNSIgcj0iMSI+PC9jaXJjbGU+CiAgICAgICAgICAgICAgICAgICAgPHBhdGggZD0iTTE2LDIyIEMxNS44NDQ3MzM3LDIyIDE1LjY5MTU5MzksMjEuOTYzODk4MiAxNS41NTI3LDIxLjg5NDUgTDUuNTUyNywxNi44OTQ1IEw2LjQ0NzMsMTUuMTA1NSBMMTYsMTkuODgyMSBMMjUuNTUyNywxNS4xMDU1IEwyNi40NDczLDE2Ljg5NDUgTDE2LjQ0NzMsMjEuODk0NSBDMTYuMzA4NDA2MSwyMS45NjM4OTgyIDE2LjE1NTI2NjMsMjIgMTYsMjIgTDE2LDIyIFoiIGlkPSJQYXRoIiBmaWxsPSIjRkZGRkZGIiBmaWxsLXJ1bGU9Im5vbnplcm8iPjwvcGF0aD4KICAgICAgICAgICAgICAgICAgICA8cGF0aCBkPSJNMTYsMTYgQzE1Ljg0NDczMzcsMTYgMTUuNjkxNTkzOSwxNS45NjM4OTgyIDE1LjU1MjcsMTUuODk0NSBMNS41NTI3LDEwLjg5NDUgQzUuMjEzODM1OTIsMTAuNzI1MTM2OSA0Ljk5OTc2Nzk1LDEwLjM3ODgzMDcgNC45OTk3Njc5NSwxMCBDNC45OTk3Njc5NSw5LjYyMTE2OTI4IDUuMjEzODM1OTIsOS4yNzQ4NjMwNyA1LjU1MjcsOS4xMDU1IEwxNS41NTI3LDQuMTA1NSBDMTUuODM0MzA0NCwzLjk2NDgwNDQ5IDE2LjE2NTY5NTYsMy45NjQ4MDQ0OSAxNi40NDczLDQuMTA1NSBMMjYuNDQ3Myw5LjEwNTUgQzI2Ljc4NjE2NDEsOS4yNzQ4NjMwNyAyNy4wMDAyMzIxLDkuNjIxMTY5MjggMjcuMDAwMjMyMSwxMCBDMjcuMDAwMjMyMSwxMC4zNzg4MzA3IDI2Ljc4NjE2NDEsMTAuNzI1MTM2OSAyNi40NDczLDEwLjg5NDUgTDE2LjQ0NzMsMTUuODk0NSBDMTYuMzA4NDA2MSwxNS45NjM4OTgyIDE2LjE1NTI2NjMsMTYgMTYsMTYgWiBNOC4yMzU4LDEwIEwxNiwxMy44ODIxIEwyMy43NjQyLDEwIEwxNiw2LjExNzkgTDguMjM1OCwxMCBaIiBpZD0iU2hhcGUiIGZpbGw9IiNGRkZGRkYiIGZpbGwtcnVsZT0ibm9uemVybyI+PC9wYXRoPgogICAgICAgICAgICAgICAgICAgIDxyZWN0IGlkPSJfVHJhbnNwYXJlbnRfUmVjdGFuZ2xlXyIgeD0iMCIgeT0iMCIgd2lkdGg9IjMyIiBoZWlnaHQ9IjMyIj48L3JlY3Q+CiAgICAgICAgICAgICAgICA8L2c+CiAgICAgICAgICAgIDwvZz4KICAgICAgICA8L2c+CiAgICA8L2c+Cjwvc3ZnPg==;align=center;verticalAlign=top;labelPosition=center;verticalLabelPosition=bottom;spacing=0;spacingLeft=16;spacingRight=16;spacingTop=0;spacingBottom=4;" parent="1" vertex="1">
            <mxGeometry x="550" y="-7531" width="48" height="48" as="geometry" />
          </mxCell>
        </UserObject>
        <UserObject placeholders="1" label="&lt;b style=&#39;font-weight:600&#39;&gt;%Primary-Label%&lt;/b&gt;&lt;br&gt;%Secondary-Text%" Badge-Text="" Icon-Name="devices" Primary-Label="Devices" Secondary-Text="" id="JBx76pNwKwFv1dZqiRyg-15">
          <mxCell style="shape=image;ibmType=actor;ibmLayout=collapsed;strokeColor=#000000;fillColor=none;html=1;metaEdit=1;whiteSpace=wrap;fontFamily=IBM Plex Sans;fontSize=14;image=data:image/svg+xml,PHN2ZyBpZD0iTGF5ZXJfMSIgZGF0YS1uYW1lPSJMYXllciAxIiB4bWxucz0iaHR0cDovL3d3dy53My5vcmcvMjAwMC9zdmciIHZpZXdCb3g9IjAgMCA0OSA0OSI+PGRlZnM+PHN0eWxlPi5jbHMtMXtmaWxsOm5vbmU7fS5jbHMtMntmaWxsOiNmZmY7ZmlsbC1ydWxlOmV2ZW5vZGQ7fTwvc3R5bGU+PC9kZWZzPjxyZWN0IHg9IjAuNSIgeT0iMC41IiB3aWR0aD0iNDgiIGhlaWdodD0iNDgiIHJ4PSIyNCIvPjxyZWN0IGNsYXNzPSJjbHMtMSIgeD0iMTQuNSIgeT0iMTQuNSIgd2lkdGg9IjIwIiBoZWlnaHQ9IjIwIi8+PHBhdGggaWQ9IkZpbGwtMSIgY2xhc3M9ImNscy0yIiBkPSJNMTYuNDYsMzEuODdoNHYtOGgtNFptNCwxLjM0aC00YTEuMzQsMS4zNCwwLDAsMS0xLjM0LTEuMzR2LThhMS4zNCwxLjM0LDAsMCwxLDEuMzQtMS4zNGg0YTEuMzQsMS4zNCwwLDAsMSwxLjM0LDEuMzR2OGExLjM0LDEuMzQsMCwwLDEtMS4zNCwxLjM0WiIvPjxwYXRoIGlkPSJGaWxsLTMiIGNsYXNzPSJjbHMtMiIgZD0iTTMyLjU0LDE1Ljc5SDE3LjhhMS4zNCwxLjM0LDAsMCwwLTEuMzQsMS4zNHY0SDE3Ljh2LTRIMzIuNTR2OS4zOEgyMy4xNnYxLjM0SDI0LjV2Mi42OEgyMy4xNnYxLjM0aDZWMzAuNTNIMjUuODRWMjcuODVoNi43YTEuMzQsMS4zNCwwLDAsMCwxLjM0LTEuMzRWMTcuMTNhMS4zNCwxLjM0LDAsMCwwLTEuMzQtMS4zNCIvPjwvc3ZnPg==;align=center;verticalAlign=top;labelPosition=center;verticalLabelPosition=bottom;spacing=0;spacingLeft=16;spacingRight=16;spacingTop=0;spacingBottom=4;" parent="1" vertex="1">
            <mxGeometry x="709" y="-7531" width="48" height="48" as="geometry" />
          </mxCell>
        </UserObject>
        <UserObject placeholders="1" label="&lt;b style=&#39;font-weight:600&#39;&gt;%Primary-Label%&lt;/b&gt;&lt;br&gt;%Secondary-Text%" Badge-Text="" Icon-Name="bare-metal-server" Primary-Label="Physical Server" Secondary-Text="" id="JBx76pNwKwFv1dZqiRyg-17">
          <mxCell style="shape=image;ibmType=nodel;ibmLayout=collapsed;strokeColor=#198038;fillColor=none;html=1;metaEdit=1;whiteSpace=wrap;fontFamily=IBM Plex Sans;fontSize=14;image=data:image/svg+xml,PHN2ZyBpZD0iTGF5ZXJfMSIgZGF0YS1uYW1lPSJMYXllciAxIiB4bWxucz0iaHR0cDovL3d3dy53My5vcmcvMjAwMC9zdmciIHZpZXdCb3g9IjAgMCA0OSA0OSI+PGRlZnM+PHN0eWxlPi5jbHMtMXtmaWxsOiMxOTgwMzg7fS5jbHMtMntmaWxsOiNmZmY7fS5jbHMtM3tmaWxsOm5vbmU7fTwvc3R5bGU+PC9kZWZzPjxyZWN0IGNsYXNzPSJjbHMtMSIgeD0iMC41IiB5PSIwLjUiIHdpZHRoPSI0OCIgaGVpZ2h0PSI0OCIgcng9IjgiLz48Y2lyY2xlIGNsYXNzPSJjbHMtMiIgY3g9IjIwLjEzIiBjeT0iMTguMjUiIHI9IjAuNjMiLz48cGF0aCBjbGFzcz0iY2xzLTIiIGQ9Ik0zMC43NSwyMC43NUgxOC4yNUExLjI1LDEuMjUsMCwwLDEsMTcsMTkuNVYxN2ExLjI1LDEuMjUsMCwwLDEsMS4yNS0xLjI1aDEyLjVBMS4yNSwxLjI1LDAsMCwxLDMyLDE3djIuNUExLjI1LDEuMjUsMCwwLDEsMzAuNzUsMjAuNzVaTTE4LjI1LDE3djIuNWgxMi41VjE3WiIvPjxjaXJjbGUgY2xhc3M9ImNscy0yIiBjeD0iMjAuMTMiIGN5PSIyNC41IiByPSIwLjYzIi8+PHBhdGggY2xhc3M9ImNscy0yIiBkPSJNMzAuNzUsMjdIMTguMjVBMS4yNSwxLjI1LDAsMCwxLDE3LDI1Ljc1di0yLjVBMS4yNSwxLjI1LDAsMCwxLDE4LjI1LDIyaDEyLjVBMS4yNSwxLjI1LDAsMCwxLDMyLDIzLjI1djIuNUExLjI1LDEuMjUsMCwwLDEsMzAuNzUsMjdabS0xMi41LTMuNzV2Mi41aDEyLjV2LTIuNVoiLz48Y2lyY2xlIGNsYXNzPSJjbHMtMiIgY3g9IjIwLjEzIiBjeT0iMzAuNzUiIHI9IjAuNjMiLz48cGF0aCBjbGFzcz0iY2xzLTIiIGQ9Ik0zMC43NSwzMy4yNUgxOC4yNUExLjI1LDEuMjUsMCwwLDEsMTcsMzJWMjkuNWExLjI1LDEuMjUsMCwwLDEsMS4yNS0xLjI1aDEyLjVBMS4yNSwxLjI1LDAsMCwxLDMyLDI5LjVWMzJBMS4yNSwxLjI1LDAsMCwxLDMwLjc1LDMzLjI1Wk0xOC4yNSwyOS41VjMyaDEyLjVWMjkuNVoiLz48cmVjdCBjbGFzcz0iY2xzLTMiIHg9IjE0LjUiIHk9IjE0LjUiIHdpZHRoPSIyMCIgaGVpZ2h0PSIyMCIvPjwvc3ZnPg==;align=center;verticalAlign=top;labelPosition=center;verticalLabelPosition=bottom;spacing=0;spacingLeft=16;spacingRight=16;spacingTop=0;spacingBottom=4;" parent="1" vertex="1">
            <mxGeometry x="629" y="-7531" width="48" height="48" as="geometry" />
          </mxCell>
        </UserObject>
        <UserObject placeholders="1" label="&lt;b style=&#39;font-weight:600&#39;&gt;%Primary-Label%&lt;/b&gt;&lt;br&gt;%Secondary-Text%" Badge-Text="" Icon-Name="floating-ip" Primary-Label="Floating IP" Secondary-Text="" id="JBx76pNwKwFv1dZqiRyg-19">
          <mxCell style="shape=image;ibmType=nodel;ibmLayout=collapsed;strokeColor=#1192e8;fillColor=none;html=1;metaEdit=1;whiteSpace=wrap;fontFamily=IBM Plex Sans;fontSize=14;image=data:image/svg+xml,PHN2ZyBpZD0iTGF5ZXJfMSIgZGF0YS1uYW1lPSJMYXllciAxIiB4bWxucz0iaHR0cDovL3d3dy53My5vcmcvMjAwMC9zdmciIHZpZXdCb3g9IjAgMCA0OSA0OSI+PGRlZnM+PHN0eWxlPi5jbHMtMXtmaWxsOiMxMTkyZTg7fS5jbHMtMntmaWxsOiNmZmY7fS5jbHMtM3tmaWxsOm5vbmU7fTwvc3R5bGU+PC9kZWZzPjxyZWN0IGNsYXNzPSJjbHMtMSIgeD0iMC41IiB5PSIwLjkyIiB3aWR0aD0iNDgiIGhlaWdodD0iNDcuMTYiIHJ4PSI4Ii8+PHBhdGggY2xhc3M9ImNscy0yIiBkPSJNMzAuMTIsMjEuNDNhMy4xMywzLjEzLDAsMCwwLTMuMDYsMi40NkgyMS45NGEzLjA3LDMuMDcsMCwxLDAsMCwxLjIyaDUuMTJhMy4xMiwzLjEyLDAsMSwwLDMuMDYtMy42OFptMCw0LjkxQTEuODQsMS44NCwwLDEsMSwzMiwyNC41LDEuODUsMS44NSwwLDAsMSwzMC4xMiwyNi4zNFoiLz48cmVjdCBjbGFzcz0iY2xzLTMiIHg9IjE0LjUiIHk9IjE0LjY3IiB3aWR0aD0iMjAiIGhlaWdodD0iMTkuNjUiLz48L3N2Zz4=;align=center;verticalAlign=top;labelPosition=center;verticalLabelPosition=bottom;spacing=0;spacingLeft=16;spacingRight=16;spacingTop=0;spacingBottom=4;" parent="1" vertex="1">
            <mxGeometry x="231" y="-7350" width="48" height="48" as="geometry" />
          </mxCell>
        </UserObject>
        <UserObject placeholders="1" label="&lt;b style=&#39;font-weight:600&#39;&gt;%Primary-Label%&lt;/b&gt;&lt;br&gt;%Secondary-Text%" Badge-Text="" Icon-Name="ibm-cloud--internet-services" Primary-Label="Internet Services" Secondary-Text="" id="JBx76pNwKwFv1dZqiRyg-20">
          <mxCell style="shape=image;ibmType=nodep;ibmLayout=collapsed;strokeColor=#1192e8;fillColor=none;html=1;metaEdit=1;whiteSpace=wrap;fontFamily=IBM Plex Sans;fontSize=14;image=data:image/svg+xml,PHN2ZyBpZD0iTGF5ZXJfMSIgZGF0YS1uYW1lPSJMYXllciAxIiB4bWxucz0iaHR0cDovL3d3dy53My5vcmcvMjAwMC9zdmciIHZpZXdCb3g9IjAgMCA0OSA0OSI+PGRlZnM+PHN0eWxlPi5jbHMtMXtmaWxsOiMxMTkyZTg7fS5jbHMtMntmaWxsOiNmZmY7fS5jbHMtM3tmaWxsOm5vbmU7fTwvc3R5bGU+PC9kZWZzPjxyZWN0IGNsYXNzPSJjbHMtMSIgeD0iMC41IiB5PSIwLjUiIHdpZHRoPSI0OCIgaGVpZ2h0PSI0OCIvPjxwYXRoIGNsYXNzPSJjbHMtMiIgZD0iTTMxLjg3LDIwLjc1YTYuMjUsNi4yNSwwLDAsMC0xMi4yNi4wOCw0LjY4LDQuNjgsMCwwLDAsLjgzLDkuMjloLjk0VjI4Ljg3aC0uOTRBMy40MywzLjQzLDAsMCwxLDIwLjIsMjJsLjUyLDAsLjA2LS41MmE1LDUsMCwwLDEsOS44MS0uNzFaIi8+PHJlY3QgY2xhc3M9ImNscy0zIiB4PSIxNC41IiB5PSIxNC41IiB3aWR0aD0iMjAiIGhlaWdodD0iMjAiLz48cGF0aCBjbGFzcz0iY2xzLTIiIGQ9Ik0zMS4zNywyOS41YTEuODQsMS44NCwwLDAsMC0xLjIuNDVsLTIuNTYtMS41NGMwLS4wNSwwLS4xLDAtLjE2czAtLjExLDAtLjE2bDIuNTYtMS41NGExLjg2LDEuODYsMCwwLDAsMS4yLjQ1LDEuODgsMS44OCwwLDEsMC0xLjg3LTEuODgsMS40MiwxLjQyLDAsMCwwLDAsLjM2bC0yLjQ1LDEuNDZhMS44NiwxLjg2LDAsMCwwLTEuMzQtLjU3LDEuODgsMS44OCwwLDAsMCwwLDMuNzUsMS44NSwxLjg1LDAsMCwwLDEuMzQtLjU2TDI5LjU0LDMxYTEuNDUsMS40NSwwLDAsMCwwLC4zNSwxLjg4LDEuODgsMCwxLDAsMS44Ny0xLjg3Wm0wLTVhLjYzLjYzLDAsMSwxLS42Mi42MkEuNjMuNjMsMCwwLDEsMzEuMzcsMjQuNVptLTUuNjIsNC4zN2EuNjMuNjMsMCwwLDEtLjYzLS42Mi42NC42NCwwLDAsMSwuNjMtLjYzLjYzLjYzLDAsMCwxLC42Mi42M0EuNjIuNjIsMCwwLDEsMjUuNzUsMjguODdaTTMxLjM3LDMyYS42My42MywwLDEsMSwuNjMtLjYzQS42My42MywwLDAsMSwzMS4zNywzMloiLz48L3N2Zz4=;align=center;verticalAlign=top;labelPosition=center;verticalLabelPosition=bottom;spacing=0;spacingLeft=16;spacingRight=16;spacingTop=0;spacingBottom=4;" parent="1" vertex="1">
            <mxGeometry x="311" y="-7350" width="48" height="48" as="geometry" />
          </mxCell>
        </UserObject>
        <UserObject placeholders="1" label="&lt;b style=&#39;font-weight:600&#39;&gt;%Primary-Label%&lt;/b&gt;&lt;br&gt;%Secondary-Text%" Badge-Text="" Icon-Name="content-delivery-network" Primary-Label="CDN" Secondary-Text="" id="JBx76pNwKwFv1dZqiRyg-21">
          <mxCell style="shape=image;ibmType=nodel;ibmLayout=collapsed;strokeColor=#1192e8;fillColor=none;html=1;metaEdit=1;whiteSpace=wrap;fontFamily=IBM Plex Sans;fontSize=14;image=data:image/svg+xml,PHN2ZyBpZD0iTGF5ZXJfMSIgZGF0YS1uYW1lPSJMYXllciAxIiB4bWxucz0iaHR0cDovL3d3dy53My5vcmcvMjAwMC9zdmciIHZpZXdCb3g9IjAgMCA0OSA0OSI+PGRlZnM+PHN0eWxlPi5jbHMtMXtmaWxsOiMxMTkyZTg7fS5jbHMtMntmaWxsOiNmZmY7fS5jbHMtM3tmaWxsOm5vbmU7fTwvc3R5bGU+PC9kZWZzPjxyZWN0IGNsYXNzPSJjbHMtMSIgeD0iMC41IiB5PSIwLjUiIHdpZHRoPSI0OCIgaGVpZ2h0PSI0OCIgcng9IjgiLz48Y2lyY2xlIGNsYXNzPSJjbHMtMiIgY3g9IjI3LjYzIiBjeT0iMjcuNjMiIHI9IjEuMjUiLz48Y2lyY2xlIGNsYXNzPSJjbHMtMiIgY3g9IjE4Ljg4IiBjeT0iMTguODgiIHI9IjEuMjUiLz48cGF0aCBjbGFzcz0iY2xzLTIiIGQ9Ik0zMS4zOCwzMy44OGEyLjUsMi41LDAsMSwxLDIuNS0yLjVBMi41MSwyLjUxLDAsMCwxLDMxLjM4LDMzLjg4Wm0wLTMuNzVhMS4yNSwxLjI1LDAsMSwwLDAsMi41LDEuMjUsMS4yNSwwLDEsMCwwLTIuNVoiLz48cGF0aCBjbGFzcz0iY2xzLTIiIGQ9Ik0zMy4yNSwyNC41YTguNzgsOC43OCwwLDAsMC04Ljc1LTguNzUsOC4xNSw4LjE1LDAsMCwwLTQuMjUsMS4xMmwuNjksMS4wN2ExNiwxNiwwLDAsMSwxLjUtLjYzLDE1LjY4LDE1LjY4LDAsMCwwLTEuNjksNi41N0gxN2E2Ljc5LDYuNzksMCwwLDEsLjg4LTIuOTRsLS45NC0uODFhOC42MSw4LjYxLDAsMCwwLTEuMTksNC4zNyw4Ljg0LDguODQsMCwwLDAsMi41Niw2LjE5LDguNzUsOC43NSwwLDAsMCw2LjE5LDIuNTYsOC41LDguNSwwLDAsMCwzLjI1LS42MmwtLjM3LTEuMTlhNy4xNiw3LjE2LDAsMCwxLTMuMjUuNTZoMEExMy4xNSwxMy4xNSwwLDAsMSwyMiwyNS4xM0gzMy4xOUEyLjI1LDIuMjUsMCwwLDAsMzMuMjUsMjQuNVpNMjIuNSwzMS43NWgwYTguMDUsOC4wNSwwLDAsMS0zLjMxLTEuOTRBNy44NCw3Ljg0LDAsMCwxLDE3LDI1LjEzaDMuNzVBMTUuNTEsMTUuNTEsMCwwLDAsMjIuNSwzMS43NVpNMjIsMjMuODhBMTMuNCwxMy40LDAsMCwxLDI0LjA2LDE3aC44OEExMy40LDEzLjQsMCwwLDEsMjcsMjMuODhabTYuMjUsMGExNC40NCwxNC40NCwwLDAsMC0xLjc1LTYuNjMsNy41Nyw3LjU3LDAsMCwxLDUuNDQsNi42M1oiLz48cmVjdCBjbGFzcz0iY2xzLTMiIHg9IjE0LjUiIHk9IjE0LjUiIHdpZHRoPSIyMCIgaGVpZ2h0PSIyMCIvPjwvc3ZnPg==;align=center;verticalAlign=top;labelPosition=center;verticalLabelPosition=bottom;spacing=0;spacingLeft=16;spacingRight=16;spacingTop=0;spacingBottom=4;" parent="1" vertex="1">
            <mxGeometry x="390" y="-7350" width="48" height="48" as="geometry" />
          </mxCell>
        </UserObject>
        <UserObject placeholders="1" label="&lt;b style=&#39;font-weight:600&#39;&gt;%Primary-Label%&lt;/b&gt;&lt;br&gt;%Secondary-Text%" Badge-Text="" Icon-Name="ibm-cloud--transit-gateway" Primary-Label="Transit Gateway" Secondary-Text="" id="JBx76pNwKwFv1dZqiRyg-22">
          <mxCell style="shape=image;ibmType=nodep;ibmLayout=collapsed;strokeColor=#1192e8;fillColor=none;html=1;metaEdit=1;whiteSpace=wrap;fontFamily=IBM Plex Sans;fontSize=14;image=data:image/svg+xml,PHN2ZyBpZD0iTGF5ZXJfMSIgZGF0YS1uYW1lPSJMYXllciAxIiB4bWxucz0iaHR0cDovL3d3dy53My5vcmcvMjAwMC9zdmciIHZpZXdCb3g9IjAgMCA0OSA0OSI+PGRlZnM+PHN0eWxlPi5jbHMtMXtmaWxsOiMxMTkyZTg7fS5jbHMtMiwuY2xzLTR7ZmlsbDpub25lO30uY2xzLTJ7ZmlsbC1ydWxlOmV2ZW5vZGQ7fS5jbHMtM3tmaWxsOiNmZmY7fTwvc3R5bGU+PC9kZWZzPjxyZWN0IGNsYXNzPSJjbHMtMSIgeD0iMC41IiB5PSIwLjUiIHdpZHRoPSI0OCIgaGVpZ2h0PSI0OCIvPjxnIGlkPSJtYXNrLTIiPjxwb2x5Z29uIGlkPSJwYXRoLTEiIGNsYXNzPSJjbHMtMiIgcG9pbnRzPSIxNy4xOCAxNC4yOSAzNy4xNyAxNC4yOSAzNy4xNyAzNC4yOSAxNy4xOCAzNC4yOSAxNy4xOCAxNC4yOSIvPjwvZz48cGF0aCBjbGFzcz0iY2xzLTMiIGQ9Ik0zMC42OSwyNy41NmwyLjE4LTIuMTlhMS4yMSwxLjIxLDAsMCwwLDAtMS43NWwtMy4zMS0zLjMxLjg4LS44N2EuNTYuNTYsMCwwLDAsLjMxLjA2LDEuMjUsMS4yNSwwLDEsMC0xLjI1LTEuMjUuNTcuNTcsMCwwLDAsLjA2LjMxbC0zLjgxLDMuODJBMi4yNiwyLjI2LDAsMCwwLDI0LjUsMjJhMi4xOSwyLjE5LDAsMCwwLTEuMjUuMzhsLTIuMDYtMi4wN0wyNC41LDE3bDIuMTksMi4xOS44Ny0uODgtMi4xOS0yLjE5YTEuMjEsMS4yMSwwLDAsMC0xLjc0LDBsLTMuMzIsMy4zMi0uODctLjg4YS41Ny41NywwLDAsMCwuMDYtLjMxLDEuMjUsMS4yNSwwLDEsMC0xLjI1LDEuMjUuNTcuNTcsMCwwLDAsLjMxLS4wNmwzLjgyLDMuODFBMi4yNiwyLjI2LDAsMCwwLDIyLDI0LjVhMi4xOSwyLjE5LDAsMCwwLC4zOCwxLjI1bC0yLjA3LDIuMDZMMTcsMjQuNWwyLjE5LTIuMTktLjg4LS44Ny0yLjE5LDIuMTlhMS4yLDEuMiwwLDAsMCwwLDEuNzRsMy4zMiwzLjMyLS44OC44N2EuNTcuNTcsMCwwLDAtLjMxLS4wNiwxLjI1LDEuMjUsMCwxLDAsMS4yNSwxLjI1LjU2LjU2LDAsMCwwLS4wNi0uMzFsMy44MS0zLjgyYTIuMjUsMi4yNSwwLDAsMCwyLjUsMGwyLjA2LDIuMDdMMjQuNSwzMmwtMi4xOS0yLjE5LS44Ny44OCwyLjE5LDIuMThhMS4xOSwxLjE5LDAsMCwwLDEuNzQsMGwzLjMyLTMuMzEuODcuODhjMCwuMTItLjA2LjE4LS4wNi4zMWExLjI1LDEuMjUsMCwxLDAsMS4yNS0xLjI1LjU2LjU2LDAsMCwwLS4zMS4wNmwtMy44Mi0zLjgxYTIuMjUsMi4yNSwwLDAsMCwwLTIuNWwyLjA3LTIuMDZMMzIsMjQuNWwtMi4xOSwyLjE5Wk0yNC41LDI1Ljc1YTEuMjUsMS4yNSwwLDEsMSwxLjI1LTEuMjVBMS4yNSwxLjI1LDAsMCwxLDI0LjUsMjUuNzVaIi8+PHJlY3QgY2xhc3M9ImNscy00IiB4PSIxNC41IiB5PSIxNC41IiB3aWR0aD0iMjAiIGhlaWdodD0iMjAiLz48L3N2Zz4=;align=center;verticalAlign=top;labelPosition=center;verticalLabelPosition=bottom;spacing=0;spacingLeft=16;spacingRight=16;spacingTop=0;spacingBottom=4;" parent="1" vertex="1">
            <mxGeometry x="470" y="-7350" width="48" height="48" as="geometry" />
          </mxCell>
        </UserObject>
        <UserObject placeholders="1" label="&lt;b style=&#39;font-weight:600&#39;&gt;%Primary-Label%&lt;/b&gt;&lt;br&gt;%Secondary-Text%" Badge-Text="" Icon-Name="cloud-services" Primary-Label="Cloud Services" Secondary-Text="" id="JBx76pNwKwFv1dZqiRyg-23">
          <mxCell style="shape=image;ibmType=nodel;ibmLayout=collapsed;strokeColor=#1192e8;fillColor=none;html=1;metaEdit=1;whiteSpace=wrap;fontFamily=IBM Plex Sans;fontSize=14;image=data:image/svg+xml,PD94bWwgdmVyc2lvbj0iMS4wIiBlbmNvZGluZz0iVVRGLTgiPz4KPHN2ZyB3aWR0aD0iNDlweCIgaGVpZ2h0PSI0OHB4IiB2aWV3Qm94PSIwIDAgNDkgNDgiIHZlcnNpb249IjEuMSIgeG1sbnM9Imh0dHA6Ly93d3cudzMub3JnLzIwMDAvc3ZnIiB4bWxuczp4bGluaz0iaHR0cDovL3d3dy53My5vcmcvMTk5OS94bGluayI+CiAgICA8dGl0bGU+R3JvdXAgMTAwPC90aXRsZT4KICAgIDxnIGlkPSJQYWdlLTEiIHN0cm9rZT0ibm9uZSIgc3Ryb2tlLXdpZHRoPSIxIiBmaWxsPSJub25lIiBmaWxsLXJ1bGU9ImV2ZW5vZGQiPgogICAgICAgIDxnIGlkPSJ2Mi00OHg0OCIgdHJhbnNmb3JtPSJ0cmFuc2xhdGUoLTIyOTIuMDAwMDAwLCAtNTUzLjAwMDAwMCkiPgogICAgICAgICAgICA8ZyBpZD0iR3JvdXAtMTAwIiB0cmFuc2Zvcm09InRyYW5zbGF0ZSgyMjkyLjUwMDAwMCwgNTUzLjAwMDAwMCkiPgogICAgICAgICAgICAgICAgPGcgaWQ9IklCTS1DbG91ZC12Mi1JY29uLUNvcHkiIGZpbGw9IiMxMTkyRTgiPgogICAgICAgICAgICAgICAgICAgIDxwb2x5Z29uIGlkPSJGaWxsLTQiIHBvaW50cz0iMCA0OCA0OCA0OCA0OCAwIDAgMCI+PC9wb2x5Z29uPgogICAgICAgICAgICAgICAgPC9nPgogICAgICAgICAgICAgICAgPGcgaWQ9ImNsb3VkLXNlcnZpY2VzKDEpLWNvcHkiIHRyYW5zZm9ybT0idHJhbnNsYXRlKDcuOTk5NjMyLCA4LjAwMDAwMCkiPgogICAgICAgICAgICAgICAgICAgIDxwYXRoIGQ9Ik0yNS44MjIxMTc1LDEwLjEyNCBDMjQuOTIyMjAyOCw1LjQwOTc0MDM5IDIwLjc5OTc1MTksMS45OTk3OTQwNiAxNi4wMDAzNjc1LDEuOTk5Nzk0MDYgQzExLjIwMDk4MzIsMS45OTk3OTQwNiA3LjA3ODUzMjI1LDUuNDA5NzQwMzkgNi4xNzg2MTc1MywxMC4xMjQgQzIuMzU0NzMzNTcsMTAuODA3MDIyMSAtMC4zMTM5OTA5NDEsMTQuMjk3ODYxOSAwLjAyOTc3NTgyNTksMTguMTY3MDI2MiBDMC4zNzM1NDI1OTMsMjIuMDM2MTkwNSAzLjYxNTkxMjI1LDI1LjAwMTg0MjUgNy41MDAzMTc1MywyNS4wMDAwMDA5IEw4LjAwMDMxNzUzLDI1LjAwMDAwMDkgTDguMDAwMzE3NTMsMjMgTDcuNTAwMzE3NTMsMjMgQzQuNTM2OTQwMDEsMjMuMDAxODg3MiAyLjEwNTYxODU2LDIwLjY1NDA5MTcgMi4wMDM5NTI3NiwxNy42OTI0NTggQzEuOTAyMjg2OTUsMTQuNzMwODI0NCA0LjE2Njg4NjM4LDEyLjIyMTgyOTEgNy4xMjM0MTc1MywxMi4wMjA1IEw3Ljk1OTgxNzUzLDExLjk2MzQgTDguMDQ5ODE3NTMsMTEuMTI5OSBDOC40OTI3ODAzNCw3LjA3Mjg2ODM2IDExLjkxOTMyNTMsNC4wMDAwODM1MSAxNi4wMDA0Njc1LDQuMDAwMDgzNTEgQzIwLjA4MTYwOTcsNC4wMDAwODM1MSAyMy41MDgxNTQ3LDcuMDcyODY4MzYgMjMuOTUxMTE3NSwxMS4xMjk5IEwyNC4wNDExMTc1LDExLjk2MzQgTDI0Ljg3NzUxNzUsMTIuMDIwNSBDMjcuODM0MTA4LDEyLjIyMTgzMTUgMzAuMDk4NzI4OCwxNC43MzA5MTggMjkuOTk2OTgwMSwxNy42OTI2MDgxIEMyOS44OTUyMzE0LDIwLjY1NDI5ODMgMjcuNDYzNzU0MywyMy4wMDIwNTA2IDI0LjUwMDMxNzUsMjMgTDI0LjAwMDMxNzUsMjMgTDI0LjAwMDMxNzUsMjUuMDAwMDAwOSBMMjQuNTAwMzE3NSwyNS4wMDAwMDA5IEMyOC4zODQ3NDIxLDI1LjAwMTg5NDQgMzEuNjI3MTYwOCwyMi4wMzYyNTcyIDMxLjk3MDk1NTEsMTguMTY3MDc2IEMzMi4zMTQ3NDk0LDE0LjI5Nzg5NDggMjkuNjQ2MDIwNSwxMC44MDcwMjU0IDI1LjgyMjExNzUsMTAuMTI0IFoiIGlkPSJQYXRoIiBmaWxsPSIjRkZGRkZGIiBmaWxsLXJ1bGU9Im5vbnplcm8iPjwvcGF0aD4KICAgICAgICAgICAgICAgICAgICA8cGF0aCBkPSJNMjMuMDAwMzE3NSwyMiBMMjMuMDAwMzE3NSwyMCBMMjAuODk5MjE3NSwyMCBDMjAuNzcwMjcyNywxOS4zNzQwNjE3IDIwLjUyMTc2MzgsMTguNzc4ODgzMSAyMC4xNjczMTc1LDE4LjI0NzEgTDIxLjY1NzMxNzUsMTYuNzU3MSBMMjAuMjQzMzE3NSwxNS4zNDMxIEwxOC43NTMzMTc1LDE2LjgzMzEgQzE4LjIyMTUxMTksMTYuNDc4NjA2NiAxNy42MjYyOTc4LDE2LjIzMDA2MzIgMTcuMDAwMzE3NSwxNi4xMDExIEwxNy4wMDAzMTc1LDE0IEwxNS4wMDAzMTc1LDE0IEwxNS4wMDAzMTc1LDE2LjEwMTEgQzE0LjM3NDM3OTMsMTYuMjMwMDQ0OCAxMy43NzkyMDA3LDE2LjQ3ODU1MzcgMTMuMjQ3NDE3NSwxNi44MzMgTDExLjc1NzQxNzUsMTUuMzQzIEwxMC4zNDM0MTc1LDE2Ljc1NyBMMTEuODMzNDE3NSwxOC4yNDcgQzExLjQ3ODkyNDIsMTguNzc4ODA1NyAxMS4yMzAzODA3LDE5LjM3NDAxOTcgMTEuMTAxNDE3NSwyMCBMOS4wMDAzMTc1MywyMCBMOS4wMDAzMTc1MywyMiBMMTEuMTAxNDE3NSwyMiBDMTEuMjMwMzYyMywyMi42MjU5MzgzIDExLjQ3ODg3MTIsMjMuMjIxMTE2OSAxMS44MzMzMTc1LDIzLjc1MjkgTDEwLjM0MzMxNzUsMjUuMjQyOSBMMTEuNzU3MzE3NSwyNi42NTY5IEwxMy4yNDczMTc1LDI1LjE2NjkgQzEzLjc3OTEyMzIsMjUuNTIxMzkzNCAxNC4zNzQzMzczLDI1Ljc2OTkzNjggMTUuMDAwMzE3NSwyNS44OTg5IEwxNS4wMDAzMTc1LDI4IEwxNy4wMDAzMTc1LDI4IEwxNy4wMDAzMTc1LDI1Ljg5ODkgQzE3LjYyNjI1NTgsMjUuNzY5OTU1MiAxOC4yMjE0MzQ0LDI1LjUyMTQ0NjMgMTguNzUzMjE3NSwyNS4xNjcgTDIwLjI0MzIxNzUsMjYuNjU3IEwyMS42NTcyMTc1LDI1LjI0MyBMMjAuMTY3MjE3NSwyMy43NTMgQzIwLjUyMTcxMDksMjMuMjIxMTk0MyAyMC43NzAyNTQ0LDIyLjYyNTk4MDMgMjAuODk5MjE3NSwyMiBMMjMuMDAwMzE3NSwyMiBaIE0xNi4wMDAzMTc1LDI0IEMxNC4zNDM0NjMzLDI0IDEzLjAwMDMxNzUsMjIuNjU2ODU0MiAxMy4wMDAzMTc1LDIxIEMxMy4wMDAzMTc1LDE5LjM0MzE0NTggMTQuMzQzNDYzMywxOCAxNi4wMDAzMTc1LDE4IEMxNy42NTcxNzE4LDE4IDE5LjAwMDMxNzUsMTkuMzQzMTQ1OCAxOS4wMDAzMTc1LDIxIEMxOC45OTg0OTg4LDIyLjY1NjEwMDMgMTcuNjU2NDE3OSwyMy45OTgxODEzIDE2LjAwMDMxNzUsMjQgTDE2LjAwMDMxNzUsMjQgWiIgaWQ9IlNoYXBlIiBmaWxsPSIjRkZGRkZGIiBmaWxsLXJ1bGU9Im5vbnplcm8iPjwvcGF0aD4KICAgICAgICAgICAgICAgICAgICA8cmVjdCBpZD0iX1RyYW5zcGFyZW50X1JlY3RhbmdsZV8iIHg9IjAuMDAwMzE3NTMxNzg1IiB5PSIwIiB3aWR0aD0iMzIiIGhlaWdodD0iMzIiPjwvcmVjdD4KICAgICAgICAgICAgICAgIDwvZz4KICAgICAgICAgICAgPC9nPgogICAgICAgIDwvZz4KICAgIDwvZz4KPC9zdmc+;align=center;verticalAlign=top;labelPosition=center;verticalLabelPosition=bottom;spacing=0;spacingLeft=16;spacingRight=16;spacingTop=0;spacingBottom=4;" parent="1" vertex="1">
            <mxGeometry x="550" y="-7350" width="49" height="48" as="geometry" />
          </mxCell>
        </UserObject>
        <UserObject placeholders="1" label="&lt;b style=&#39;font-weight:600&#39;&gt;%Primary-Label%&lt;/b&gt;&lt;br&gt;%Secondary-Text%" Badge-Text="" Icon-Name="direct-link" Primary-Label="Direct Link" Secondary-Text="" id="JBx76pNwKwFv1dZqiRyg-24">
          <mxCell style="shape=image;ibmType=nodep;ibmLayout=collapsed;strokeColor=#1192e8;fillColor=none;html=1;metaEdit=1;whiteSpace=wrap;fontFamily=IBM Plex Sans;fontSize=14;image=data:image/svg+xml,PHN2ZyBpZD0iTGF5ZXJfMSIgZGF0YS1uYW1lPSJMYXllciAxIiB4bWxucz0iaHR0cDovL3d3dy53My5vcmcvMjAwMC9zdmciIHZpZXdCb3g9IjAgMCA0OSA0OSI+PGRlZnM+PHN0eWxlPi5jbHMtMXtmaWxsOiMxMTkyZTg7fS5jbHMtMntmaWxsOiNmZmY7fS5jbHMtM3tmaWxsOm5vbmU7fTwvc3R5bGU+PC9kZWZzPjxyZWN0IGNsYXNzPSJjbHMtMSIgeD0iMC41IiB5PSIwLjUiIHdpZHRoPSI0OCIgaGVpZ2h0PSI0OCIvPjxwYXRoIGNsYXNzPSJjbHMtMiIgZD0iTTI3LjI2LDIzLjYxbC01LTVhMS4yNCwxLjI0LDAsMCwwLTEuNzcsMGwtNSw1YTEuMjYsMS4yNiwwLDAsMCwwLDEuNzhsMi4wNiwyLjA1LTEuMTcsMS4xOC44OC44OCwxLjE3LTEuMTcsMi4wNiwyLjA1YTEuMjQsMS4yNCwwLDAsMCwxLjc3LDBMMjMuNjcsMjlsLS44OC0uODhMMjEuMzcsMjkuNWwtNS01LDUtNSw1LDUtLjkzLjk0Ljg4Ljg4Ljk0LS45M2ExLjI4LDEuMjgsMCwwLDAsMC0xLjc4WiIvPjxwYXRoIGNsYXNzPSJjbHMtMiIgZD0iTTMzLjUxLDIzLjYxbC0yLjA2LTIuMDUsMS4xNy0xLjE4LS44OC0uODgtMS4xNywxLjE3LTIuMDYtMi4wNWExLjI0LDEuMjQsMCwwLDAtMS43NywwTDI1LjMzLDIwbC44OC44OCwxLjQxLTEuNDEsNSw1LTUsNS01LTUsLjkzLS45NC0uODgtLjg4LS45NC45M2ExLjI4LDEuMjgsMCwwLDAsMCwxLjc4bDUsNWExLjI0LDEuMjQsMCwwLDAsMS43NywwbDUtNWExLjI2LDEuMjYsMCwwLDAsMC0xLjc4WiIvPjxyZWN0IGNsYXNzPSJjbHMtMyIgeD0iMTQuNSIgeT0iMTQuNSIgd2lkdGg9IjIwIiBoZWlnaHQ9IjIwIi8+PC9zdmc+;align=center;verticalAlign=top;labelPosition=center;verticalLabelPosition=bottom;spacing=0;spacingLeft=16;spacingRight=16;spacingTop=0;spacingBottom=4;" parent="1" vertex="1">
            <mxGeometry x="629" y="-7350" width="48" height="48" as="geometry" />
          </mxCell>
        </UserObject>
        <UserObject placeholders="1" label="&lt;b style=&#39;font-weight:600&#39;&gt;%Primary-Label%&lt;/b&gt;&lt;br&gt;%Secondary-Text%" Badge-Text="" Icon-Name="wikis" Primary-Label="Internet" Secondary-Text="" id="JBx76pNwKwFv1dZqiRyg-25">
          <mxCell style="shape=image;ibmType=nodel;ibmLayout=collapsed;strokeColor=#1192e8;fillColor=none;html=1;metaEdit=1;whiteSpace=wrap;fontFamily=IBM Plex Sans;fontSize=14;image=data:image/svg+xml,PHN2ZyBpZD0iTGF5ZXJfMSIgZGF0YS1uYW1lPSJMYXllciAxIiB4bWxucz0iaHR0cDovL3d3dy53My5vcmcvMjAwMC9zdmciIHZpZXdCb3g9IjAgMCA0OSA0OSI+PGRlZnM+PHN0eWxlPi5jbHMtMXtmaWxsOiMxMTkyZTg7fS5jbHMtMntmaWxsOiNmZmY7fS5jbHMtM3tmaWxsOm5vbmU7fTwvc3R5bGU+PC9kZWZzPjxyZWN0IGNsYXNzPSJjbHMtMSIgeD0iMC41IiB5PSIwLjUiIHdpZHRoPSI0OCIgaGVpZ2h0PSI0OCIgcng9IjgiLz48cGF0aCBjbGFzcz0iY2xzLTIiIGQ9Ik0yNC41LDE1Ljc1YTguNzUsOC43NSwwLDEsMCw4Ljc1LDguNzVBOC43NSw4Ljc1LDAsMCwwLDI0LjUsMTUuNzVaTTMyLDIzLjg4SDI4LjI1YTE1LjE5LDE1LjE5LDAsMCwwLTEuNzQtNi42QTcuNSw3LjUsMCwwLDEsMzIsMjMuODhaTTI0LjUsMzJoLS40MkExMy43MiwxMy43MiwwLDAsMSwyMiwyNS4xMmg1QTEzLjYzLDEzLjYzLDAsMCwxLDI0Ljk0LDMyWk0yMiwyMy44OEExMy42MywxMy42MywwLDAsMSwyNC4wNiwxN2EzLjkzLDMuOTMsMCwwLDEsLjg0LDBBMTMuNjQsMTMuNjQsMCwwLDEsMjcsMjMuODhabS40OC02LjZhMTUuMTgsMTUuMTgsMCwwLDAtMS43Myw2LjZIMTdhNy41LDcuNSwwLDAsMSw1LjQ5LTYuNlpNMTcsMjUuMTJoMy43NWExNS4yLDE1LjIsMCwwLDAsMS43Miw2LjZBNy41Miw3LjUyLDAsMCwxLDE3LDI1LjEyWm05LjQ4LDYuNmExNS4xOSwxNS4xOSwwLDAsMCwxLjc0LTYuNkgzMkE3LjUsNy41LDAsMCwxLDI2LjUxLDMxLjcyWiIvPjxyZWN0IGlkPSJfVHJhbnNwYXJlbnRfUmVjdGFuZ2xlXyIgZGF0YS1uYW1lPSIgVHJhbnNwYXJlbnQgUmVjdGFuZ2xlICIgY2xhc3M9ImNscy0zIiB4PSIxNC41IiB5PSIxNC41IiB3aWR0aD0iMjAiIGhlaWdodD0iMjAiLz48L3N2Zz4=;align=center;verticalAlign=top;labelPosition=center;verticalLabelPosition=bottom;spacing=0;spacingLeft=16;spacingRight=16;spacingTop=0;spacingBottom=4;" parent="1" vertex="1">
            <mxGeometry x="787" y="-7350" width="48" height="48" as="geometry" />
          </mxCell>
        </UserObject>
        <UserObject placeholders="1" label="&lt;b style=&#39;font-weight:600&#39;&gt;%Primary-Label%&lt;/b&gt;&lt;br&gt;%Secondary-Text%" Badge-Text="" Icon-Name="hybrid-networking--alt" Primary-Label="Hybrid Networking" Secondary-Text="" id="JBx76pNwKwFv1dZqiRyg-26">
          <mxCell style="shape=image;ibmType=nodel;ibmLayout=collapsed;strokeColor=#1192e8;fillColor=none;html=1;metaEdit=1;whiteSpace=wrap;fontFamily=IBM Plex Sans;fontSize=14;image=data:image/svg+xml,PHN2ZyBpZD0iTGF5ZXJfMSIgZGF0YS1uYW1lPSJMYXllciAxIiB4bWxucz0iaHR0cDovL3d3dy53My5vcmcvMjAwMC9zdmciIHZpZXdCb3g9IjAgMCA0OSA0OSI+PGRlZnM+PHN0eWxlPi5jbHMtMXtmaWxsOiMxMTkyZTg7fS5jbHMtMntmaWxsOm5vbmU7fS5jbHMtM3tmaWxsOiNmZmY7fTwvc3R5bGU+PC9kZWZzPjxyZWN0IGNsYXNzPSJjbHMtMSIgeD0iMC41IiB5PSIwLjUiIHdpZHRoPSI0OCIgaGVpZ2h0PSI0OCIgcng9IjgiLz48cmVjdCBjbGFzcz0iY2xzLTIiIHg9IjE0LjUiIHk9IjE0LjUiIHdpZHRoPSIyMCIgaGVpZ2h0PSIyMCIvPjxwYXRoIGNsYXNzPSJjbHMtMyIgZD0iTTMwLjc1LDI4LjI1YTIuNDYsMi40NiwwLDAsMC0xLjI2LjM1bC00LjExLTQuMSw0LjExLTQuMWEyLjQ2LDIuNDYsMCwwLDAsMS4yNi4zNSwyLjUsMi41LDAsMSwwLTIuNS0yLjUsMi40NiwyLjQ2LDAsMCwwLC4zNSwxLjI2bC00LjEsNC4xMS00LjEtNC4xMWEyLjQ2LDIuNDYsMCwwLDAsLjM1LTEuMjYsMi41LDIuNSwwLDEsMC0yLjUsMi41LDIuNDYsMi40NiwwLDAsMCwxLjI2LS4zNWw0LjExLDQuMS00LjExLDQuMWEyLjQ2LDIuNDYsMCwwLDAtMS4yNi0uMzUsMi41LDIuNSwwLDEsMCwyLjUsMi41LDIuNDYsMi40NiwwLDAsMC0uMzUtMS4yNmw0LjEtNC4xMSw0LjEsNC4xMWEyLjQ2LDIuNDYsMCwwLDAtLjM1LDEuMjYsMi41LDIuNSwwLDEsMCwyLjUtMi41Wm0wLTExLjI1YTEuMjUsMS4yNSwwLDEsMS0xLjI1LDEuMjVBMS4yNSwxLjI1LDAsMCwxLDMwLjc1LDE3Wk0xOC4yNSwzMmExLjI1LDEuMjUsMCwxLDEsMS4yNS0xLjI1QTEuMjUsMS4yNSwwLDAsMSwxOC4yNSwzMloiLz48L3N2Zz4=;align=center;verticalAlign=top;labelPosition=center;verticalLabelPosition=bottom;spacing=0;spacingLeft=16;spacingRight=16;spacingTop=0;spacingBottom=4;" parent="1" vertex="1">
            <mxGeometry x="709" y="-7350" width="48" height="48" as="geometry" />
          </mxCell>
        </UserObject>
        <mxCell id="JBx76pNwKwFv1dZqiRyg-27" value="Deployment Nodes" style="text;html=1;strokeColor=none;fillColor=none;align=left;verticalAlign=middle;whiteSpace=wrap;rounded=0;fontFamily=IBM Plex Sans;fontSize=19;fontStyle=1" parent="1" vertex="1">
          <mxGeometry x="231" y="-7712" width="240" height="30" as="geometry" />
        </mxCell>
        <mxCell id="JBx76pNwKwFv1dZqiRyg-28" value="VPC &amp;amp; Network Resources" style="text;html=1;strokeColor=none;fillColor=none;align=left;verticalAlign=middle;whiteSpace=wrap;rounded=0;fontFamily=IBM Plex Sans;fontSize=19;fontStyle=1" parent="1" vertex="1">
          <mxGeometry x="231" y="-7390" width="270" height="30" as="geometry" />
        </mxCell>
        <mxCell id="JBx76pNwKwFv1dZqiRyg-29" value="Infrastructure Nodes" style="text;html=1;strokeColor=none;fillColor=none;align=left;verticalAlign=middle;whiteSpace=wrap;rounded=0;fontFamily=IBM Plex Sans;fontSize=19;fontStyle=1" parent="1" vertex="1">
          <mxGeometry x="231" y="-7223" width="270" height="30" as="geometry" />
        </mxCell>
        <UserObject placeholders="1" label="&lt;b style=&#39;font-weight:600&#39;&gt;%Primary-Label%&lt;/b&gt;&lt;br&gt;%Secondary-Text%" Badge-Text="" Icon-Name="load-balancer--pool" Primary-Label="Load Balancer Pool" Secondary-Text="" id="JBx76pNwKwFv1dZqiRyg-31">
          <mxCell style="shape=image;ibmType=nodel;ibmLayout=collapsed;strokeColor=#1192e8;fillColor=none;html=1;metaEdit=1;whiteSpace=wrap;fontFamily=IBM Plex Sans;fontSize=14;image=data:image/svg+xml,PHN2ZyBpZD0iTGF5ZXJfMSIgZGF0YS1uYW1lPSJMYXllciAxIiB4bWxucz0iaHR0cDovL3d3dy53My5vcmcvMjAwMC9zdmciIHZpZXdCb3g9IjAgMCA0OSA0OSI+PGRlZnM+PHN0eWxlPi5jbHMtMXtmaWxsOiMxMTkyZTg7fS5jbHMtMntmaWxsOiNmZmY7fS5jbHMtM3tmaWxsOm5vbmU7fTwvc3R5bGU+PC9kZWZzPjxyZWN0IGNsYXNzPSJjbHMtMSIgeD0iMC41IiB5PSIwLjUiIHdpZHRoPSI0OCIgaGVpZ2h0PSI0OCIgcng9IjgiLz48cmVjdCBjbGFzcz0iY2xzLTIiIHg9IjIwLjc1IiB5PSIyMy44OCIgd2lkdGg9IjcuNSIgaGVpZ2h0PSIxLjI1Ii8+PHJlY3QgY2xhc3M9ImNscy0zIiB4PSIxNC41IiB5PSIxNC41IiB3aWR0aD0iMjAiIGhlaWdodD0iMjAiLz48cGF0aCBjbGFzcz0iY2xzLTIiIGQ9Ik0xOS45NCwxOC40M2EyLDIsMCwwLDAsLjE4LS44MSwxLjg3LDEuODcsMCwxLDAtMS44NywxLjg4LDEuNzgsMS43OCwwLDAsMCwuOC0uMTlsMS43LDEuN3YxLjYxSDIyVjIwLjQ5Wm0tMS42OS0uMThhLjYzLjYzLDAsMSwxLC42My0uNjNBLjYzLjYzLDAsMCwxLDE4LjI1LDE4LjI1WiIvPjxwYXRoIGNsYXNzPSJjbHMtMiIgZD0iTTI2LjM4LDE3LjYyYTEuODgsMS44OCwwLDAsMC0zLjc2LDAsMS44NiwxLjg2LDAsMCwwLDEuMjYsMS43NnYzLjI0aDEuMjRWMTkuMzhBMS44NiwxLjg2LDAsMCwwLDI2LjM4LDE3LjYyWm0tMS44OC42M2EuNjMuNjMsMCwxLDEsLjYyLS42M0EuNjMuNjMsMCwwLDEsMjQuNSwxOC4yNVoiLz48cGF0aCBjbGFzcz0iY2xzLTIiIGQ9Ik0zMC43NSwxNS43NWExLjg3LDEuODcsMCwwLDAtMS44NywxLjg3LDIsMiwwLDAsMCwuMTguODFMMjcsMjAuNDl2Mi4xM2gxLjI1VjIxbDEuNy0xLjdhMS43OCwxLjc4LDAsMCwwLC44LjE5LDEuODgsMS44OCwwLDAsMCwwLTMuNzVabTAsMi41YS42My42MywwLDEsMSwuNjMtLjYzQS42My42MywwLDAsMSwzMC43NSwxOC4yNVoiLz48cGF0aCBjbGFzcz0iY2xzLTIiIGQ9Ik0yMiwyNi4zOEgyMC43NVYyOGwtMS43LDEuN2ExLjc4LDEuNzgsMCwwLDAtLjgtLjE5LDEuODgsMS44OCwwLDEsMCwxLjg3LDEuODgsMiwyLDAsMCwwLS4xOC0uODFMMjIsMjguNTFaTTE4LjI1LDMyYS42My42MywwLDEsMSwuNjMtLjYyQS42My42MywwLDAsMSwxOC4yNSwzMloiLz48cGF0aCBjbGFzcz0iY2xzLTIiIGQ9Ik0yNS4xMiwyOS42MlYyNi4zOEgyMy44OHYzLjI0YTEuODYsMS44NiwwLDAsMC0xLjI2LDEuNzYsMS44OCwxLjg4LDAsMCwwLDMuNzYsMEExLjg2LDEuODYsMCwwLDAsMjUuMTIsMjkuNjJaTTI0LjUsMzJhLjYzLjYzLDAsMSwxLC42Mi0uNjJBLjYyLjYyLDAsMCwxLDI0LjUsMzJaIi8+PHBhdGggY2xhc3M9ImNscy0yIiBkPSJNMzAuNzUsMjkuNWExLjc4LDEuNzgsMCwwLDAtLjguMTlMMjguMjUsMjhWMjYuMzhIMjd2Mi4xM2wyLjA2LDIuMDZhMiwyLDAsMCwwLS4xOC44MSwxLjg3LDEuODcsMCwxLDAsMS44Ny0xLjg4Wm0wLDIuNWEuNjMuNjMsMCwxLDEsLjYzLS42MkEuNjMuNjMsMCwwLDEsMzAuNzUsMzJaIi8+PC9zdmc+;align=center;verticalAlign=top;labelPosition=center;verticalLabelPosition=bottom;spacing=0;spacingLeft=16;spacingRight=16;spacingTop=0;spacingBottom=4;" parent="1" vertex="1">
            <mxGeometry x="311" y="-7184" width="48" height="48" as="geometry" />
          </mxCell>
        </UserObject>
        <UserObject placeholders="1" label="&lt;b style=&#39;font-weight:600&#39;&gt;%Primary-Label%&lt;/b&gt;&lt;br&gt;%Secondary-Text%" Badge-Text="" Icon-Name="load-balancer--listener" Primary-Label="Load Balancer Listener" Secondary-Text="" id="JBx76pNwKwFv1dZqiRyg-32">
          <mxCell style="shape=image;ibmType=nodel;ibmLayout=collapsed;strokeColor=#1192e8;fillColor=none;html=1;metaEdit=1;whiteSpace=wrap;fontFamily=IBM Plex Sans;fontSize=14;image=data:image/svg+xml,PHN2ZyBpZD0iTGF5ZXJfMSIgZGF0YS1uYW1lPSJMYXllciAxIiB4bWxucz0iaHR0cDovL3d3dy53My5vcmcvMjAwMC9zdmciIHZpZXdCb3g9IjAgMCA0OSA0OSI+PGRlZnM+PHN0eWxlPi5jbHMtMXtmaWxsOiMxMTkyZTg7fS5jbHMtMntmaWxsOiNmZmY7fS5jbHMtM3tmaWxsOm5vbmU7fTwvc3R5bGU+PC9kZWZzPjxyZWN0IGNsYXNzPSJjbHMtMSIgeD0iMC41IiB5PSIwLjUiIHdpZHRoPSI0OCIgaGVpZ2h0PSI0OCIgcng9IjgiLz48cmVjdCBjbGFzcz0iY2xzLTIiIHg9IjIzLjg4IiB5PSIxOS41IiB3aWR0aD0iMS4yNSIgaGVpZ2h0PSIxLjI1Ii8+PHJlY3QgY2xhc3M9ImNscy0yIiB4PSIyNi4zOCIgeT0iMTkuNSIgd2lkdGg9IjEuMjUiIGhlaWdodD0iMS4yNSIvPjxyZWN0IGNsYXNzPSJjbHMtMiIgeD0iMjEuMzciIHk9IjE5LjUiIHdpZHRoPSIxLjI1IiBoZWlnaHQ9IjEuMjUiLz48cGF0aCBjbGFzcz0iY2xzLTIiIGQ9Ik0zMC4xMiwyNC41aC01VjIyLjYySDIzLjg4VjI0LjVoLTVhMS4yNiwxLjI2LDAsMCwwLTEuMjYsMS4yNVYyOS41aDEuMjZWMjUuNzVoNVYyOS41aDEuMjRWMjUuNzVoNVYyOS41aDEuMjZWMjUuNzVBMS4yNiwxLjI2LDAsMCwwLDMwLjEyLDI0LjVaIi8+PHJlY3QgY2xhc3M9ImNscy0yIiB4PSIxNyIgeT0iMzAuNzUiIHdpZHRoPSIyLjUiIGhlaWdodD0iMi41Ii8+PHJlY3QgY2xhc3M9ImNscy0yIiB4PSIyMy4yNSIgeT0iMzAuNzUiIHdpZHRoPSIyLjUiIGhlaWdodD0iMi41Ii8+PHJlY3QgY2xhc3M9ImNscy0yIiB4PSIyOS41IiB5PSIzMC43NSIgd2lkdGg9IjIuNSIgaGVpZ2h0PSIyLjUiLz48cmVjdCBjbGFzcz0iY2xzLTIiIHg9IjIxLjM4IiB5PSIxNi4zOCIgd2lkdGg9IjYuMjUiIGhlaWdodD0iMS4yNSIvPjxyZWN0IGNsYXNzPSJjbHMtMyIgeD0iMTQuNSIgeT0iMTQuNSIgd2lkdGg9IjIwIiBoZWlnaHQ9IjIwIi8+PC9zdmc+;align=center;verticalAlign=top;labelPosition=center;verticalLabelPosition=bottom;spacing=0;spacingLeft=16;spacingRight=16;spacingTop=0;spacingBottom=4;" parent="1" vertex="1">
            <mxGeometry x="390" y="-7184" width="48" height="48" as="geometry" />
          </mxCell>
        </UserObject>
        <UserObject placeholders="1" label="&lt;b style=&#39;font-weight:600&#39;&gt;%Primary-Label%&lt;/b&gt;&lt;br&gt;%Secondary-Text%" Badge-Text="" Icon-Name="load-balancer--classic" Primary-Label="Classic Load Balancer" Secondary-Text="" id="JBx76pNwKwFv1dZqiRyg-33">
          <mxCell style="shape=image;ibmType=nodep;ibmLayout=collapsed;strokeColor=#1192e8;fillColor=none;html=1;metaEdit=1;whiteSpace=wrap;fontFamily=IBM Plex Sans;fontSize=14;image=data:image/svg+xml,PHN2ZyBpZD0iTGF5ZXJfMSIgZGF0YS1uYW1lPSJMYXllciAxIiB4bWxucz0iaHR0cDovL3d3dy53My5vcmcvMjAwMC9zdmciIHZpZXdCb3g9IjAgMCA0OSA0OSI+PGRlZnM+PHN0eWxlPi5jbHMtMXtmaWxsOiMxMTkyZTg7fS5jbHMtMntmaWxsOiNmZmY7fS5jbHMtM3tmaWxsOm5vbmU7fTwvc3R5bGU+PC9kZWZzPjxyZWN0IGNsYXNzPSJjbHMtMSIgeD0iMC41IiB5PSIwLjUiIHdpZHRoPSI0OCIgaGVpZ2h0PSI0OCIgcng9IjgiLz48cGF0aCBjbGFzcz0iY2xzLTIiIGQ9Ik0zMC4xMiwyNC41aC01VjIySDIzLjg4djIuNWgtNWExLjI2LDEuMjYsMCwwLDAtMS4yNiwxLjI1VjI5LjVoMS4yNlYyNS43NWg1VjI5LjVoMS4yNFYyNS43NWg1VjI5LjVoMS4yNlYyNS43NUExLjI2LDEuMjYsMCwwLDAsMzAuMTIsMjQuNVoiLz48cGF0aCBjbGFzcz0iY2xzLTIiIGQ9Ik0yNywyMC43NXYtNUgyMnY1Wk0yMy4yNSwxOS41VjE3aDIuNXYyLjVaIi8+PHJlY3QgY2xhc3M9ImNscy0yIiB4PSIxNyIgeT0iMzAuNzUiIHdpZHRoPSIyLjUiIGhlaWdodD0iMi41Ii8+PHJlY3QgY2xhc3M9ImNscy0yIiB4PSIyMy4yNSIgeT0iMzAuNzUiIHdpZHRoPSIyLjUiIGhlaWdodD0iMi41Ii8+PHJlY3QgY2xhc3M9ImNscy0yIiB4PSIyOS41IiB5PSIzMC43NSIgd2lkdGg9IjIuNSIgaGVpZ2h0PSIyLjUiLz48cmVjdCBjbGFzcz0iY2xzLTMiIHg9IjE0LjUiIHk9IjE0LjUiIHdpZHRoPSIyMCIgaGVpZ2h0PSIyMCIvPjwvc3ZnPg==;align=center;verticalAlign=top;labelPosition=center;verticalLabelPosition=bottom;spacing=0;spacingLeft=16;spacingRight=16;spacingTop=0;spacingBottom=4;" parent="1" vertex="1">
            <mxGeometry x="231" y="-7184" width="48" height="48" as="geometry" />
          </mxCell>
        </UserObject>
        <UserObject placeholders="1" label="&lt;b style=&#39;font-weight:600&#39;&gt;%Primary-Label%&lt;/b&gt;&lt;br&gt;%Secondary-Text%" Badge-Text="" Icon-Name="load-balancer--global" Primary-Label="Global Load Balancer" Secondary-Text="" id="JBx76pNwKwFv1dZqiRyg-34">
          <mxCell style="shape=image;ibmType=nodel;ibmLayout=collapsed;strokeColor=#1192e8;fillColor=none;html=1;metaEdit=1;whiteSpace=wrap;fontFamily=IBM Plex Sans;fontSize=14;image=data:image/svg+xml,PHN2ZyBpZD0iTGF5ZXJfMSIgZGF0YS1uYW1lPSJMYXllciAxIiB4bWxucz0iaHR0cDovL3d3dy53My5vcmcvMjAwMC9zdmciIHZpZXdCb3g9IjAgMCA0OSA0OSI+PGRlZnM+PHN0eWxlPi5jbHMtMXtmaWxsOiMxMTkyZTg7fS5jbHMtMntmaWxsOiNmZmY7fS5jbHMtM3tmaWxsOm5vbmU7fTwvc3R5bGU+PC9kZWZzPjxyZWN0IGNsYXNzPSJjbHMtMSIgeD0iMC41IiB5PSIwLjUiIHdpZHRoPSI0OCIgaGVpZ2h0PSI0OCIvPjxwYXRoIGNsYXNzPSJjbHMtMiIgZD0iTTMwLjc1LDI0LjVIMjcuNjJhMi41MSwyLjUxLDAsMCwxLTIuNS0yLjVIMjMuODhhMi41MSwyLjUxLDAsMCwxLTIuNSwyLjVIMTguMjVBMS4yNSwxLjI1LDAsMCwwLDE3LDI1Ljc1djIuNWgxLjI1di0yLjVoMy4xM2EzLjc3LDMuNzcsMCwwLDAsMi41LTF2My40NmgxLjI0VjI0Ljc5YTMuNzcsMy43NywwLDAsMCwyLjUsMWgzLjEzdjIuNUgzMnYtMi41QTEuMjUsMS4yNSwwLDAsMCwzMC43NSwyNC41WiIvPjxwYXRoIGNsYXNzPSJjbHMtMiIgZD0iTTE5LjUsMzMuMjVIMTUuNzVWMjkuNUgxOS41Wk0xNywzMmgxLjI1VjMwLjc1SDE3WiIvPjxwYXRoIGNsYXNzPSJjbHMtMiIgZD0iTTI2LjM4LDMzLjI1SDIyLjYyVjI5LjVoMy43NlpNMjMuODgsMzJoMS4yNFYzMC43NUgyMy44OFoiLz48cGF0aCBjbGFzcz0iY2xzLTIiIGQ9Ik0zMy4yNSwzMy4yNUgyOS41VjI5LjVoMy43NVpNMzAuNzUsMzJIMzJWMzAuNzVIMzAuNzVaIi8+PHBhdGggY2xhc3M9ImNscy0yIiBkPSJNMjQuNSwyMC43NWEyLjUsMi41LDAsMSwxLDIuNS0yLjVBMi41LDIuNSwwLDAsMSwyNC41LDIwLjc1Wm0wLTMuNzVhMS4yNSwxLjI1LDAsMSwwLDEuMjUsMS4yNUExLjI1LDEuMjUsMCwwLDAsMjQuNSwxN1oiLz48cmVjdCBjbGFzcz0iY2xzLTMiIHg9IjE0LjUiIHk9IjE0LjUiIHdpZHRoPSIyMCIgaGVpZ2h0PSIyMCIvPjwvc3ZnPg==;align=center;verticalAlign=top;labelPosition=center;verticalLabelPosition=bottom;spacing=0;spacingLeft=16;spacingRight=16;spacingTop=0;spacingBottom=4;" parent="1" vertex="1">
            <mxGeometry x="470" y="-7184" width="48" height="48" as="geometry" />
          </mxCell>
        </UserObject>
        <UserObject placeholders="1" label="&lt;b style=&#39;font-weight:600&#39;&gt;%Primary-Label%&lt;/b&gt;&lt;br&gt;%Secondary-Text%" Badge-Text="" Icon-Name="edge-node--alt" Primary-Label="Edge Node" Secondary-Text="" id="JBx76pNwKwFv1dZqiRyg-35">
          <mxCell style="shape=image;ibmType=nodel;ibmLayout=collapsed;strokeColor=#1192e8;fillColor=none;html=1;metaEdit=1;whiteSpace=wrap;fontFamily=IBM Plex Sans;fontSize=14;image=data:image/svg+xml,PHN2ZyBpZD0iTGF5ZXJfMSIgZGF0YS1uYW1lPSJMYXllciAxIiB4bWxucz0iaHR0cDovL3d3dy53My5vcmcvMjAwMC9zdmciIHZpZXdCb3g9IjAgMCA0OSA0OSI+PGRlZnM+PHN0eWxlPi5jbHMtMXtmaWxsOiMxMTkyZTg7fS5jbHMtMntmaWxsOiNmZmY7fS5jbHMtM3tmaWxsOm5vbmU7fTwvc3R5bGU+PC9kZWZzPjxyZWN0IGNsYXNzPSJjbHMtMSIgeD0iMC41IiB5PSIwLjUiIHdpZHRoPSI0OCIgaGVpZ2h0PSI0OCIgcng9IjgiLz48Y2lyY2xlIGNsYXNzPSJjbHMtMiIgY3g9IjE4Ljg4IiBjeT0iMTkuNSIgcj0iMC42MyIvPjxjaXJjbGUgY2xhc3M9ImNscy0yIiBjeD0iMTguODgiIGN5PSIyNC41IiByPSIwLjYzIi8+PGNpcmNsZSBjbGFzcz0iY2xzLTIiIGN4PSIxOC44OCIgY3k9IjI5LjUiIHI9IjAuNjMiLz48cGF0aCBjbGFzcz0iY2xzLTIiIGQ9Ik0yOC4yNSwyMi42MnYtNUExLjI1LDEuMjUsMCwwLDAsMjcsMTYuMzhIMTdhMS4yNSwxLjI1LDAsMCwwLTEuMjUsMS4yNFYzMS4zOEExLjI1LDEuMjUsMCwwLDAsMTcsMzIuNjJIMjdWMzEuMzhIMTdWMjcuNjJoNVYyNi4zOEgxN1YyMi42MlpNMTcsMTcuNjJIMjd2My43NkgxN1oiLz48cmVjdCBjbGFzcz0iY2xzLTMiIHg9IjE0LjUiIHk9IjE0LjUiIHdpZHRoPSIyMCIgaGVpZ2h0PSIyMCIvPjxwYXRoIGNsYXNzPSJjbHMtMiIgZD0iTTMxLjM4LDI4LjI1YTEuODksMS44OSwwLDAsMC0xLjI4LjUxbC0yLjUtMS41YTEuNywxLjcsMCwwLDAsMC0uNTJsMi41LTEuNWExLjg3LDEuODcsMCwxLDAtLjYtMS4zNiwxLjA3LDEuMDcsMCwwLDAsMCwuMjVMMjcsMjUuNjNhMS44NiwxLjg2LDAsMCwwLTEuMjctLjUxLDEuODgsMS44OCwwLDAsMCwwLDMuNzZBMS44NiwxLjg2LDAsMCwwLDI3LDI4LjM3bDIuNTEsMS41YTEuMDcsMS4wNywwLDAsMCwwLC4yNSwxLjg4LDEuODgsMCwxLDAsMS44OC0xLjg3Wm0wLTVhLjYzLjYzLDAsMSwxLS42My42M0EuNjMuNjMsMCwwLDEsMzEuMzgsMjMuMjVabS01LjYzLDQuMzdhLjYyLjYyLDAsMSwxLC42My0uNjJBLjYzLjYzLDAsMCwxLDI1Ljc1LDI3LjYyWm01LjYzLDMuMTNhLjYzLjYzLDAsMSwxLC42Mi0uNjNBLjYzLjYzLDAsMCwxLDMxLjM4LDMwLjc1WiIvPjwvc3ZnPg==;align=center;verticalAlign=top;labelPosition=center;verticalLabelPosition=bottom;spacing=0;spacingLeft=16;spacingRight=16;spacingTop=0;spacingBottom=4;" parent="1" vertex="1">
            <mxGeometry x="629" y="-7184" width="48" height="48" as="geometry" />
          </mxCell>
        </UserObject>
        <UserObject placeholders="1" label="&lt;b style=&#39;font-weight:600&#39;&gt;%Primary-Label%&lt;/b&gt;&lt;br&gt;%Secondary-Text%" Badge-Text="" Icon-Name="gateway--public" Primary-Label="Public Gateway" Secondary-Text="" id="JBx76pNwKwFv1dZqiRyg-36">
          <mxCell style="shape=image;ibmType=nodep;ibmLayout=collapsed;strokeColor=#1192e8;fillColor=none;html=1;metaEdit=1;whiteSpace=wrap;fontFamily=IBM Plex Sans;fontSize=14;image=data:image/svg+xml,PHN2ZyBpZD0iTGF5ZXJfMSIgZGF0YS1uYW1lPSJMYXllciAxIiB4bWxucz0iaHR0cDovL3d3dy53My5vcmcvMjAwMC9zdmciIHZpZXdCb3g9IjAgMCA0OSA0OSI+PGRlZnM+PHN0eWxlPi5jbHMtMXtmaWxsOiMxMTkyZTg7fS5jbHMtMntmaWxsOiNmZmY7fS5jbHMtM3tmaWxsOm5vbmU7fTwvc3R5bGU+PC9kZWZzPjxyZWN0IGNsYXNzPSJjbHMtMSIgeD0iMC41IiB5PSIwLjUiIHdpZHRoPSI0OCIgaGVpZ2h0PSI0OCIgcng9IjgiLz48cGF0aCBjbGFzcz0iY2xzLTIiIGQ9Ik0zMy41MSwyNS4zOGExLjIzLDEuMjMsMCwwLDAsMC0xLjc2TDI5Ljg5LDIwbDEuODEtMS43OWExLjI1LDEuMjUsMCwxLDAtLjU4LTIuMDksMS4yMiwxLjIyLDAsMCwwLS4zMiwxLjIyTDI5LDE5LjEybC0zLjYzLTMuNjNhMS4yMywxLjIzLDAsMCwwLTEuNzYsMEwyMCwxOS4xMWwtMS43OS0xLjgyYTEuMjQsMS4yNCwwLDEsMC0yLjA5LjU5LDEuMjIsMS4yMiwwLDAsMCwxLjIyLjMyTDE5LjEyLDIwbC0zLjYzLDMuNjNhMS4yMywxLjIzLDAsMCwwLDAsMS43NkwxOS4xMiwyOSwxNy4zNCwzMC44YTEuMjIsMS4yMiwwLDAsMC0xLjIyLjMyLDEuMjQsMS4yNCwwLDEsMCwyLjA5LjU5TDIwLDI5Ljg5bDMuNjIsMy42MmExLjIzLDEuMjMsMCwwLDAsMS43NiwwTDI5LDI5Ljg4bDEuNzksMS43OGExLjIyLDEuMjIsMCwwLDAsLjMyLDEuMjIsMS4yNCwxLjI0LDAsMSwwLC41OC0yLjA5TDI5Ljg5LDI5Wm0tOSw3LjI0TDE2LjM4LDI0LjVsOC4xMi04LjEyLDguMTIsOC4xMloiLz48cmVjdCBjbGFzcz0iY2xzLTMiIHg9IjE0LjUiIHk9IjE0LjUiIHdpZHRoPSIyMCIgaGVpZ2h0PSIyMCIvPjxwYXRoIGNsYXNzPSJjbHMtMiIgZD0iTTI2LjM4LDIzLjI1SDIzLjI1VjIyYTEuMjUsMS4yNSwwLDAsMSwyLjUsMEgyN2EyLjUsMi41LDAsMCwwLTUsMHYxLjQyYTEuMjYsMS4yNiwwLDAsMC0uNjIsMS4wOHYzLjEyYTEuMjYsMS4yNiwwLDAsMCwxLjI0LDEuMjZoMy43NmExLjI2LDEuMjYsMCwwLDAsMS4yNC0xLjI2VjI0LjVBMS4yNSwxLjI1LDAsMCwwLDI2LjM4LDIzLjI1Wm0wLDQuMzdIMjIuNjJWMjQuNWgzLjc2WiIvPjwvc3ZnPg==;align=center;verticalAlign=top;labelPosition=center;verticalLabelPosition=bottom;spacing=0;spacingLeft=16;spacingRight=16;spacingTop=0;spacingBottom=4;" parent="1" vertex="1">
            <mxGeometry x="550" y="-7184" width="48" height="48" as="geometry" />
          </mxCell>
        </UserObject>
        <UserObject placeholders="1" label="&lt;b style=&#39;font-weight:600&#39;&gt;%Primary-Label%&lt;/b&gt;&lt;br&gt;%Secondary-Text%" Badge-Text="" Icon-Name="dns-services" Primary-Label="DNS Service" Secondary-Text="" id="JBx76pNwKwFv1dZqiRyg-37">
          <mxCell style="shape=image;ibmType=nodel;ibmLayout=collapsed;strokeColor=#1192e8;fillColor=none;html=1;metaEdit=1;whiteSpace=wrap;fontFamily=IBM Plex Sans;fontSize=14;image=data:image/svg+xml,PHN2ZyBpZD0iTGF5ZXJfMSIgZGF0YS1uYW1lPSJMYXllciAxIiB4bWxucz0iaHR0cDovL3d3dy53My5vcmcvMjAwMC9zdmciIHZpZXdCb3g9IjAgMCA0OSA0OSI+PGRlZnM+PHN0eWxlPi5jbHMtMXtmaWxsOiMxMTkyZTg7fS5jbHMtMntmaWxsOiNmZmY7fS5jbHMtM3tmaWxsOm5vbmU7fTwvc3R5bGU+PC9kZWZzPjxyZWN0IGNsYXNzPSJjbHMtMSIgeD0iMC41IiB5PSIwLjUiIHdpZHRoPSI0OCIgaGVpZ2h0PSI0OCIgcng9IjgiLz48cGF0aCBjbGFzcz0iY2xzLTIiIGQ9Ik0zMy4yNSwyNS4xMlYyNC41YTguNzUsOC43NSwwLDEsMC04Ljc1LDguNzUsOS4xMyw5LjEzLDAsMCwwLDItLjIzbC0uMjktMS4yMmE3LjY1LDcuNjUsMCwwLDEtMS43My4ybC0uMzUsMEExMi41OSwxMi41OSwwLDAsMSwyMiwyNS4xMlpNMzIsMjMuODhIMjguMjNhMTUuMDYsMTUuMDYsMCwwLDAtMS43My02LjZBNy41LDcuNSwwLDAsMSwzMiwyMy44OFpNMjQuODUsMTdBMTIuNTksMTIuNTksMCwwLDEsMjcsMjMuODhIMjJBMTIuNTksMTIuNTksMCwwLDEsMjQuMTUsMTdsLjM1LDBabS0yLjM1LjI2YTE1LjA2LDE1LjA2LDAsMCwwLTEuNzMsNi42SDE3QTcuNSw3LjUsMCwwLDEsMjIuNSwxNy4yOFptMCwxNC40NEE3LjUsNy41LDAsMCwxLDE3LDI1LjEyaDMuNzRBMTUuMDYsMTUuMDYsMCwwLDAsMjIuNSwzMS43MloiLz48cmVjdCBjbGFzcz0iY2xzLTIiIHg9IjI3IiB5PSIyNyIgd2lkdGg9IjYuMjUiIGhlaWdodD0iMS4yNSIvPjxyZWN0IGNsYXNzPSJjbHMtMiIgeD0iMjciIHk9IjI5LjUiIHdpZHRoPSIzLjc1IiBoZWlnaHQ9IjEuMjUiLz48cmVjdCBjbGFzcz0iY2xzLTMiIHg9IjE0LjUiIHk9IjE0LjUiIHdpZHRoPSIyMCIgaGVpZ2h0PSIyMCIvPjwvc3ZnPg==;align=center;verticalAlign=top;labelPosition=center;verticalLabelPosition=bottom;spacing=0;spacingLeft=16;spacingRight=16;spacingTop=0;spacingBottom=4;" parent="1" vertex="1">
            <mxGeometry x="231" y="-7061" width="48" height="48" as="geometry" />
          </mxCell>
        </UserObject>
        <UserObject placeholders="1" label="&lt;b style=&#39;font-weight:600&#39;&gt;%Primary-Label%&lt;/b&gt;&lt;br&gt;%Secondary-Text%" Badge-Text="" Icon-Name="router" Primary-Label="Router" Secondary-Text="" id="JBx76pNwKwFv1dZqiRyg-38">
          <mxCell style="shape=image;ibmType=nodel;ibmLayout=collapsed;strokeColor=#1192e8;fillColor=none;html=1;metaEdit=1;whiteSpace=wrap;fontFamily=IBM Plex Sans;fontSize=14;image=data:image/svg+xml,PHN2ZyBpZD0iTGF5ZXJfMSIgZGF0YS1uYW1lPSJMYXllciAxIiB4bWxucz0iaHR0cDovL3d3dy53My5vcmcvMjAwMC9zdmciIHZpZXdCb3g9IjAgMCA0OSA0OSI+PGRlZnM+PHN0eWxlPi5jbHMtMXtmaWxsOiMxMTkyZTg7fS5jbHMtMntmaWxsOiNmZmY7fS5jbHMtM3tmaWxsOm5vbmU7fTwvc3R5bGU+PC9kZWZzPjxyZWN0IGNsYXNzPSJjbHMtMSIgeD0iMC41IiB5PSIwLjUiIHdpZHRoPSI0OCIgaGVpZ2h0PSI0OCIgcng9IjgiLz48cG9seWdvbiBjbGFzcz0iY2xzLTIiIHBvaW50cz0iMjcuNjMgMTguODggMjQuNSAxNS43NSAyMS4zOCAxOC44OCAyMi4yNiAxOS43NiAyMy44OCAxOC4xNSAyMy44OCAyMi42MyAyNS4xMyAyMi42MyAyNS4xMyAxOC4xMiAyNi43NCAxOS43NiAyNy42MyAxOC44OCIvPjxwb2x5Z29uIGNsYXNzPSJjbHMtMiIgcG9pbnRzPSIyNy42MyAzMC4xMyAyNC41IDMzLjI1IDIxLjM4IDMwLjEzIDIyLjI2IDI5LjI0IDIzLjg4IDMwLjg1IDIzLjg4IDI2LjM4IDI1LjEzIDI2LjM4IDI1LjEzIDMwLjg4IDI2Ljc0IDI5LjI0IDI3LjYzIDMwLjEzIi8+PHBvbHlnb24gY2xhc3M9ImNscy0yIiBwb2ludHM9IjI5LjUgMjEuMzggMjYuMzggMjQuNSAyOS41IDI3LjYzIDMwLjM5IDI2Ljc0IDI4Ljc4IDI1LjEzIDMzLjI1IDI1LjEzIDMzLjI1IDIzLjg4IDI4Ljc1IDIzLjg4IDMwLjM5IDIyLjI2IDI5LjUgMjEuMzgiLz48cG9seWdvbiBjbGFzcz0iY2xzLTIiIHBvaW50cz0iMTkuNSAyMS4zOCAyMi42MyAyNC41IDE5LjUgMjcuNjMgMTguNjEgMjYuNzQgMjAuMjIgMjUuMTMgMTUuNzUgMjUuMTMgMTUuNzUgMjMuODggMjAuMjUgMjMuODggMTguNjEgMjIuMjYgMTkuNSAyMS4zOCIvPjxyZWN0IGNsYXNzPSJjbHMtMyIgeD0iMTQuNSIgeT0iMTQuNSIgd2lkdGg9IjIwIiBoZWlnaHQ9IjIwIi8+PC9zdmc+;align=center;verticalAlign=top;labelPosition=center;verticalLabelPosition=bottom;spacing=0;spacingLeft=16;spacingRight=16;spacingTop=0;spacingBottom=4;" parent="1" vertex="1">
            <mxGeometry x="311" y="-7061" width="48" height="48" as="geometry" />
          </mxCell>
        </UserObject>
        <UserObject placeholders="1" label="&lt;b style=&#39;font-weight:600&#39;&gt;%Primary-Label%&lt;/b&gt;&lt;br&gt;%Secondary-Text%" Badge-Text="" Icon-Name="router" Primary-Label="Backend Router" Secondary-Text="" id="JBx76pNwKwFv1dZqiRyg-39">
          <mxCell style="shape=image;ibmType=nodel;ibmLayout=collapsed;strokeColor=#878d96;fillColor=none;html=1;metaEdit=1;whiteSpace=wrap;fontFamily=IBM Plex Sans;fontSize=14;image=data:image/svg+xml,PHN2ZyBpZD0iTGF5ZXJfMSIgZGF0YS1uYW1lPSJMYXllciAxIiB4bWxucz0iaHR0cDovL3d3dy53My5vcmcvMjAwMC9zdmciIHZpZXdCb3g9IjAgMCA0OSA0OSI+PGRlZnM+PHN0eWxlPi5jbHMtMXtmaWxsOiM4NzhkOTY7fS5jbHMtMntmaWxsOiNmZmY7fS5jbHMtM3tmaWxsOm5vbmU7fTwvc3R5bGU+PC9kZWZzPjxyZWN0IGNsYXNzPSJjbHMtMSIgeD0iMC41IiB5PSIwLjUiIHdpZHRoPSI0OCIgaGVpZ2h0PSI0OCIgcng9IjgiLz48cG9seWdvbiBjbGFzcz0iY2xzLTIiIHBvaW50cz0iMjcuNjMgMTguODggMjQuNSAxNS43NSAyMS4zOCAxOC44OCAyMi4yNiAxOS43NiAyMy44OCAxOC4xNSAyMy44OCAyMi42MyAyNS4xMyAyMi42MyAyNS4xMyAxOC4xMiAyNi43NCAxOS43NiAyNy42MyAxOC44OCIvPjxwb2x5Z29uIGNsYXNzPSJjbHMtMiIgcG9pbnRzPSIyNy42MyAzMC4xMyAyNC41IDMzLjI1IDIxLjM4IDMwLjEzIDIyLjI2IDI5LjI0IDIzLjg4IDMwLjg1IDIzLjg4IDI2LjM4IDI1LjEzIDI2LjM4IDI1LjEzIDMwLjg4IDI2Ljc0IDI5LjI0IDI3LjYzIDMwLjEzIi8+PHBvbHlnb24gY2xhc3M9ImNscy0yIiBwb2ludHM9IjI5LjUgMjEuMzggMjYuMzggMjQuNSAyOS41IDI3LjYzIDMwLjM5IDI2Ljc0IDI4Ljc4IDI1LjEzIDMzLjI1IDI1LjEzIDMzLjI1IDIzLjg4IDI4Ljc1IDIzLjg4IDMwLjM5IDIyLjI2IDI5LjUgMjEuMzgiLz48cG9seWdvbiBjbGFzcz0iY2xzLTIiIHBvaW50cz0iMTkuNSAyMS4zOCAyMi42MyAyNC41IDE5LjUgMjcuNjMgMTguNjEgMjYuNzQgMjAuMjIgMjUuMTMgMTUuNzUgMjUuMTMgMTUuNzUgMjMuODggMjAuMjUgMjMuODggMTguNjEgMjIuMjYgMTkuNSAyMS4zOCIvPjxyZWN0IGNsYXNzPSJjbHMtMyIgeD0iMTQuNSIgeT0iMTQuNSIgd2lkdGg9IjIwIiBoZWlnaHQ9IjIwIi8+PC9zdmc+;align=center;verticalAlign=top;labelPosition=center;verticalLabelPosition=bottom;spacing=0;spacingLeft=16;spacingRight=16;spacingTop=0;spacingBottom=4;" parent="1" vertex="1">
            <mxGeometry x="390" y="-7062" width="48" height="48" as="geometry" />
          </mxCell>
        </UserObject>
        <UserObject placeholders="1" label="&lt;b style=&#39;font-weight:600&#39;&gt;%Primary-Label%&lt;/b&gt;&lt;br&gt;%Secondary-Text%" Badge-Text="" Icon-Name="switch-layer-2" Primary-Label="L2 Switch" Secondary-Text="" id="JBx76pNwKwFv1dZqiRyg-40">
          <mxCell style="shape=image;ibmType=nodel;ibmLayout=collapsed;strokeColor=#1192e8;fillColor=none;html=1;metaEdit=1;whiteSpace=wrap;fontFamily=IBM Plex Sans;fontSize=14;image=data:image/svg+xml,PHN2ZyBpZD0iTGF5ZXJfMSIgZGF0YS1uYW1lPSJMYXllciAxIiB4bWxucz0iaHR0cDovL3d3dy53My5vcmcvMjAwMC9zdmciIHZpZXdCb3g9IjAgMCA0OSA0OSI+PGRlZnM+PHN0eWxlPi5jbHMtMXtmaWxsOiMxMTkyZTg7fS5jbHMtMntmaWxsOiNmZmY7fS5jbHMtM3tmaWxsOm5vbmU7fTwvc3R5bGU+PC9kZWZzPjxyZWN0IGNsYXNzPSJjbHMtMSIgeD0iMC41IiB5PSIwLjUiIHdpZHRoPSI0OCIgaGVpZ2h0PSI0OCIgcng9IjgiLz48cG9seWdvbiBjbGFzcz0iY2xzLTIiIHBvaW50cz0iMjQuNSAzMC43NSAyNC41IDI5LjUgMTguMTQgMjkuNSAxOS43NiAyNy44OCAxOC44OCAyNyAxNS43NSAzMC4xMyAxOC44OCAzMy4yNSAxOS43NiAzMi4zNyAxOC4xNCAzMC43NSAyNC41IDMwLjc1Ii8+PHBvbHlnb24gY2xhc3M9ImNscy0yIiBwb2ludHM9IjI0LjUgMjMuMjUgMjQuNSAyMiAxOC4xNCAyMiAxOS43NiAyMC4zOCAxOC44OCAxOS41IDE1Ljc1IDIyLjYzIDE4Ljg4IDI1Ljc1IDE5Ljc2IDI0Ljg3IDE4LjE0IDIzLjI1IDI0LjUgMjMuMjUiLz48cG9seWdvbiBjbGFzcz0iY2xzLTIiIHBvaW50cz0iMjQuNSAxOC4yNSAyNC41IDE5LjUgMzAuODYgMTkuNSAyOS4yNCAyMS4xMiAzMC4xMyAyMiAzMy4yNSAxOC44OCAzMC4xMyAxNS43NSAyOS4yNCAxNi42MyAzMC44NiAxOC4yNSAyNC41IDE4LjI1Ii8+PHBvbHlnb24gY2xhc3M9ImNscy0yIiBwb2ludHM9IjI0LjUgMjUuNzUgMjQuNSAyNyAzMC44NiAyNyAyOS4yNCAyOC42MiAzMC4xMyAyOS41IDMzLjI1IDI2LjM4IDMwLjEzIDIzLjI1IDI5LjI0IDI0LjEzIDMwLjg2IDI1Ljc1IDI0LjUgMjUuNzUiLz48cmVjdCBjbGFzcz0iY2xzLTMiIHg9IjE0LjUiIHk9IjE0LjUiIHdpZHRoPSIyMCIgaGVpZ2h0PSIyMCIvPjwvc3ZnPg==;align=center;verticalAlign=top;labelPosition=center;verticalLabelPosition=bottom;spacing=0;spacingLeft=16;spacingRight=16;spacingTop=0;spacingBottom=4;" parent="1" vertex="1">
            <mxGeometry x="470" y="-7061" width="48" height="48" as="geometry" />
          </mxCell>
        </UserObject>
        <UserObject placeholders="1" label="&lt;b style=&#39;font-weight:600&#39;&gt;%Primary-Label%&lt;/b&gt;&lt;br&gt;%Secondary-Text%" Badge-Text="" Icon-Name="switch-layer-2" Primary-Label="Backend L2 Switch" Secondary-Text="" id="JBx76pNwKwFv1dZqiRyg-41">
          <mxCell style="shape=image;ibmType=nodel;ibmLayout=collapsed;strokeColor=#878d96;fillColor=none;html=1;metaEdit=1;whiteSpace=wrap;fontFamily=IBM Plex Sans;fontSize=14;image=data:image/svg+xml,PHN2ZyBpZD0iTGF5ZXJfMSIgZGF0YS1uYW1lPSJMYXllciAxIiB4bWxucz0iaHR0cDovL3d3dy53My5vcmcvMjAwMC9zdmciIHZpZXdCb3g9IjAgMCA0OSA0OSI+PGRlZnM+PHN0eWxlPi5jbHMtMXtmaWxsOiM4NzhkOTY7fS5jbHMtMntmaWxsOiNmZmY7fS5jbHMtM3tmaWxsOm5vbmU7fTwvc3R5bGU+PC9kZWZzPjxyZWN0IGNsYXNzPSJjbHMtMSIgeD0iMC41IiB5PSIwLjUiIHdpZHRoPSI0OCIgaGVpZ2h0PSI0OCIgcng9IjgiLz48cG9seWdvbiBjbGFzcz0iY2xzLTIiIHBvaW50cz0iMjQuNSAzMC43NSAyNC41IDI5LjUgMTguMTQgMjkuNSAxOS43NiAyNy44OCAxOC44OCAyNyAxNS43NSAzMC4xMyAxOC44OCAzMy4yNSAxOS43NiAzMi4zNyAxOC4xNCAzMC43NSAyNC41IDMwLjc1Ii8+PHBvbHlnb24gY2xhc3M9ImNscy0yIiBwb2ludHM9IjI0LjUgMjMuMjUgMjQuNSAyMiAxOC4xNCAyMiAxOS43NiAyMC4zOCAxOC44OCAxOS41IDE1Ljc1IDIyLjYzIDE4Ljg4IDI1Ljc1IDE5Ljc2IDI0Ljg3IDE4LjE0IDIzLjI1IDI0LjUgMjMuMjUiLz48cG9seWdvbiBjbGFzcz0iY2xzLTIiIHBvaW50cz0iMjQuNSAxOC4yNSAyNC41IDE5LjUgMzAuODYgMTkuNSAyOS4yNCAyMS4xMiAzMC4xMyAyMiAzMy4yNSAxOC44OCAzMC4xMyAxNS43NSAyOS4yNCAxNi42MyAzMC44NiAxOC4yNSAyNC41IDE4LjI1Ii8+PHBvbHlnb24gY2xhc3M9ImNscy0yIiBwb2ludHM9IjI0LjUgMjUuNzUgMjQuNSAyNyAzMC44NiAyNyAyOS4yNCAyOC42MiAzMC4xMyAyOS41IDMzLjI1IDI2LjM4IDMwLjEzIDIzLjI1IDI5LjI0IDI0LjEzIDMwLjg2IDI1Ljc1IDI0LjUgMjUuNzUiLz48cmVjdCBjbGFzcz0iY2xzLTMiIHg9IjE0LjUiIHk9IjE0LjUiIHdpZHRoPSIyMCIgaGVpZ2h0PSIyMCIvPjwvc3ZnPg==;align=center;verticalAlign=top;labelPosition=center;verticalLabelPosition=bottom;spacing=0;spacingLeft=16;spacingRight=16;spacingTop=0;spacingBottom=4;" parent="1" vertex="1">
            <mxGeometry x="550" y="-7063" width="48" height="48" as="geometry" />
          </mxCell>
        </UserObject>
        <UserObject placeholders="1" label="&lt;b style=&#39;font-weight:600&#39;&gt;%Primary-Label%&lt;/b&gt;&lt;br&gt;%Secondary-Text%" Badge-Text="" Icon-Name="firewall" Primary-Label="Firewall" Secondary-Text="" id="JBx76pNwKwFv1dZqiRyg-42">
          <mxCell style="shape=image;ibmType=nodel;ibmLayout=collapsed;strokeColor=#fa4d56;fillColor=none;html=1;metaEdit=1;whiteSpace=wrap;fontFamily=IBM Plex Sans;fontSize=14;image=data:image/svg+xml,PHN2ZyBpZD0iTGF5ZXJfMSIgZGF0YS1uYW1lPSJMYXllciAxIiB4bWxucz0iaHR0cDovL3d3dy53My5vcmcvMjAwMC9zdmciIHZpZXdCb3g9IjAgMCA0OSA0OSI+PGRlZnM+PHN0eWxlPi5jbHMtMXtmaWxsOiNmYTRkNTY7fS5jbHMtMntmaWxsOm5vbmU7fS5jbHMtM3tmaWxsOiNmZmY7fTwvc3R5bGU+PC9kZWZzPjxyZWN0IGNsYXNzPSJjbHMtMSIgeD0iMC41IiB5PSIwLjUiIHdpZHRoPSI0OCIgaGVpZ2h0PSI0OCIgcng9IjgiLz48cmVjdCBjbGFzcz0iY2xzLTIiIHg9IjE0LjUiIHk9IjE0LjUiIHdpZHRoPSIyMCIgaGVpZ2h0PSIyMCIvPjxwYXRoIGNsYXNzPSJjbHMtMyIgZD0iTTMwLjEyLDIwLjc1SDE3YTEuMjUsMS4yNSwwLDAsMS0xLjI1LTEuMjVWMTdBMS4yNSwxLjI1LDAsMCwxLDE3LDE1Ljc1SDMwLjEyQTEuMjYsMS4yNiwwLDAsMSwzMS4zOCwxN3YyLjVBMS4yNiwxLjI2LDAsMCwxLDMwLjEyLDIwLjc1Wk0xNywxN3YyLjVIMzAuMTJWMTdaIi8+PHBhdGggY2xhc3M9ImNscy0zIiBkPSJNMjUuMTIsMzJIMTdWMjkuNWg4LjEyVjI4LjI1SDE3YTEuMjUsMS4yNSwwLDAsMC0xLjI1LDEuMjVWMzJBMS4yNSwxLjI1LDAsMCwwLDE3LDMzLjI1aDguMTJaIi8+PHBhdGggY2xhc3M9ImNscy0zIiBkPSJNMzIsMjJIMTguODhhMS4yNiwxLjI2LDAsMCwwLTEuMjYsMS4yNXYyLjVBMS4yNiwxLjI2LDAsMCwwLDE4Ljg4LDI3aDYuMjRWMjUuNzVIMTguODh2LTIuNUgzMlYyNC41aDEuMjVWMjMuMjVBMS4yNSwxLjI1LDAsMCwwLDMyLDIyWiIvPjxwYXRoIGNsYXNzPSJjbHMtMyIgZD0iTTMxLjM4LDI3LjI1djEuODdjLS42MywwLTEuMjUtLjkzLTEuMjUtMi41VjI0Ljc1QzI3LjYzLDI3Ljg3LDI3LDI5LjEyLDI3LDMwLjM3YTMuMTIsMy4xMiwwLDAsMCwxLjksMi44OEE0LjczLDQuNzMsMCwwLDEsMzAuMTMsMzFhNC43NSw0Ljc1LDAsMCwxLDEuMjIsMi4yNSwzLjEyLDMuMTIsMCwwLDAsMS45LTIuODhBMy45MiwzLjkyLDAsMCwwLDMxLjM4LDI3LjI1WiIvPjwvc3ZnPg==;align=center;verticalAlign=top;labelPosition=center;verticalLabelPosition=bottom;spacing=0;spacingLeft=16;spacingRight=16;spacingTop=0;spacingBottom=4;" parent="1" vertex="1">
            <mxGeometry x="231" y="-6942" width="48" height="48" as="geometry" />
          </mxCell>
        </UserObject>
        <UserObject placeholders="1" label="&lt;b style=&#39;font-weight:600&#39;&gt;%Primary-Label%&lt;/b&gt;&lt;br&gt;%Secondary-Text%" Badge-Text="" Icon-Name="locked" Primary-Label="Network ACL" Secondary-Text="" id="JBx76pNwKwFv1dZqiRyg-43">
          <mxCell style="shape=image;ibmType=nodel;ibmLayout=collapsed;strokeColor=#fa4d56;fillColor=none;html=1;metaEdit=1;whiteSpace=wrap;fontFamily=IBM Plex Sans;fontSize=14;image=data:image/svg+xml,PHN2ZyBpZD0iTGF5ZXJfMSIgZGF0YS1uYW1lPSJMYXllciAxIiB4bWxucz0iaHR0cDovL3d3dy53My5vcmcvMjAwMC9zdmciIHZpZXdCb3g9IjAgMCA0OSA0OSI+PGRlZnM+PHN0eWxlPi5jbHMtMXtmaWxsOiNmYTRkNTY7fS5jbHMtMntmaWxsOm5vbmU7fS5jbHMtM3tmaWxsOiNmZmY7ZmlsbC1ydWxlOmV2ZW5vZGQ7fTwvc3R5bGU+PC9kZWZzPjxyZWN0IGNsYXNzPSJjbHMtMSIgeD0iMC41IiB5PSIwLjUiIHdpZHRoPSI0OCIgaGVpZ2h0PSI0OCIgcng9IjgiLz48cmVjdCBjbGFzcz0iY2xzLTIiIHg9IjE0LjUiIHk9IjE0LjUiIHdpZHRoPSIyMCIgaGVpZ2h0PSIyMCIvPjxwYXRoIGlkPSJOZXR3b3JrLUFDTCIgY2xhc3M9ImNscy0zIiBkPSJNMTkuMzgsMzIuMTlIMjkuNjJWMjQuNUgxOS4zOFptMi41Ni0xMi44MUEyLjU2LDIuNTYsMCwwLDEsMjUsMTYuODdhMi42MSwyLjYxLDAsMCwxLDIsMi42djMuNzVIMjEuOTRabTcuNjgsMy44NEgyOC4zNHYtMy43YTQsNCwwLDAsMC0zLjM2LTQsMy44NSwzLjg1LDAsMCwwLTQuMzIsMy44MnYzLjg0SDE5LjM4QTEuMjgsMS4yOCwwLDAsMCwxOC4xLDI0LjV2Ny42OWExLjI4LDEuMjgsMCwwLDAsMS4yOCwxLjI4SDI5LjYyYTEuMjgsMS4yOCwwLDAsMCwxLjI4LTEuMjhWMjQuNWExLjI4LDEuMjgsMCwwLDAtMS4yOC0xLjI4WiIvPjwvc3ZnPg==;align=center;verticalAlign=top;labelPosition=center;verticalLabelPosition=bottom;spacing=0;spacingLeft=16;spacingRight=16;spacingTop=0;spacingBottom=4;" parent="1" vertex="1">
            <mxGeometry x="311" y="-6942" width="48" height="48" as="geometry" />
          </mxCell>
        </UserObject>
        <UserObject placeholders="1" label="&lt;b style=&#39;font-weight:600&#39;&gt;%Primary-Label%&lt;/b&gt;&lt;br&gt;%Secondary-Text%" Badge-Text="" Icon-Name="subnet-acl-rules" Primary-Label="Network ACL Rules" Secondary-Text="" id="JBx76pNwKwFv1dZqiRyg-44">
          <mxCell style="shape=image;ibmType=nodel;ibmLayout=collapsed;strokeColor=#fa4d56;fillColor=none;html=1;metaEdit=1;whiteSpace=wrap;fontFamily=IBM Plex Sans;fontSize=14;image=data:image/svg+xml,PHN2ZyBpZD0iTGF5ZXJfMSIgZGF0YS1uYW1lPSJMYXllciAxIiB4bWxucz0iaHR0cDovL3d3dy53My5vcmcvMjAwMC9zdmciIHZpZXdCb3g9IjAgMCA0OSA0OSI+PGRlZnM+PHN0eWxlPi5jbHMtMXtmaWxsOiNmYTRkNTY7fS5jbHMtMntmaWxsOiNmZmY7fS5jbHMtM3tmaWxsOm5vbmU7fTwvc3R5bGU+PC9kZWZzPjxyZWN0IGNsYXNzPSJjbHMtMSIgeD0iMC41IiB5PSIwLjUiIHdpZHRoPSI0OCIgaGVpZ2h0PSI0OCIgcng9IjgiLz48cmVjdCBjbGFzcz0iY2xzLTIiIHg9IjI1Ljc1IiB5PSIyMy4yNSIgd2lkdGg9IjcuNSIgaGVpZ2h0PSIxLjI1Ii8+PHJlY3QgY2xhc3M9ImNscy0yIiB4PSIyNS43NSIgeT0iMjYuMzgiIHdpZHRoPSI1IiBoZWlnaHQ9IjEuMjUiLz48cmVjdCBjbGFzcz0iY2xzLTIiIHg9IjI1Ljc1IiB5PSIyMC4xMyIgd2lkdGg9IjcuNSIgaGVpZ2h0PSIxLjI1Ii8+PHBhdGggY2xhc3M9ImNscy0yIiBkPSJNMjguMjUsMjkuNVYzMmgtMTBWMjQuNWg1VjIzLjI1aC0yLjVWMTkuNWEyLjUsMi41LDAsMCwxLDQuNzktMWwxLjE1LS41YTMuNzUsMy43NSwwLDAsMC03LjE5LDEuNXYzLjc1SDE4LjI1QTEuMjUsMS4yNSwwLDAsMCwxNywyNC41VjMyYTEuMjUsMS4yNSwwLDAsMCwxLjI1LDEuMjVoMTBBMS4yNSwxLjI1LDAsMCwwLDI5LjUsMzJWMjkuNVoiLz48cmVjdCBjbGFzcz0iY2xzLTMiIHg9IjE0LjUiIHk9IjE0LjUiIHdpZHRoPSIyMCIgaGVpZ2h0PSIyMCIvPjwvc3ZnPg==;align=center;verticalAlign=top;labelPosition=center;verticalLabelPosition=bottom;spacing=0;spacingLeft=16;spacingRight=16;spacingTop=0;spacingBottom=4;" parent="1" vertex="1">
            <mxGeometry x="390" y="-6942" width="48" height="48" as="geometry" />
          </mxCell>
        </UserObject>
        <UserObject placeholders="1" label="&lt;b style=&#39;font-weight:600&#39;&gt;%Primary-Label%&lt;/b&gt;&lt;br&gt;%Secondary-Text%" Badge-Text="" Icon-Name="bastion-host" Primary-Label="Bastion Host" Secondary-Text="" id="JBx76pNwKwFv1dZqiRyg-45">
          <mxCell style="shape=image;ibmType=nodel;ibmLayout=collapsed;strokeColor=#fa4d56;fillColor=none;html=1;metaEdit=1;whiteSpace=wrap;fontFamily=IBM Plex Sans;fontSize=14;image=data:image/svg+xml,PHN2ZyBpZD0iTGF5ZXJfMSIgZGF0YS1uYW1lPSJMYXllciAxIiB4bWxucz0iaHR0cDovL3d3dy53My5vcmcvMjAwMC9zdmciIHZpZXdCb3g9IjAgMCA0OSA0OSI+PGRlZnM+PHN0eWxlPi5jbHMtMXtmaWxsOiNmYTRkNTY7fS5jbHMtMntmaWxsOm5vbmU7fS5jbHMtM3tmaWxsOiNmZmY7fTwvc3R5bGU+PC9kZWZzPjxyZWN0IGNsYXNzPSJjbHMtMSIgeD0iMC41IiB5PSIwLjUiIHdpZHRoPSI0OCIgaGVpZ2h0PSI0OCIgcng9IjgiLz48cmVjdCBjbGFzcz0iY2xzLTIiIHg9IjE0LjUiIHk9IjE0LjUiIHdpZHRoPSIyMCIgaGVpZ2h0PSIyMCIvPjxwYXRoIGNsYXNzPSJjbHMtMyIgZD0iTTMxLjcsMTYuMTlhMS4yMywxLjIzLDAsMCwwLS45NS0uNDRIMjkuMDdhLjkzLjkzLDAsMCwwLS44NC41MmwtLjM3LjczSDI3di0uMzFhLjk0Ljk0LDAsMCwwLS45NC0uOTRIMjIuOTRhLjk0Ljk0LDAsMCwwLS45NC45NFYxN2gtLjg2bC0uMzctLjczYS45My45MywwLDAsMC0uODQtLjUySDE4LjI1YTEuMjMsMS4yMywwLDAsMC0uOTUuNDQsMS4yNSwxLjI1LDAsMCwwLS4yOCwxbC40NCwyLjZhMS44OCwxLjg4LDAsMCwwLDEuODUsMS41N2guMTl2Ny41YTEuODgsMS44OCwwLDAsMC0xLjg4LDEuODd2Mi41SDMxLjM4di0yLjVhMS44OCwxLjg4LDAsMCwwLTEuODgtMS44N3YtNy41aC4xOWExLjg4LDEuODgsMCwwLDAsMS44NS0xLjU3bC40NC0yLjZBMS4yNSwxLjI1LDAsMCwwLDMxLjcsMTYuMTlaTTMwLjEyLDMwLjc1VjMySDE4Ljg4VjMwLjc1YS42My42MywwLDAsMSwuNjItLjYzaDEwQS42My42MywwLDAsMSwzMC4xMiwzMC43NVptLTEuODctMS44N2gtNy41di03LjVoNy41Wm0yLjA2LTkuMjhhLjYyLjYyLDAsMCwxLS42Mi41MkgxOS4zMWEuNjIuNjIsMCwwLDEtLjYyLS41MkwxOC4yNSwxN2gxLjQ5bC42MiwxLjI1aDIuODlWMTdoMi41djEuMjVoMi44OUwyOS4yNiwxN2gxLjQ5WiIvPjwvc3ZnPg==;align=center;verticalAlign=top;labelPosition=center;verticalLabelPosition=bottom;spacing=0;spacingLeft=16;spacingRight=16;spacingTop=0;spacingBottom=4;" parent="1" vertex="1">
            <mxGeometry x="550" y="-6822" width="48" height="48" as="geometry" />
          </mxCell>
        </UserObject>
        <UserObject placeholders="1" label="&lt;b style=&#39;font-weight:600&#39;&gt;%Primary-Label%&lt;/b&gt;&lt;br&gt;%Secondary-Text%" Badge-Text="" Icon-Name="vpn--connection" Primary-Label="VPN Connection" Secondary-Text="" id="JBx76pNwKwFv1dZqiRyg-46">
          <mxCell style="shape=image;ibmType=nodel;ibmLayout=collapsed;strokeColor=#fa4d56;fillColor=none;html=1;metaEdit=1;whiteSpace=wrap;fontFamily=IBM Plex Sans;fontSize=14;image=data:image/svg+xml,PHN2ZyBpZD0iTGF5ZXJfMSIgZGF0YS1uYW1lPSJMYXllciAxIiB4bWxucz0iaHR0cDovL3d3dy53My5vcmcvMjAwMC9zdmciIHZpZXdCb3g9IjAgMCA0OSA0OSI+PGRlZnM+PHN0eWxlPi5jbHMtMXtmaWxsOiNmYTRkNTY7fS5jbHMtMntmaWxsOiNmZmY7fS5jbHMtM3tmaWxsOm5vbmU7fTwvc3R5bGU+PC9kZWZzPjxyZWN0IGNsYXNzPSJjbHMtMSIgeD0iMC41IiB5PSIwLjUiIHdpZHRoPSI0OCIgaGVpZ2h0PSI0OCIgcng9IjgiLz48cGF0aCBjbGFzcz0iY2xzLTIiIGQ9Ik0zMiwxOC44OGExLjI2LDEuMjYsMCwwLDAtMS4wOC42MkgyOC4yNWEzLjc1LDMuNzUsMCwwLDAtNy41LDBIMTguMDhBMS4yNiwxLjI2LDAsMCwwLDE3LDE4Ljg4YTEuMjUsMS4yNSwwLDEsMCwwLDIuNSwxLjI3LDEuMjcsMCwwLDAsMS4wOC0uNjNoMi42N3YyLjVIMTkuNWExLjI1LDEuMjUsMCwwLDAtMS4yNSwxLjI1VjMyYTEuMjUsMS4yNSwwLDAsMCwxLjI1LDEuMjVoMTBBMS4yNSwxLjI1LDAsMCwwLDMwLjc1LDMyVjI0LjVhMS4yNSwxLjI1LDAsMCwwLTEuMjUtMS4yNUgyOC4yNXYtMi41aDIuNjdhMS4yNywxLjI3LDAsMCwwLDEuMDguNjMsMS4yNSwxLjI1LDAsMSwwLDAtMi41Wk0yMiwxOS41YTIuNSwyLjUsMCwwLDEsNSwwdjMuNzVIMjJ2LTIuNWgzLjEyVjE5LjVabTcuNSw1VjMyaC0xMFYyNC41WiIvPjxyZWN0IGNsYXNzPSJjbHMtMyIgeD0iMTQuNSIgeT0iMTQuNSIgd2lkdGg9IjIwIiBoZWlnaHQ9IjIwIi8+PC9zdmc+;align=center;verticalAlign=top;labelPosition=center;verticalLabelPosition=bottom;spacing=0;spacingLeft=16;spacingRight=16;spacingTop=0;spacingBottom=4;" parent="1" vertex="1">
            <mxGeometry x="550" y="-6942" width="48" height="48" as="geometry" />
          </mxCell>
        </UserObject>
        <UserObject placeholders="1" label="&lt;b style=&#39;font-weight:600&#39;&gt;%Primary-Label%&lt;/b&gt;&lt;br&gt;%Secondary-Text%" Badge-Text="" Icon-Name="gateway--vpn" Primary-Label="VPN Gateway" Secondary-Text="" id="JBx76pNwKwFv1dZqiRyg-47">
          <mxCell style="shape=image;ibmType=nodep;ibmLayout=collapsed;strokeColor=#fa4d56;fillColor=none;html=1;metaEdit=1;whiteSpace=wrap;fontFamily=IBM Plex Sans;fontSize=14;image=data:image/svg+xml,PHN2ZyBpZD0iTGF5ZXJfMSIgZGF0YS1uYW1lPSJMYXllciAxIiB4bWxucz0iaHR0cDovL3d3dy53My5vcmcvMjAwMC9zdmciIHZpZXdCb3g9IjAgMCA0OSA0OSI+PGRlZnM+PHN0eWxlPi5jbHMtMXtmaWxsOiNmYTRkNTY7fS5jbHMtMntmaWxsOiNmZmY7fS5jbHMtM3tmaWxsOm5vbmU7fTwvc3R5bGU+PC9kZWZzPjxyZWN0IGNsYXNzPSJjbHMtMSIgeD0iMC41IiB5PSIwLjUiIHdpZHRoPSI0OCIgaGVpZ2h0PSI0OCIgcng9IjgiLz48cGF0aCBjbGFzcz0iY2xzLTIiIGQ9Ik0zMy41MSwyNS4zOGExLjIzLDEuMjMsMCwwLDAsMC0xLjc2TDI5Ljg5LDIwbDEuODEtMS43OWExLjI1LDEuMjUsMCwxLDAtLjU4LTIuMDksMS4yMiwxLjIyLDAsMCwwLS4zMiwxLjIyTDI5LDE5LjEybC0zLjYzLTMuNjNhMS4yMywxLjIzLDAsMCwwLTEuNzYsMEwyMCwxOS4xMWwtMS43OS0xLjgyYTEuMjQsMS4yNCwwLDEsMC0yLjA5LjU5LDEuMjIsMS4yMiwwLDAsMCwxLjIyLjMyTDE5LjEyLDIwbC0zLjYzLDMuNjNhMS4yMywxLjIzLDAsMCwwLDAsMS43NkwxOS4xMiwyOSwxNy4zNCwzMC44YTEuMjIsMS4yMiwwLDAsMC0xLjIyLjMyLDEuMjQsMS4yNCwwLDEsMCwyLjA5LjU5TDIwLDI5Ljg5bDMuNjIsMy42MmExLjIzLDEuMjMsMCwwLDAsMS43NiwwTDI5LDI5Ljg4bDEuNzksMS43OGExLjIyLDEuMjIsMCwwLDAsLjMyLDEuMjIsMS4yNCwxLjI0LDAsMSwwLC41OC0yLjA5TDI5Ljg5LDI5Wm0tOSw3LjI0TDE2LjM4LDI0LjVsOC4xMi04LjEyLDguMTIsOC4xMloiLz48cmVjdCBjbGFzcz0iY2xzLTMiIHg9IjE0LjUiIHk9IjE0LjUiIHdpZHRoPSIyMCIgaGVpZ2h0PSIyMCIvPjxwYXRoIGNsYXNzPSJjbHMtMiIgZD0iTTI3LDIzLjQyVjIyYTIuNSwyLjUsMCwwLDAtNSwwdjEuNDJhMS4yNiwxLjI2LDAsMCwwLS42MiwxLjA4djMuMTJhMS4yNiwxLjI2LDAsMCwwLDEuMjQsMS4yNmgzLjc2YTEuMjYsMS4yNiwwLDAsMCwxLjI0LTEuMjZWMjQuNUExLjI2LDEuMjYsMCwwLDAsMjcsMjMuNDJabS0yLjUtMi42N0ExLjI1LDEuMjUsMCwwLDEsMjUuNzUsMjJ2MS4yNWgtMi41VjIyQTEuMjUsMS4yNSwwLDAsMSwyNC41LDIwLjc1Wm0xLjg4LDYuODdIMjIuNjJWMjQuNWgzLjc2WiIvPjwvc3ZnPg==;align=center;verticalAlign=top;labelPosition=center;verticalLabelPosition=bottom;spacing=0;spacingLeft=16;spacingRight=16;spacingTop=0;spacingBottom=4;" parent="1" vertex="1">
            <mxGeometry x="470" y="-6942" width="48" height="48" as="geometry" />
          </mxCell>
        </UserObject>
        <UserObject placeholders="1" label="&lt;b style=&#39;font-weight:600&#39;&gt;%Primary-Label%&lt;/b&gt;&lt;br&gt;%Secondary-Text%" Badge-Text="" Icon-Name="gateway--security" Primary-Label="Security Gateway" Secondary-Text="" id="JBx76pNwKwFv1dZqiRyg-48">
          <mxCell style="shape=image;ibmType=nodep;ibmLayout=collapsed;strokeColor=#fa4d56;fillColor=none;html=1;metaEdit=1;whiteSpace=wrap;fontFamily=IBM Plex Sans;fontSize=14;image=data:image/svg+xml,PHN2ZyBpZD0iTGF5ZXJfMSIgZGF0YS1uYW1lPSJMYXllciAxIiB4bWxucz0iaHR0cDovL3d3dy53My5vcmcvMjAwMC9zdmciIHZpZXdCb3g9IjAgMCA0OSA0OSI+PGRlZnM+PHN0eWxlPi5jbHMtMXtmaWxsOiNmYTRkNTY7fS5jbHMtMntmaWxsOiNmZmY7fS5jbHMtM3tmaWxsOm5vbmU7fTwvc3R5bGU+PC9kZWZzPjxyZWN0IGNsYXNzPSJjbHMtMSIgeD0iMC41IiB5PSIwLjUiIHdpZHRoPSI0OCIgaGVpZ2h0PSI0OCIgcng9IjgiLz48cGF0aCBjbGFzcz0iY2xzLTIiIGQ9Ik0yMS4zOCwyMS4zOHY0YTMuMTMsMy4xMywwLDAsMCwxLjc4LDIuODJsMS4zNC42NCwxLjM0LS42NGEzLjEzLDMuMTMsMCwwLDAsMS43OC0yLjgydi00Wm01LDRhMS44OSwxLjg5LDAsMCwxLTEuMDgsMS42OWwtLjguMzgtLjgtLjM4YTEuODksMS44OSwwLDAsMS0xLjA4LTEuNjl2LTIuOGgzLjc2WiIvPjxwYXRoIGNsYXNzPSJjbHMtMiIgZD0iTTMzLjUxLDI1LjM4YTEuMjMsMS4yMywwLDAsMCwwLTEuNzZMMjkuODksMjBsMS44MS0xLjc5YTEuMjUsMS4yNSwwLDEsMC0uNTgtMi4wOSwxLjIyLDEuMjIsMCwwLDAtLjMyLDEuMjJMMjksMTkuMTJsLTMuNjMtMy42M2ExLjIzLDEuMjMsMCwwLDAtMS43NiwwTDIwLDE5LjExbC0xLjc5LTEuODJhMS4yNCwxLjI0LDAsMSwwLTIuMDkuNTksMS4yMiwxLjIyLDAsMCwwLDEuMjIuMzJMMTkuMTIsMjBsLTMuNjMsMy42M2ExLjIzLDEuMjMsMCwwLDAsMCwxLjc2TDE5LjEyLDI5LDE3LjM0LDMwLjhhMS4yMiwxLjIyLDAsMCwwLTEuMjIuMzIsMS4yNCwxLjI0LDAsMSwwLDIuMDkuNTlMMjAsMjkuODlsMy42MiwzLjYyYTEuMjMsMS4yMywwLDAsMCwxLjc2LDBMMjksMjkuODhsMS43OSwxLjc4YTEuMjIsMS4yMiwwLDAsMCwuMzIsMS4yMiwxLjI0LDEuMjQsMCwxLDAsLjU4LTIuMDlMMjkuODksMjlabS05LDcuMjRMMTYuMzgsMjQuNWw4LjEyLTguMTIsOC4xMiw4LjEyWiIvPjxyZWN0IGNsYXNzPSJjbHMtMyIgeD0iMTQuNSIgeT0iMTQuNSIgd2lkdGg9IjIwIiBoZWlnaHQ9IjIwIi8+PC9zdmc+;align=center;verticalAlign=top;labelPosition=center;verticalLabelPosition=bottom;spacing=0;spacingLeft=16;spacingRight=16;spacingTop=0;spacingBottom=4;" parent="1" vertex="1">
            <mxGeometry x="629" y="-6942" width="48" height="48" as="geometry" />
          </mxCell>
        </UserObject>
        <UserObject placeholders="1" label="&lt;b style=&#39;font-weight:600&#39;&gt;%Primary-Label%&lt;/b&gt;&lt;br&gt;%Secondary-Text%" Badge-Text="" Icon-Name="vpn--policy" Primary-Label="VPN Policy" Secondary-Text="" id="JBx76pNwKwFv1dZqiRyg-49">
          <mxCell style="shape=image;ibmType=nodel;ibmLayout=collapsed;strokeColor=#fa4d56;fillColor=none;html=1;metaEdit=1;whiteSpace=wrap;fontFamily=IBM Plex Sans;fontSize=14;image=data:image/svg+xml,PHN2ZyBpZD0iTGF5ZXJfMSIgZGF0YS1uYW1lPSJMYXllciAxIiB4bWxucz0iaHR0cDovL3d3dy53My5vcmcvMjAwMC9zdmciIHZpZXdCb3g9IjAgMCA0OSA0OSI+PGRlZnM+PHN0eWxlPi5jbHMtMXtmaWxsOiNmYTRkNTY7fS5jbHMtMntmaWxsOiNmZmY7fS5jbHMtM3tmaWxsOm5vbmU7fTwvc3R5bGU+PC9kZWZzPjxyZWN0IGNsYXNzPSJjbHMtMSIgeD0iMC41IiB5PSIwLjUiIHdpZHRoPSI0OCIgaGVpZ2h0PSI0OCIgcng9IjgiLz48cGF0aCBjbGFzcz0iY2xzLTIiIGQ9Ik0zMy4yNSwyMy44OGEzLjc1LDMuNzUsMCwxLDAtNy41LDBBMy43LDMuNywwLDAsMCwyNywyNi42NnY2bDIuNS0xLjE3TDMyLDMyLjYydi02QTMuNywzLjcsMCwwLDAsMzMuMjUsMjMuODhabS0yLjUsNi43Ny0xLjI1LS41OC0xLjI1LjU4VjI3LjQxYTMuODMsMy44MywwLDAsMCwyLjUsMFpNMjkuNSwyNi4zOGEyLjUsMi41LDAsMSwxLDIuNS0yLjVBMi41MSwyLjUxLDAsMCwxLDI5LjUsMjYuMzhaIi8+PHJlY3QgY2xhc3M9ImNscy0zIiB4PSIxNC41IiB5PSIxNC41IiB3aWR0aD0iMjAiIGhlaWdodD0iMjAiLz48cGF0aCBjbGFzcz0iY2xzLTIiIGQ9Ik0yMy4yNSwxNS43NUEzLjc1LDMuNzUsMCwwLDAsMTkuNSwxOS41djMuNzVIMTguMjVBMS4yNSwxLjI1LDAsMCwwLDE3LDI0LjVWMzJhMS4yNSwxLjI1LDAsMCwwLDEuMjUsMS4yNWg2Ljg3VjMySDE4LjI1VjI0LjVoNS42M1YyMy4yNUgyMC43NVYxOS41QTIuNSwyLjUsMCwwLDEsMjUuNywxOWwxLjIyLS4yNUEzLjc1LDMuNzUsMCwwLDAsMjMuMjUsMTUuNzVaIi8+PC9zdmc+;align=center;verticalAlign=top;labelPosition=center;verticalLabelPosition=bottom;spacing=0;spacingLeft=16;spacingRight=16;spacingTop=0;spacingBottom=4;" parent="1" vertex="1">
            <mxGeometry x="231" y="-6822" width="48" height="48" as="geometry" />
          </mxCell>
        </UserObject>
        <UserObject placeholders="1" label="&lt;b style=&#39;font-weight:600&#39;&gt;%Primary-Label%&lt;/b&gt;&lt;br&gt;%Secondary-Text%" Badge-Text="" Icon-Name="intrusion-prevention" Primary-Label="Intrusion Detection System" Secondary-Text="" id="JBx76pNwKwFv1dZqiRyg-50">
          <mxCell style="shape=image;ibmType=nodel;ibmLayout=collapsed;strokeColor=#fa4d56;fillColor=none;html=1;metaEdit=1;whiteSpace=wrap;fontFamily=IBM Plex Sans;fontSize=14;image=data:image/svg+xml,PHN2ZyBpZD0iTGF5ZXJfMSIgZGF0YS1uYW1lPSJMYXllciAxIiB4bWxucz0iaHR0cDovL3d3dy53My5vcmcvMjAwMC9zdmciIHZpZXdCb3g9IjAgMCA0OSA0OSI+PGRlZnM+PHN0eWxlPi5jbHMtMXtmaWxsOiNmYTRkNTY7fS5jbHMtMntmaWxsOm5vbmU7fS5jbHMtM3tmaWxsOiNmZmY7fTwvc3R5bGU+PC9kZWZzPjxyZWN0IGNsYXNzPSJjbHMtMSIgeD0iMC41IiB5PSIwLjUiIHdpZHRoPSI0OCIgaGVpZ2h0PSI0OCIgcng9IjgiLz48cmVjdCBjbGFzcz0iY2xzLTIiIHg9IjE0LjUiIHk9IjE0LjUiIHdpZHRoPSIyMCIgaGVpZ2h0PSIyMCIvPjxwYXRoIGNsYXNzPSJjbHMtMyIgZD0iTTMwLjEyLDIwLjc1SDE3YTEuMjUsMS4yNSwwLDAsMS0xLjI1LTEuMjVWMTdBMS4yNSwxLjI1LDAsMCwxLDE3LDE1Ljc1SDMwLjEyQTEuMjYsMS4yNiwwLDAsMSwzMS4zOCwxN3YyLjVBMS4yNiwxLjI2LDAsMCwxLDMwLjEyLDIwLjc1Wk0xNywxN3YyLjVIMzAuMTJWMTdaIi8+PHBhdGggY2xhc3M9ImNscy0zIiBkPSJNMjIsMzJIMTdWMjkuNWg1VjI4LjI1SDE3YTEuMjUsMS4yNSwwLDAsMC0xLjI1LDEuMjVWMzJBMS4yNSwxLjI1LDAsMCwwLDE3LDMzLjI1aDVaIi8+PHBhdGggY2xhc3M9ImNscy0zIiBkPSJNMzIsMjJIMTguODhhMS4yNiwxLjI2LDAsMCwwLTEuMjYsMS4yNXYyLjVBMS4yNiwxLjI2LDAsMCwwLDE4Ljg4LDI3SDIyVjI1Ljc1SDE4Ljg4di0yLjVIMzJWMjQuNWgxLjI1VjIzLjI1QTEuMjUsMS4yNSwwLDAsMCwzMiwyMloiLz48Y2lyY2xlIGNsYXNzPSJjbHMtMyIgY3g9IjI4LjI1IiBjeT0iMjkuNDMiIHI9IjEuMjUiLz48cGF0aCBjbGFzcz0iY2xzLTMiIGQ9Ik0zMy4xMSwyOS4xN2E1LjQsNS40LDAsMCwwLTQuODYtMy40Miw1LjQsNS40LDAsMCwwLTQuODYsMy40MmwtLjE0LjMzLjE0LjMzYTUuNCw1LjQsMCwwLDAsNC44NiwzLjQyLDUuNCw1LjQsMCwwLDAsNC44Ni0zLjQybC4xNC0uMzNaTTI4LjI1LDMyYTIuNSwyLjUsMCwxLDEsMi41LTIuNUEyLjUsMi41LDAsMCwxLDI4LjI1LDMyWiIvPjwvc3ZnPg==;align=center;verticalAlign=top;labelPosition=center;verticalLabelPosition=bottom;spacing=0;spacingLeft=16;spacingRight=16;spacingTop=0;spacingBottom=4;" parent="1" vertex="1">
            <mxGeometry x="470" y="-6822" width="48" height="48" as="geometry" />
          </mxCell>
        </UserObject>
        <UserObject placeholders="1" label="&lt;b style=&#39;font-weight:600&#39;&gt;%Primary-Label%&lt;/b&gt;&lt;br&gt;%Secondary-Text%" Badge-Text="" Icon-Name="intrusion-prevention" Primary-Label="Intrusion Prevention System" Secondary-Text="" id="JBx76pNwKwFv1dZqiRyg-51">
          <mxCell style="shape=image;ibmType=nodel;ibmLayout=collapsed;strokeColor=#fa4d56;fillColor=none;html=1;metaEdit=1;whiteSpace=wrap;fontFamily=IBM Plex Sans;fontSize=14;image=data:image/svg+xml,PHN2ZyBpZD0iTGF5ZXJfMSIgZGF0YS1uYW1lPSJMYXllciAxIiB4bWxucz0iaHR0cDovL3d3dy53My5vcmcvMjAwMC9zdmciIHZpZXdCb3g9IjAgMCA0OSA0OSI+PGRlZnM+PHN0eWxlPi5jbHMtMXtmaWxsOiNmYTRkNTY7fS5jbHMtMntmaWxsOm5vbmU7fS5jbHMtM3tmaWxsOiNmZmY7fTwvc3R5bGU+PC9kZWZzPjxyZWN0IGNsYXNzPSJjbHMtMSIgeD0iMC41IiB5PSIwLjUiIHdpZHRoPSI0OCIgaGVpZ2h0PSI0OCIgcng9IjgiLz48cmVjdCBjbGFzcz0iY2xzLTIiIHg9IjE0LjUiIHk9IjE0LjUiIHdpZHRoPSIyMCIgaGVpZ2h0PSIyMCIvPjxwYXRoIGNsYXNzPSJjbHMtMyIgZD0iTTMwLjEyLDIwLjc1SDE3YTEuMjUsMS4yNSwwLDAsMS0xLjI1LTEuMjVWMTdBMS4yNSwxLjI1LDAsMCwxLDE3LDE1Ljc1SDMwLjEyQTEuMjYsMS4yNiwwLDAsMSwzMS4zOCwxN3YyLjVBMS4yNiwxLjI2LDAsMCwxLDMwLjEyLDIwLjc1Wk0xNywxN3YyLjVIMzAuMTJWMTdaIi8+PHBhdGggY2xhc3M9ImNscy0zIiBkPSJNMjIsMzJIMTdWMjkuNWg1VjI4LjI1SDE3YTEuMjUsMS4yNSwwLDAsMC0xLjI1LDEuMjVWMzJBMS4yNSwxLjI1LDAsMCwwLDE3LDMzLjI1aDVaIi8+PHBhdGggY2xhc3M9ImNscy0zIiBkPSJNMzIsMjJIMTguODhhMS4yNiwxLjI2LDAsMCwwLTEuMjYsMS4yNXYyLjVBMS4yNiwxLjI2LDAsMCwwLDE4Ljg4LDI3SDIyVjI1Ljc1SDE4Ljg4di0yLjVIMzJWMjQuNWgxLjI1VjIzLjI1QTEuMjUsMS4yNSwwLDAsMCwzMiwyMloiLz48Y2lyY2xlIGNsYXNzPSJjbHMtMyIgY3g9IjI4LjI1IiBjeT0iMjkuNDMiIHI9IjEuMjUiLz48cGF0aCBjbGFzcz0iY2xzLTMiIGQ9Ik0zMy4xMSwyOS4xN2E1LjQsNS40LDAsMCwwLTQuODYtMy40Miw1LjQsNS40LDAsMCwwLTQuODYsMy40MmwtLjE0LjMzLjE0LjMzYTUuNCw1LjQsMCwwLDAsNC44NiwzLjQyLDUuNCw1LjQsMCwwLDAsNC44Ni0zLjQybC4xNC0uMzNaTTI4LjI1LDMyYTIuNSwyLjUsMCwxLDEsMi41LTIuNUEyLjUsMi41LDAsMCwxLDI4LjI1LDMyWiIvPjwvc3ZnPg==;align=center;verticalAlign=top;labelPosition=center;verticalLabelPosition=bottom;spacing=0;spacingLeft=16;spacingRight=16;spacingTop=0;spacingBottom=4;" parent="1" vertex="1">
            <mxGeometry x="390" y="-6822" width="48" height="48" as="geometry" />
          </mxCell>
        </UserObject>
        <UserObject placeholders="1" label="&lt;b style=&#39;font-weight:600&#39;&gt;%Primary-Label%&lt;/b&gt;&lt;br&gt;%Secondary-Text%" Badge-Text="" Icon-Name="hardware-security-module" Primary-Label="Hardware Security Module" Secondary-Text="" id="JBx76pNwKwFv1dZqiRyg-52">
          <mxCell style="shape=image;ibmType=nodel;ibmLayout=collapsed;strokeColor=#fa4d56;fillColor=none;html=1;metaEdit=1;whiteSpace=wrap;fontFamily=IBM Plex Sans;fontSize=14;image=data:image/svg+xml,PHN2ZyBpZD0iTGF5ZXJfMSIgZGF0YS1uYW1lPSJMYXllciAxIiB4bWxucz0iaHR0cDovL3d3dy53My5vcmcvMjAwMC9zdmciIHZpZXdCb3g9IjAgMCA0OSA0OSI+PGRlZnM+PHN0eWxlPi5jbHMtMXtmaWxsOiNmYTRkNTY7fS5jbHMtMntmaWxsOiNmZmY7fS5jbHMtM3tmaWxsOm5vbmU7fTwvc3R5bGU+PC9kZWZzPjxyZWN0IGNsYXNzPSJjbHMtMSIgeD0iMC41IiB5PSIwLjUiIHdpZHRoPSI0OCIgaGVpZ2h0PSI0OCIgcng9IjgiLz48Y2lyY2xlIGNsYXNzPSJjbHMtMiIgY3g9IjI3Ljk0IiBjeT0iMTkuMTkiIHI9IjAuOTQiLz48cGF0aCBjbGFzcz0iY2xzLTIiIGQ9Ik0yMy41MSwyN0gyMC4xMlYyMy42MmwzLjc3LTMuNzdjMC0uMTIsMC0uMjQsMC0uMzVhMy43NSwzLjc1LDAsMSwxLDMuNzQsMy43NWwtLjM0LDBabS0yLjEzLTEuMjVIMjNsMy44Ni0zLjg2LjMyLjA2YTEuOTMsMS45MywwLDAsMCwuNDUuMDUsMi41LDIuNSwwLDEsMC0yLjUtMi41LDIuNTgsMi41OCwwLDAsMCwuMDUuNDVsLjA2LjMzLTMuODUsMy44NVoiLz48cGF0aCBjbGFzcz0iY2xzLTIiIGQ9Ik0zMiwyN0gyNi4zOHYxLjI1SDMyVjMySDE3VjI4LjI1aDEuMjVWMjdIMTdhMS4yNSwxLjI1LDAsMCwwLTEuMjUsMS4yNVYzMkExLjI1LDEuMjUsMCwwLDAsMTcsMzMuMjVIMzJBMS4yNSwxLjI1LDAsMCwwLDMzLjI1LDMyVjI4LjI1QTEuMjUsMS4yNSwwLDAsMCwzMiwyN1oiLz48Y2lyY2xlIGNsYXNzPSJjbHMtMiIgY3g9IjE4Ljg4IiBjeT0iMzAuMTMiIHI9IjAuNjMiLz48cmVjdCBjbGFzcz0iY2xzLTMiIHg9IjE0LjUiIHk9IjE0LjUiIHdpZHRoPSIyMCIgaGVpZ2h0PSIyMCIvPjwvc3ZnPg==;align=center;verticalAlign=top;labelPosition=center;verticalLabelPosition=bottom;spacing=0;spacingLeft=16;spacingRight=16;spacingTop=0;spacingBottom=4;" parent="1" vertex="1">
            <mxGeometry x="311" y="-6822" width="48" height="48" as="geometry" />
          </mxCell>
        </UserObject>
        <mxCell id="JBx76pNwKwFv1dZqiRyg-62" value="" style="endArrow=oval;html=1;fontSize=16;fontColor=#4376BB;strokeWidth=2;endFill=1;strokeColor=#009900;startArrow=oval;startFill=1;" parent="1" edge="1">
          <mxGeometry width="50" height="50" relative="1" as="geometry">
            <mxPoint x="443" y="-6188" as="sourcePoint" />
            <mxPoint x="643" y="-6188" as="targetPoint" />
          </mxGeometry>
        </mxCell>
        <mxCell id="JBx76pNwKwFv1dZqiRyg-63" value="Private Connection" style="edgeLabel;html=1;align=center;verticalAlign=middle;resizable=0;points=[];" parent="JBx76pNwKwFv1dZqiRyg-62" vertex="1" connectable="0">
          <mxGeometry x="-0.08" y="1" relative="1" as="geometry">
            <mxPoint y="16" as="offset" />
          </mxGeometry>
        </mxCell>
        <mxCell id="JBx76pNwKwFv1dZqiRyg-64" value="" style="endArrow=oval;html=1;fontSize=16;fontColor=#4376BB;strokeWidth=2;endFill=1;strokeColor=#007FFF;startArrow=oval;startFill=1;" parent="1" edge="1">
          <mxGeometry width="50" height="50" relative="1" as="geometry">
            <mxPoint x="443" y="-6148" as="sourcePoint" />
            <mxPoint x="643" y="-6148" as="targetPoint" />
          </mxGeometry>
        </mxCell>
        <mxCell id="JBx76pNwKwFv1dZqiRyg-65" value="Public Connection" style="edgeLabel;html=1;align=center;verticalAlign=middle;resizable=0;points=[];" parent="JBx76pNwKwFv1dZqiRyg-64" vertex="1" connectable="0">
          <mxGeometry x="-0.08" y="1" relative="1" as="geometry">
            <mxPoint y="16" as="offset" />
          </mxGeometry>
        </mxCell>
        <mxCell id="JBx76pNwKwFv1dZqiRyg-66" value="&lt;font style=&quot;font-size: 11px&quot;&gt;Tunneling Connection&lt;/font&gt;" style="rounded=0;whiteSpace=wrap;html=1;fillColor=#f8cecc;strokeColor=none;" parent="1" vertex="1">
          <mxGeometry x="448" y="-6333" width="200" height="20" as="geometry" />
        </mxCell>
        <mxCell id="JBx76pNwKwFv1dZqiRyg-67" value="Relationships&lt;br&gt;&lt;font style=&quot;font-size: 11px ; font-weight: normal&quot; color=&quot;#000000&quot;&gt;logical relationship between elements&lt;/font&gt;" style="text;html=1;strokeColor=none;fillColor=none;align=center;verticalAlign=middle;whiteSpace=wrap;rounded=0;fontSize=16;fontColor=#4376BB;fontStyle=1" parent="1" vertex="1">
          <mxGeometry x="1008" y="-6563" width="240" height="20" as="geometry" />
        </mxCell>
        <mxCell id="JBx76pNwKwFv1dZqiRyg-68" value="Connections&lt;br&gt;&lt;font color=&quot;#000000&quot; style=&quot;font-weight: normal ; font-size: 11px&quot;&gt;physical/protocol network connections, network messages, invocations between elements&lt;/font&gt;" style="text;html=1;strokeColor=none;fillColor=none;align=center;verticalAlign=middle;whiteSpace=wrap;rounded=0;fontSize=16;fontColor=#4376BB;fontStyle=1" parent="1" vertex="1">
          <mxGeometry x="548" y="-6553" width="240" height="20" as="geometry" />
        </mxCell>
        <mxCell id="JBx76pNwKwFv1dZqiRyg-69" value="" style="endArrow=box;html=1;fontSize=16;fontColor=#4376BB;strokeWidth=2;endFill=0;rounded=0;startArrow=box;startFill=0;shape=link;" parent="1" edge="1">
          <mxGeometry width="50" height="50" relative="1" as="geometry">
            <mxPoint x="448" y="-6363.5" as="sourcePoint" />
            <mxPoint x="648" y="-6363.5" as="targetPoint" />
          </mxGeometry>
        </mxCell>
        <mxCell id="JBx76pNwKwFv1dZqiRyg-70" value="Physical Connection" style="edgeLabel;html=1;align=center;verticalAlign=middle;resizable=0;points=[];" parent="JBx76pNwKwFv1dZqiRyg-69" vertex="1" connectable="0">
          <mxGeometry x="-0.07" y="2" relative="1" as="geometry">
            <mxPoint x="7" y="16.5" as="offset" />
          </mxGeometry>
        </mxCell>
        <mxCell id="JBx76pNwKwFv1dZqiRyg-71" value="" style="shape=curlyBracket;whiteSpace=wrap;html=1;rounded=1;" parent="1" vertex="1">
          <mxGeometry x="398" y="-6493" width="20" height="70" as="geometry" />
        </mxCell>
        <mxCell id="JBx76pNwKwFv1dZqiRyg-72" value="" style="shape=curlyBracket;whiteSpace=wrap;html=1;rounded=1;" parent="1" vertex="1">
          <mxGeometry x="398" y="-6413" width="20" height="200" as="geometry" />
        </mxCell>
        <mxCell id="JBx76pNwKwFv1dZqiRyg-73" value="" style="shape=curlyBracket;whiteSpace=wrap;html=1;rounded=1;" parent="1" vertex="1">
          <mxGeometry x="393" y="-6203" width="20" height="70" as="geometry" />
        </mxCell>
        <mxCell id="JBx76pNwKwFv1dZqiRyg-74" value="Logical messages exchanged &lt;br&gt;between elements&amp;nbsp;" style="text;html=1;resizable=0;autosize=1;align=center;verticalAlign=middle;points=[];fillColor=none;strokeColor=none;rounded=0;" parent="1" vertex="1">
          <mxGeometry x="218" y="-6473" width="170" height="30" as="geometry" />
        </mxCell>
        <mxCell id="JBx76pNwKwFv1dZqiRyg-75" value="Network connections&lt;br&gt;between elements" style="text;html=1;resizable=0;autosize=1;align=center;verticalAlign=middle;points=[];fillColor=none;strokeColor=none;rounded=0;" parent="1" vertex="1">
          <mxGeometry x="228" y="-6373" width="130" height="30" as="geometry" />
        </mxCell>
        <mxCell id="JBx76pNwKwFv1dZqiRyg-76" value="Color annotation to describe&lt;br&gt;if message/connection is through&lt;br&gt;public or private network" style="text;html=1;resizable=0;autosize=1;align=center;verticalAlign=middle;points=[];fillColor=none;strokeColor=none;rounded=0;" parent="1" vertex="1">
          <mxGeometry x="200" y="-6193" width="190" height="50" as="geometry" />
        </mxCell>
        <mxCell id="JBx76pNwKwFv1dZqiRyg-77" value="" style="shape=curlyBracket;whiteSpace=wrap;html=1;rounded=1;" parent="1" vertex="1">
          <mxGeometry x="393" y="-6123" width="20" height="70" as="geometry" />
        </mxCell>
        <mxCell id="JBx76pNwKwFv1dZqiRyg-78" value="Annotation to describe&lt;br&gt;what protocol is used &lt;br&gt;by the message/connection" style="text;html=1;resizable=0;autosize=1;align=center;verticalAlign=middle;points=[];fillColor=none;strokeColor=none;rounded=0;" parent="1" vertex="1">
          <mxGeometry x="218" y="-6113" width="160" height="50" as="geometry" />
        </mxCell>
        <mxCell id="JBx76pNwKwFv1dZqiRyg-79" value="Those are coming directly from UML&lt;br&gt;99% of the time will be used the&lt;br&gt;Dependency Relationship&lt;br&gt;with a description" style="text;html=1;resizable=0;autosize=1;align=center;verticalAlign=middle;points=[];fillColor=none;strokeColor=none;rounded=0;" parent="1" vertex="1">
          <mxGeometry x="1438" y="-6433" width="210" height="60" as="geometry" />
        </mxCell>
        <mxCell id="JBx76pNwKwFv1dZqiRyg-80" value="" style="endArrow=none;html=1;edgeStyle=orthogonalEdgeStyle;" parent="1" edge="1">
          <mxGeometry relative="1" as="geometry">
            <mxPoint x="1233" y="-6223" as="sourcePoint" />
            <mxPoint x="1393" y="-6223" as="targetPoint" />
          </mxGeometry>
        </mxCell>
        <mxCell id="JBx76pNwKwFv1dZqiRyg-81" value="0..N" style="edgeLabel;resizable=0;html=1;align=left;verticalAlign=bottom;" parent="JBx76pNwKwFv1dZqiRyg-80" connectable="0" vertex="1">
          <mxGeometry x="-1" relative="1" as="geometry" />
        </mxCell>
        <mxCell id="JBx76pNwKwFv1dZqiRyg-82" value="0..N" style="edgeLabel;resizable=0;html=1;align=right;verticalAlign=bottom;" parent="JBx76pNwKwFv1dZqiRyg-80" connectable="0" vertex="1">
          <mxGeometry x="1" relative="1" as="geometry" />
        </mxCell>
        <mxCell id="JBx76pNwKwFv1dZqiRyg-83" value="Label" style="edgeLabel;html=1;align=center;verticalAlign=middle;resizable=0;points=[];" parent="JBx76pNwKwFv1dZqiRyg-80" vertex="1" connectable="0">
          <mxGeometry x="-0.0375" relative="1" as="geometry">
            <mxPoint y="10" as="offset" />
          </mxGeometry>
        </mxCell>
        <mxCell id="JBx76pNwKwFv1dZqiRyg-84" value="Those are coming directly from UML&lt;br&gt;Annotation to capture cardinality of&lt;br&gt;the source/target elements&lt;br&gt;of the relationship&amp;nbsp;" style="text;html=1;resizable=0;autosize=1;align=center;verticalAlign=middle;points=[];fillColor=none;strokeColor=none;rounded=0;" parent="1" vertex="1">
          <mxGeometry x="1438" y="-6258" width="210" height="60" as="geometry" />
        </mxCell>
        <mxCell id="JBx76pNwKwFv1dZqiRyg-85" value="" style="shape=curlyBracket;whiteSpace=wrap;html=1;rounded=1;rotation=-180;" parent="1" vertex="1">
          <mxGeometry x="1408" y="-6503" width="20" height="200" as="geometry" />
        </mxCell>
        <mxCell id="JBx76pNwKwFv1dZqiRyg-86" value="" style="shape=curlyBracket;whiteSpace=wrap;html=1;rounded=1;rotation=-180;" parent="1" vertex="1">
          <mxGeometry x="1408" y="-6263" width="20" height="70" as="geometry" />
        </mxCell>
        <mxCell id="JBx76pNwKwFv1dZqiRyg-87" value="" style="endArrow=oval;html=1;fontSize=16;fontColor=#4376BB;strokeWidth=2;endFill=1;startArrow=oval;startFill=1;" parent="1" edge="1">
          <mxGeometry width="50" height="50" relative="1" as="geometry">
            <mxPoint x="443" y="-6088.5" as="sourcePoint" />
            <mxPoint x="643" y="-6088.5" as="targetPoint" />
          </mxGeometry>
        </mxCell>
        <mxCell id="JBx76pNwKwFv1dZqiRyg-88" value="Label&lt;br&gt;&lt;b&gt;[&lt;/b&gt;Protocol/Application NAME&lt;br&gt;Encyption/Security:PORT&lt;b&gt;]&lt;/b&gt;" style="edgeLabel;html=1;align=center;verticalAlign=middle;resizable=0;points=[];" parent="JBx76pNwKwFv1dZqiRyg-87" vertex="1" connectable="0">
          <mxGeometry x="-0.08" y="1" relative="1" as="geometry">
            <mxPoint x="3.2800000000000002" y="26.5" as="offset" />
          </mxGeometry>
        </mxCell>
        <mxCell id="JBx76pNwKwFv1dZqiRyg-89" value="Extends" style="endArrow=block;endSize=16;endFill=0;html=1;" parent="1" edge="1">
          <mxGeometry y="-10" width="160" relative="1" as="geometry">
            <mxPoint x="1233" y="-6283" as="sourcePoint" />
            <mxPoint x="1393" y="-6283" as="targetPoint" />
            <mxPoint as="offset" />
          </mxGeometry>
        </mxCell>
        <mxCell id="JBx76pNwKwFv1dZqiRyg-90" value="" style="endArrow=open;html=1;endSize=12;startArrow=diamondThin;startSize=14;startFill=0;edgeStyle=orthogonalEdgeStyle;align=left;verticalAlign=bottom;" parent="1" edge="1">
          <mxGeometry x="-1" y="3" relative="1" as="geometry">
            <mxPoint x="1233" y="-6403" as="sourcePoint" />
            <mxPoint x="1393" y="-6403" as="targetPoint" />
          </mxGeometry>
        </mxCell>
        <mxCell id="JBx76pNwKwFv1dZqiRyg-91" value="Aggregation" style="edgeLabel;html=1;align=center;verticalAlign=middle;resizable=0;points=[];" parent="JBx76pNwKwFv1dZqiRyg-90" vertex="1" connectable="0">
          <mxGeometry x="-0.075" y="1" relative="1" as="geometry">
            <mxPoint x="6" y="7" as="offset" />
          </mxGeometry>
        </mxCell>
        <mxCell id="JBx76pNwKwFv1dZqiRyg-92" value="" style="endArrow=open;html=1;endSize=12;startArrow=diamondThin;startSize=14;startFill=1;edgeStyle=orthogonalEdgeStyle;align=left;verticalAlign=bottom;" parent="1" edge="1">
          <mxGeometry x="-1" y="3" relative="1" as="geometry">
            <mxPoint x="1233" y="-6363" as="sourcePoint" />
            <mxPoint x="1393" y="-6363" as="targetPoint" />
          </mxGeometry>
        </mxCell>
        <mxCell id="JBx76pNwKwFv1dZqiRyg-93" value="Composition" style="edgeLabel;html=1;align=center;verticalAlign=middle;resizable=0;points=[];" parent="JBx76pNwKwFv1dZqiRyg-92" vertex="1" connectable="0">
          <mxGeometry x="-0.05" y="1" relative="1" as="geometry">
            <mxPoint y="11" as="offset" />
          </mxGeometry>
        </mxCell>
        <mxCell id="JBx76pNwKwFv1dZqiRyg-94" value="Dependendency" style="endArrow=open;endSize=12;dashed=1;html=1;" parent="1" edge="1">
          <mxGeometry y="-10" width="160" relative="1" as="geometry">
            <mxPoint x="1026.5699999999997" y="-6483" as="sourcePoint" />
            <mxPoint x="1186.5699999999997" y="-6483" as="targetPoint" />
            <mxPoint as="offset" />
          </mxGeometry>
        </mxCell>
        <mxCell id="JBx76pNwKwFv1dZqiRyg-95" value="" style="endArrow=block;dashed=1;endFill=0;endSize=12;html=1;" parent="1" edge="1">
          <mxGeometry width="160" relative="1" as="geometry">
            <mxPoint x="1233" y="-6323" as="sourcePoint" />
            <mxPoint x="1393" y="-6323" as="targetPoint" />
          </mxGeometry>
        </mxCell>
        <mxCell id="JBx76pNwKwFv1dZqiRyg-96" value="Implementation" style="edgeLabel;html=1;align=center;verticalAlign=middle;resizable=0;points=[];" parent="JBx76pNwKwFv1dZqiRyg-95" vertex="1" connectable="0">
          <mxGeometry x="-0.0875" y="1" relative="1" as="geometry">
            <mxPoint y="11" as="offset" />
          </mxGeometry>
        </mxCell>
        <mxCell id="JBx76pNwKwFv1dZqiRyg-97" value="" style="endArrow=open;endFill=0;endSize=12;html=1;" parent="1" edge="1">
          <mxGeometry width="160" relative="1" as="geometry">
            <mxPoint x="1026.5699999999997" y="-6443" as="sourcePoint" />
            <mxPoint x="1186.5699999999997" y="-6443" as="targetPoint" />
          </mxGeometry>
        </mxCell>
        <mxCell id="JBx76pNwKwFv1dZqiRyg-98" value="Association" style="edgeLabel;html=1;align=center;verticalAlign=middle;resizable=0;points=[];" parent="JBx76pNwKwFv1dZqiRyg-97" vertex="1" connectable="0">
          <mxGeometry x="-0.0375" y="1" relative="1" as="geometry">
            <mxPoint y="11" as="offset" />
          </mxGeometry>
        </mxCell>
        <mxCell id="JBx76pNwKwFv1dZqiRyg-99" value="" style="endArrow=oval;html=1;fontSize=16;fontColor=#4376BB;strokeWidth=2;endFill=1;rounded=0;startArrow=oval;startFill=1;" parent="1" edge="1">
          <mxGeometry width="50" height="50" relative="1" as="geometry">
            <mxPoint x="448" y="-6403.5" as="sourcePoint" />
            <mxPoint x="648" y="-6403.5" as="targetPoint" />
          </mxGeometry>
        </mxCell>
        <mxCell id="JBx76pNwKwFv1dZqiRyg-100" value="Connection" style="edgeLabel;html=1;align=center;verticalAlign=middle;resizable=0;points=[];" parent="JBx76pNwKwFv1dZqiRyg-99" vertex="1" connectable="0">
          <mxGeometry x="-0.07" y="2" relative="1" as="geometry">
            <mxPoint x="-3" y="12" as="offset" />
          </mxGeometry>
        </mxCell>
        <mxCell id="JBx76pNwKwFv1dZqiRyg-101" value="Logical Connection / Link" style="html=1;verticalAlign=middle;startArrow=oval;startFill=1;endArrow=oval;startSize=6;strokeColor=#000000;align=center;dashed=1;strokeWidth=2;horizontal=1;labelPosition=center;verticalLabelPosition=middle;endFill=1;" parent="1" edge="1">
          <mxGeometry x="-0.1" y="-10" width="60" relative="1" as="geometry">
            <mxPoint x="458" y="-6453" as="sourcePoint" />
            <mxPoint x="658" y="-6453" as="targetPoint" />
            <mxPoint as="offset" />
          </mxGeometry>
        </mxCell>
        <mxCell id="JBx76pNwKwFv1dZqiRyg-102" value="&lt;font color=&quot;#000000&quot;&gt;Bidirectional&lt;/font&gt;" style="text;html=1;strokeColor=none;fillColor=none;align=center;verticalAlign=middle;whiteSpace=wrap;rounded=0;fontSize=16;fontColor=#4376BB;fontStyle=1" parent="1" vertex="1">
          <mxGeometry x="438" y="-6493" width="240" height="20" as="geometry" />
        </mxCell>
        <mxCell id="JBx76pNwKwFv1dZqiRyg-103" value="&lt;font color=&quot;#000000&quot;&gt;Unidirectional&lt;/font&gt;" style="text;html=1;strokeColor=none;fillColor=none;align=center;verticalAlign=middle;whiteSpace=wrap;rounded=0;fontSize=16;fontColor=#4376BB;fontStyle=1" parent="1" vertex="1">
          <mxGeometry x="688" y="-6493" width="240" height="20" as="geometry" />
        </mxCell>
        <mxCell id="JBx76pNwKwFv1dZqiRyg-104" value="" style="endArrow=block;html=1;fontSize=16;fontColor=#4376BB;strokeWidth=2;endFill=1;rounded=0;startArrow=oval;startFill=1;" parent="1" edge="1">
          <mxGeometry width="50" height="50" relative="1" as="geometry">
            <mxPoint x="708" y="-6403.5" as="sourcePoint" />
            <mxPoint x="908" y="-6403.5" as="targetPoint" />
          </mxGeometry>
        </mxCell>
        <mxCell id="JBx76pNwKwFv1dZqiRyg-105" value="Connection" style="edgeLabel;html=1;align=center;verticalAlign=middle;resizable=0;points=[];" parent="JBx76pNwKwFv1dZqiRyg-104" vertex="1" connectable="0">
          <mxGeometry x="-0.07" y="2" relative="1" as="geometry">
            <mxPoint x="-3" y="12" as="offset" />
          </mxGeometry>
        </mxCell>
        <mxCell id="JBx76pNwKwFv1dZqiRyg-106" value="Logical Connection / Link" style="html=1;verticalAlign=middle;startArrow=oval;startFill=1;endArrow=block;startSize=6;strokeColor=#000000;align=center;dashed=1;strokeWidth=2;horizontal=1;labelPosition=center;verticalLabelPosition=middle;endFill=1;" parent="1" edge="1">
          <mxGeometry x="-0.1" y="-10" width="60" relative="1" as="geometry">
            <mxPoint x="708" y="-6453" as="sourcePoint" />
            <mxPoint x="908" y="-6453" as="targetPoint" />
            <mxPoint as="offset" />
          </mxGeometry>
        </mxCell>
        <mxCell id="JBx76pNwKwFv1dZqiRyg-107" value="" style="endArrow=block;html=1;fontSize=16;fontColor=#4376BB;strokeWidth=2;endFill=1;strokeColor=#009900;startArrow=oval;startFill=1;" parent="1" edge="1">
          <mxGeometry width="50" height="50" relative="1" as="geometry">
            <mxPoint x="713" y="-6188.25" as="sourcePoint" />
            <mxPoint x="913" y="-6188.25" as="targetPoint" />
          </mxGeometry>
        </mxCell>
        <mxCell id="JBx76pNwKwFv1dZqiRyg-108" value="Private Connection" style="edgeLabel;html=1;align=center;verticalAlign=middle;resizable=0;points=[];" parent="JBx76pNwKwFv1dZqiRyg-107" vertex="1" connectable="0">
          <mxGeometry x="-0.08" y="1" relative="1" as="geometry">
            <mxPoint y="16" as="offset" />
          </mxGeometry>
        </mxCell>
        <mxCell id="JBx76pNwKwFv1dZqiRyg-109" value="" style="endArrow=block;html=1;fontSize=16;fontColor=#4376BB;strokeWidth=2;endFill=1;strokeColor=#007FFF;startArrow=oval;startFill=1;" parent="1" edge="1">
          <mxGeometry width="50" height="50" relative="1" as="geometry">
            <mxPoint x="713" y="-6148.25" as="sourcePoint" />
            <mxPoint x="913" y="-6148.25" as="targetPoint" />
          </mxGeometry>
        </mxCell>
        <mxCell id="JBx76pNwKwFv1dZqiRyg-110" value="Public Connection" style="edgeLabel;html=1;align=center;verticalAlign=middle;resizable=0;points=[];" parent="JBx76pNwKwFv1dZqiRyg-109" vertex="1" connectable="0">
          <mxGeometry x="-0.08" y="1" relative="1" as="geometry">
            <mxPoint y="16" as="offset" />
          </mxGeometry>
        </mxCell>
        <mxCell id="JBx76pNwKwFv1dZqiRyg-111" value="" style="endArrow=block;html=1;fontSize=16;fontColor=#4376BB;strokeWidth=2;endFill=1;startArrow=oval;startFill=1;" parent="1" edge="1">
          <mxGeometry width="50" height="50" relative="1" as="geometry">
            <mxPoint x="713" y="-6088.75" as="sourcePoint" />
            <mxPoint x="913" y="-6088.75" as="targetPoint" />
          </mxGeometry>
        </mxCell>
        <mxCell id="JBx76pNwKwFv1dZqiRyg-112" value="Label&lt;br&gt;&lt;b&gt;[&lt;/b&gt;Protocol/Application NAME&lt;br&gt;Encyption/Security:PORT&lt;b&gt;]&lt;/b&gt;" style="edgeLabel;html=1;align=center;verticalAlign=middle;resizable=0;points=[];" parent="JBx76pNwKwFv1dZqiRyg-111" vertex="1" connectable="0">
          <mxGeometry x="-0.08" y="1" relative="1" as="geometry">
            <mxPoint x="3" y="26.75" as="offset" />
          </mxGeometry>
        </mxCell>
        <mxCell id="JBx76pNwKwFv1dZqiRyg-113" value="&lt;font style=&quot;font-size: 11px&quot;&gt;Tunneling Connection&lt;/font&gt;" style="rounded=0;whiteSpace=wrap;html=1;fillColor=#f8cecc;strokeColor=none;" parent="1" vertex="1">
          <mxGeometry x="708" y="-6333" width="200" height="20" as="geometry" />
        </mxCell>
        <mxCell id="JBx76pNwKwFv1dZqiRyg-114" value="" style="endArrow=box;html=1;fontSize=16;fontColor=#4376BB;strokeWidth=2;endFill=0;rounded=0;startArrow=box;startFill=0;shape=link;" parent="1" edge="1">
          <mxGeometry width="50" height="50" relative="1" as="geometry">
            <mxPoint x="708" y="-6363.5" as="sourcePoint" />
            <mxPoint x="908" y="-6363.5" as="targetPoint" />
          </mxGeometry>
        </mxCell>
        <mxCell id="JBx76pNwKwFv1dZqiRyg-115" value="Physical Connection" style="edgeLabel;html=1;align=center;verticalAlign=middle;resizable=0;points=[];" parent="JBx76pNwKwFv1dZqiRyg-114" vertex="1" connectable="0">
          <mxGeometry x="-0.07" y="2" relative="1" as="geometry">
            <mxPoint x="7" y="16.5" as="offset" />
          </mxGeometry>
        </mxCell>
        <mxCell id="JBx76pNwKwFv1dZqiRyg-116" value="&lt;font color=&quot;#000000&quot;&gt;Standard&lt;/font&gt;" style="text;html=1;strokeColor=none;fillColor=none;align=center;verticalAlign=middle;whiteSpace=wrap;rounded=0;fontSize=16;fontColor=#4376BB;fontStyle=1" parent="1" vertex="1">
          <mxGeometry x="993" y="-6523" width="240" height="20" as="geometry" />
        </mxCell>
        <mxCell id="JBx76pNwKwFv1dZqiRyg-117" value="&lt;font color=&quot;#000000&quot;&gt;Extended/Advanced&lt;/font&gt;" style="text;html=1;strokeColor=none;fillColor=none;align=center;verticalAlign=middle;whiteSpace=wrap;rounded=0;fontSize=16;fontColor=#4376BB;fontStyle=1" parent="1" vertex="1">
          <mxGeometry x="1198" y="-6523" width="240" height="20" as="geometry" />
        </mxCell>
        <mxCell id="JBx76pNwKwFv1dZqiRyg-118" value="" style="rounded=0;whiteSpace=wrap;html=1;fillColor=#f8cecc;strokeColor=none;" parent="1" vertex="1">
          <mxGeometry x="448" y="-6303" width="200" height="20" as="geometry" />
        </mxCell>
        <mxCell id="JBx76pNwKwFv1dZqiRyg-119" style="rounded=0;orthogonalLoop=1;jettySize=auto;html=1;exitX=0;exitY=0.5;exitDx=0;exitDy=0;entryX=1;entryY=0.5;entryDx=0;entryDy=0;strokeWidth=2;endArrow=oval;endFill=1;startArrow=oval;startFill=1;" parent="1" source="JBx76pNwKwFv1dZqiRyg-118" target="JBx76pNwKwFv1dZqiRyg-118" edge="1">
          <mxGeometry relative="1" as="geometry" />
        </mxCell>
        <mxCell id="JBx76pNwKwFv1dZqiRyg-120" value="Traffic Through Tunnel/Encapsulation" style="text;html=1;align=center;verticalAlign=middle;resizable=0;points=[];autosize=1;" parent="1" vertex="1">
          <mxGeometry x="443" y="-6283" width="210" height="20" as="geometry" />
        </mxCell>
        <mxCell id="JBx76pNwKwFv1dZqiRyg-121" value="" style="rounded=0;whiteSpace=wrap;html=1;fillColor=#f8cecc;strokeColor=none;" parent="1" vertex="1">
          <mxGeometry x="448" y="-6253" width="200" height="20" as="geometry" />
        </mxCell>
        <mxCell id="JBx76pNwKwFv1dZqiRyg-122" value="Traffic Through DoubleTunnel/Encapsulation" style="text;html=1;align=center;verticalAlign=middle;resizable=0;points=[];autosize=1;" parent="1" vertex="1">
          <mxGeometry x="423" y="-6233" width="250" height="20" as="geometry" />
        </mxCell>
        <mxCell id="JBx76pNwKwFv1dZqiRyg-123" value="" style="rounded=0;whiteSpace=wrap;html=1;strokeColor=none;fillColor=#FFFF66;" parent="1" vertex="1">
          <mxGeometry x="448" y="-6248" width="200" height="10" as="geometry" />
        </mxCell>
        <mxCell id="JBx76pNwKwFv1dZqiRyg-124" style="edgeStyle=none;rounded=0;orthogonalLoop=1;jettySize=auto;html=1;entryX=1;entryY=0.5;entryDx=0;entryDy=0;startArrow=oval;startFill=1;endArrow=oval;endFill=1;strokeWidth=2;" parent="1" target="JBx76pNwKwFv1dZqiRyg-123" edge="1">
          <mxGeometry relative="1" as="geometry">
            <mxPoint x="448" y="-6243" as="sourcePoint" />
          </mxGeometry>
        </mxCell>
        <mxCell id="JBx76pNwKwFv1dZqiRyg-125" value="" style="rounded=0;whiteSpace=wrap;html=1;fillColor=#f8cecc;strokeColor=none;" parent="1" vertex="1">
          <mxGeometry x="708" y="-6303" width="200" height="20" as="geometry" />
        </mxCell>
        <mxCell id="JBx76pNwKwFv1dZqiRyg-126" style="rounded=0;orthogonalLoop=1;jettySize=auto;html=1;exitX=0;exitY=0.5;exitDx=0;exitDy=0;entryX=1;entryY=0.5;entryDx=0;entryDy=0;strokeWidth=2;endArrow=block;endFill=1;startArrow=oval;startFill=1;" parent="1" source="JBx76pNwKwFv1dZqiRyg-125" target="JBx76pNwKwFv1dZqiRyg-125" edge="1">
          <mxGeometry relative="1" as="geometry" />
        </mxCell>
        <mxCell id="JBx76pNwKwFv1dZqiRyg-127" value="Traffic Through Tunnel/Encapsulation" style="text;html=1;align=center;verticalAlign=middle;resizable=0;points=[];autosize=1;" parent="1" vertex="1">
          <mxGeometry x="703" y="-6283" width="210" height="20" as="geometry" />
        </mxCell>
        <mxCell id="JBx76pNwKwFv1dZqiRyg-128" value="" style="rounded=0;whiteSpace=wrap;html=1;fillColor=#f8cecc;strokeColor=none;" parent="1" vertex="1">
          <mxGeometry x="708" y="-6253" width="200" height="20" as="geometry" />
        </mxCell>
        <mxCell id="JBx76pNwKwFv1dZqiRyg-129" value="" style="rounded=0;whiteSpace=wrap;html=1;strokeColor=none;fillColor=#FFFF66;" parent="1" vertex="1">
          <mxGeometry x="708" y="-6248" width="200" height="10" as="geometry" />
        </mxCell>
        <mxCell id="JBx76pNwKwFv1dZqiRyg-130" style="edgeStyle=none;rounded=0;orthogonalLoop=1;jettySize=auto;html=1;entryX=1;entryY=0.5;entryDx=0;entryDy=0;startArrow=oval;startFill=1;endArrow=block;endFill=1;strokeWidth=2;" parent="1" target="JBx76pNwKwFv1dZqiRyg-129" edge="1">
          <mxGeometry relative="1" as="geometry">
            <mxPoint x="708" y="-6243" as="sourcePoint" />
          </mxGeometry>
        </mxCell>
        <mxCell id="JBx76pNwKwFv1dZqiRyg-131" value="Annotation to describe&lt;br&gt;what encapsulation is used &lt;br&gt;by the message/connection" style="text;html=1;resizable=0;autosize=1;align=center;verticalAlign=middle;points=[];fillColor=none;strokeColor=none;rounded=0;" parent="1" vertex="1">
          <mxGeometry x="218" y="-6033" width="160" height="50" as="geometry" />
        </mxCell>
        <mxCell id="JBx76pNwKwFv1dZqiRyg-132" value="" style="endArrow=oval;html=1;fontSize=16;fontColor=#4376BB;strokeWidth=2;endFill=1;startArrow=oval;startFill=1;" parent="1" edge="1">
          <mxGeometry width="50" height="50" relative="1" as="geometry">
            <mxPoint x="443" y="-6008.5" as="sourcePoint" />
            <mxPoint x="643" y="-6008.5" as="targetPoint" />
          </mxGeometry>
        </mxCell>
        <mxCell id="JBx76pNwKwFv1dZqiRyg-133" value="Label&lt;br&gt;&lt;b&gt;[&lt;/b&gt;Encapsulation NAME&lt;br&gt;Encyption/Security:PORT&lt;b&gt;]&lt;/b&gt;" style="edgeLabel;html=1;align=center;verticalAlign=middle;resizable=0;points=[];" parent="JBx76pNwKwFv1dZqiRyg-132" vertex="1" connectable="0">
          <mxGeometry x="-0.08" y="1" relative="1" as="geometry">
            <mxPoint x="3.2800000000000002" y="36.5" as="offset" />
          </mxGeometry>
        </mxCell>
        <mxCell id="JBx76pNwKwFv1dZqiRyg-134" value="" style="endArrow=block;html=1;fontSize=16;fontColor=#4376BB;strokeWidth=2;endFill=1;startArrow=oval;startFill=1;" parent="1" edge="1">
          <mxGeometry width="50" height="50" relative="1" as="geometry">
            <mxPoint x="713" y="-6008.75" as="sourcePoint" />
            <mxPoint x="913" y="-6008.75" as="targetPoint" />
          </mxGeometry>
        </mxCell>
        <mxCell id="JBx76pNwKwFv1dZqiRyg-135" value="Label&lt;br&gt;&lt;b&gt;[&lt;/b&gt;Encapsulation NAME&lt;br&gt;Encyption/Security:PORT&lt;b&gt;]&lt;/b&gt;" style="edgeLabel;html=1;align=center;verticalAlign=middle;resizable=0;points=[];" parent="JBx76pNwKwFv1dZqiRyg-134" vertex="1" connectable="0">
          <mxGeometry x="-0.08" y="1" relative="1" as="geometry">
            <mxPoint x="3" y="36.75" as="offset" />
          </mxGeometry>
        </mxCell>
        <mxCell id="JBx76pNwKwFv1dZqiRyg-136" value="" style="shape=curlyBracket;whiteSpace=wrap;html=1;rounded=1;" parent="1" vertex="1">
          <mxGeometry x="388" y="-6043" width="20" height="70" as="geometry" />
        </mxCell>
        <mxCell id="JBx76pNwKwFv1dZqiRyg-137" value="Traffic Through DoubleTunnel/Encapsulation" style="text;html=1;align=center;verticalAlign=middle;resizable=0;points=[];autosize=1;" parent="1" vertex="1">
          <mxGeometry x="683" y="-6233" width="250" height="20" as="geometry" />
        </mxCell>
        <mxCell id="JBx76pNwKwFv1dZqiRyg-138" value="&lt;font color=&quot;#000000&quot;&gt;#&lt;/font&gt;" style="ellipse;whiteSpace=wrap;html=1;aspect=fixed;fontStyle=1;fontSize=17;fontColor=#990099;" parent="1" vertex="1">
          <mxGeometry x="673" y="-5917" width="26" height="26" as="geometry" />
        </mxCell>
        <mxCell id="JBx76pNwKwFv1dZqiRyg-139" value="Sequencing or numbering &lt;br&gt;for flowcharts or use cases" style="text;html=1;align=center;verticalAlign=middle;resizable=0;points=[];autosize=1;" parent="1" vertex="1">
          <mxGeometry x="223" y="-5917" width="160" height="30" as="geometry" />
        </mxCell>
        <mxCell id="JBx76pNwKwFv1dZqiRyg-140" value="" style="shape=curlyBracket;whiteSpace=wrap;html=1;rounded=1;" parent="1" vertex="1">
          <mxGeometry x="388" y="-5924" width="20" height="48" as="geometry" />
        </mxCell>
        <UserObject placeholders="1" label="&lt;b style=&#39;font-weight:600&#39;&gt;%Primary-Label%&lt;/b&gt;&lt;br&gt;%Secondary-Text%" Badge-Text="" Icon-Name="logo--openshift" Primary-Label="OpenShift Cluster" Secondary-Text="" id="ZDsick0VL7lr_p7ip1dG-3">
          <mxCell style="shape=mxgraph.ibm.base;ibmType=groupp;ibmLayout=expanded;strokeColor=#198038;fillColor=default;html=1;metaEdit=1;whiteSpace=wrap;fontFamily=IBM Plex Sans;fontSize=14;image=;align=left;verticalAlign=middle;labelPosition=center;verticalLabelPosition=middle;spacing=0;spacingLeft=35;spacingRight=16;spacingTop=0;spacingBottom=62;container=1;collapsible=0;expand=0;recursiveResize=0;" parent="1" vertex="1">
            <mxGeometry x="215" y="-8333" width="240" height="98" as="geometry" />
          </mxCell>
        </UserObject>
        <mxCell id="onWr2Z88JV70dTOvfGDM-7" value="" style="rounded=0;whiteSpace=wrap;html=1;strokeColor=none;fillColor=#198038;" parent="ZDsick0VL7lr_p7ip1dG-3" vertex="1">
          <mxGeometry width="11" height="33" as="geometry" />
        </mxCell>
        <mxCell id="onWr2Z88JV70dTOvfGDM-32" value="" style="shape=image;aspect=fixed;image=data:image/svg+xml,PHN2ZyBpZD0iaWNvbiIKCXhtbG5zPSJodHRwOi8vd3d3LnczLm9yZy8yMDAwL3N2ZyIgd2lkdGg9IjMyIiBoZWlnaHQ9IjMyIiB2aWV3Qm94PSIwIDAgMzIgMzIiPgoJPGRlZnM+CgkJPHN0eWxlPi5jbHMtMXtmaWxsOm5vbmU7fTwvc3R5bGU+Cgk8L2RlZnM+Cgk8cGF0aCBkPSJNMjYuNDYxMiwxNS43OTY4QTEyLjEzNTIsMTIuMTM1MiwwLDAsMCwyNS4yODIxLDExLjQ4TDI5LDEwLjEzYTExLjk4NzksMTEuOTg3OSwwLDAsMC0xLjAyODEtMS43MzgybC0xLjc0MzEuNjM1YTExLjk4ODQsMTEuOTg4NCwwLDAsMC0yMS43MSw3LjkxMjlsMS43NDc3LS42NDEyYTEyLjE5LDEyLjE5LDAsMCwwLC4zMzA5LDEuOTg0NkwyLjg4MzgsMTkuNjM4NEExMi4xNDUxLDEyLjE0NTEsMCwwLDAsNC43NTY1LDIzLjdsMS45NjYzLS43MTYzLjAwMjYuMDAzOWExMS44ODU2LDExLjg4NTYsMCwwLDAsNC42NywzLjg5MDlBMTIuMDEzLDEyLjAxMywwLDAsMCwyNy4zNCwyMS4wNzQzYTExLjg3MjUsMTEuODcyNSwwLDAsMCwxLjA4LTUuOTkyWm0tMi45MiwzLjQ5NjdhNy44LDcuOCwwLDAsMS0xMC4zNTMzLDMuNzc0NCw3LjcyMDcsNy43MjA3LDAsMCwxLTIuMjcxNC0xLjYxMjhsLTEuOTg0Ni43MjM1YTcuODQsNy44NCwwLDAsMS0yLjA3NDItMy45ODk1bC4wMDA5LS4wMDA4LDMuNzI0Mi0xLjM1NjZhNy44MTc1LDcuODE3NSwwLDAsMS0uMTIzMi0yLjA2NTNsLTEuNzUxNy42MzYyQTcuNzcyOSw3Ljc3MjksMCwwLDEsMTkuNzY0NSw4Ljk0aC4wMDY3YTcuNzQ0Miw3Ljc0NDIsMCwwLDEsMi4yNjQ2LDEuNjE1TDIzLjc4LDkuOTIxYTcuODAxNCw3LjgwMTQsMCwwLDEsMS4yMjksMS42NTU4bC0zLjcxLDEuMzU5NWE3LjgyNDUsNy44MjQ1LDAsMCwxLC45NzY2LDQuMzg4MmwxLjk2ODUtLjcxNTFBNy42NzE0LDcuNjcxNCwwLDAsMSwyMy41NDExLDE5LjI5MzVaIi8+Cjwvc3ZnPgo=;" parent="ZDsick0VL7lr_p7ip1dG-3" vertex="1">
          <mxGeometry x="11" y="7" width="22" height="22" as="geometry" />
        </mxCell>
        <UserObject placeholders="1" label="&lt;b style=&#39;font-weight:600&#39;&gt;%Primary-Label%&lt;/b&gt;&lt;br&gt;%Secondary-Text%" Badge-Text="" Icon-Name="network--public" Primary-Label="Public Network" Secondary-Text="" id="ZDsick0VL7lr_p7ip1dG-4">
          <mxCell style="shape=mxgraph.ibm.base;ibmType=groupl;ibmLayout=expanded;strokeColor=#1192e8;fillColor=default;html=1;metaEdit=1;whiteSpace=wrap;fontFamily=IBM Plex Sans;fontSize=14;image=;align=left;verticalAlign=middle;labelPosition=center;verticalLabelPosition=middle;spacing=0;spacingLeft=35;spacingRight=16;spacingTop=0;spacingBottom=58;container=1;collapsible=0;expand=0;recursiveResize=0;" parent="1" vertex="1">
            <mxGeometry x="215" y="-8223" width="240" height="98" as="geometry" />
          </mxCell>
        </UserObject>
        <mxCell id="onWr2Z88JV70dTOvfGDM-8" value="" style="rounded=0;whiteSpace=wrap;html=1;strokeColor=none;fillColor=#1192E8;aspect=fixed;" parent="ZDsick0VL7lr_p7ip1dG-4" vertex="1">
          <mxGeometry width="11" height="33" as="geometry" />
        </mxCell>
        <mxCell id="onWr2Z88JV70dTOvfGDM-48" value="" style="shape=image;aspect=fixed;image=data:image/svg+xml,PD94bWwgdmVyc2lvbj0iMS4wIiBlbmNvZGluZz0idXRmLTgiPz4KPCEtLSBHZW5lcmF0b3I6IEFkb2JlIElsbHVzdHJhdG9yIDI0LjMuMCwgU1ZHIEV4cG9ydCBQbHVnLUluIC4gU1ZHIFZlcnNpb246IDYuMDAgQnVpbGQgMCkgIC0tPgo8c3ZnIHZlcnNpb249IjEuMSIgaWQ9Imljb24iIHhtbG5zPSJodHRwOi8vd3d3LnczLm9yZy8yMDAwL3N2ZyIgeG1sbnM6eGxpbms9Imh0dHA6Ly93d3cudzMub3JnLzE5OTkveGxpbmsiIHg9IjBweCIgeT0iMHB4IgoJIHdpZHRoPSIzMnB4IiBoZWlnaHQ9IjMycHgiIHZpZXdCb3g9IjAgMCAzMiAzMiIgc3R5bGU9ImVuYWJsZS1iYWNrZ3JvdW5kOm5ldyAwIDAgMzIgMzI7IiB4bWw6c3BhY2U9InByZXNlcnZlIj4KPHN0eWxlIHR5cGU9InRleHQvY3NzIj4KCS5zdDB7ZmlsbDpub25lO30KPC9zdHlsZT4KPHBhdGggZD0iTTIyLjUsMTNjLTQuNywwLTguNSwzLjgtOC41LDguNXMzLjgsOC41LDguNSw4LjVzOC41LTMuOCw4LjUtOC41UzI3LjIsMTMsMjIuNSwxM3ogTTI5LDIxaC0zYzAtMi0wLjMtNC0wLjktNS41CglDMjcuMiwxNi41LDI4LjgsMTguNSwyOSwyMXogTTIyLjUsMjhDMjIuNSwyOCwyMi41LDI4LDIyLjUsMjhjLTAuNC0wLjItMS4zLTEuOC0xLjUtNWgyLjlDMjMuNywyNi4yLDIyLjksMjcuOCwyMi41LDI4eiBNMjEsMjEKCWMwLjEtMy44LDEuMS01LjgsMS40LTZjMCwwLDAsMCwwLDBjMC40LDAuMiwxLjQsMi4yLDEuNSw2SDIxeiBNMTkuOSwxNS41QzE5LjMsMTcsMTkuMSwxOSwxOSwyMWgtM0MxNi4yLDE4LjUsMTcuOCwxNi41LDE5LjksMTUuNXoKCSBNMTYuMiwyM0gxOWMwLjEsMS42LDAuNCwzLjIsMC45LDQuNUMxOC4xLDI2LjcsMTYuNywyNSwxNi4yLDIzeiBNMjUuMSwyNy41YzAuNS0xLjMsMC44LTIuOCwwLjktNC41aDIuOQoJQzI4LjMsMjUsMjYuOSwyNi43LDI1LjEsMjcuNXoiLz4KPHBhdGggZD0iTTI1LjgsMTBjLTAuOS00LjYtNS04LTkuOC04Yy00LjgsMC04LjksMy40LTkuOCw4LjFDMi43LDEwLjgsMCwxMy44LDAsMTcuNUMwLDIxLjYsMy40LDI1LDcuNSwyNUgxMXYtMkg3LjUKCWMtMywwLTUuNS0yLjUtNS41LTUuNWMwLTIuOSwyLjItNS4zLDUuMS01LjVMOCwxMkw4LDExLjFDOC41LDcuMSwxMS45LDQsMTYsNGMzLjcsMCw2LjgsMi42LDcuNyw2SDI1Ljh6Ii8+CjxyZWN0IGlkPSJfeDNDX1RyYW5zcGFyZW50X1JlY3RhbmdsZV94M0VfXzIzMl8iIHk9IjAiIGNsYXNzPSJzdDAiIHdpZHRoPSIzMiIgaGVpZ2h0PSIzMiIvPgo8L3N2Zz4K;" parent="ZDsick0VL7lr_p7ip1dG-4" vertex="1">
          <mxGeometry x="12" y="7" width="23" height="23" as="geometry" />
        </mxCell>
        <UserObject placeholders="1" label="&lt;b style=&#39;font-weight:600&#39;&gt;%Primary-Label%&lt;/b&gt;&lt;br&gt;%Secondary-Text%" Badge-Text="" Icon-Name="location" Primary-Label="Region" Secondary-Text="" id="ZDsick0VL7lr_p7ip1dG-5">
          <mxCell style="shape=mxgraph.ibm.base;ibmType=groupp;ibmLayout=expanded;strokeColor=#878d96;fillColor=default;html=1;metaEdit=1;whiteSpace=wrap;fontFamily=IBM Plex Sans;fontSize=14;image=;align=left;verticalAlign=middle;labelPosition=center;verticalLabelPosition=middle;spacing=0;spacingLeft=35;spacingRight=16;spacingTop=0;spacingBottom=58;container=1;collapsible=0;expand=0;recursiveResize=0;" parent="1" vertex="1">
            <mxGeometry x="215" y="-8113" width="240" height="98" as="geometry" />
          </mxCell>
        </UserObject>
        <mxCell id="onWr2Z88JV70dTOvfGDM-5" value="" style="rounded=0;whiteSpace=wrap;html=1;strokeColor=none;fillColor=#878d96;" parent="ZDsick0VL7lr_p7ip1dG-5" vertex="1">
          <mxGeometry width="11" height="33" as="geometry" />
        </mxCell>
        <mxCell id="onWr2Z88JV70dTOvfGDM-55" value="" style="shape=image;aspect=fixed;image=data:image/svg+xml,PHN2ZyBpZD0iaWNvbiIgeG1sbnM9Imh0dHA6Ly93d3cudzMub3JnLzIwMDAvc3ZnIiB3aWR0aD0iMzIiIGhlaWdodD0iMzIiIHZpZXdCb3g9IjAgMCAzMiAzMiI+CiAgPGRlZnM+CiAgICA8c3R5bGU+CiAgICAgIC5jbHMtMSB7CiAgICAgICAgZmlsbDogbm9uZTsKICAgICAgfQogICAgPC9zdHlsZT4KICA8L2RlZnM+CiAgPHRpdGxlPmxvY2F0aW9uPC90aXRsZT4KICA8cGF0aCBkPSJNMTYsMThhNSw1LDAsMSwxLDUtNUE1LjAwNTcsNS4wMDU3LDAsMCwxLDE2LDE4Wm0wLThhMywzLDAsMSwwLDMsM0EzLjAwMzMsMy4wMDMzLDAsMCwwLDE2LDEwWiIvPgogIDxwYXRoIGQ9Ik0xNiwzMCw3LjU2NDUsMjAuMDUxM2MtLjA0NzktLjA1NzEtLjM0ODItLjQ1MTUtLjM0ODItLjQ1MTVBMTAuODg4OCwxMC44ODg4LDAsMCwxLDUsMTNhMTEsMTEsMCwwLDEsMjIsMCwxMC44ODQ0LDEwLjg4NDQsMCwwLDEtMi4yMTQ4LDYuNTk3M2wtLjAwMTUuMDAyNXMtLjMuMzk0NC0uMzQ0Ny40NDc0Wk04LjgxMjUsMTguMzk1Yy4wMDEuMDAwNy4yMzM0LjMwODIuMjg2Ni4zNzQ0TDE2LDI2LjkwNzlsNi45MS04LjE1Yy4wNDM5LS4wNTUyLjI3ODMtLjM2NDkuMjc4OC0uMzY1N0E4LjkwMSw4LjkwMSwwLDAsMCwyNSwxMyw5LDksMCwxLDAsNywxM2E4LjkwNTQsOC45MDU0LDAsMCwwLDEuODEyNSw1LjM5NVoiLz4KICA8cmVjdCBpZD0iX1RyYW5zcGFyZW50X1JlY3RhbmdsZV8iIGRhdGEtbmFtZT0iJmx0O1RyYW5zcGFyZW50IFJlY3RhbmdsZSZndDsiIGNsYXNzPSJjbHMtMSIgd2lkdGg9IjMyIiBoZWlnaHQ9IjMyIiB0cmFuc2Zvcm09InRyYW5zbGF0ZSgwIDMyKSByb3RhdGUoLTkwKSIvPgo8L3N2Zz4K;" parent="ZDsick0VL7lr_p7ip1dG-5" vertex="1">
          <mxGeometry x="11" y="5.5" width="25" height="25" as="geometry" />
        </mxCell>
        <UserObject placeholders="1" label="&lt;b style=&#39;font-weight:600&#39;&gt;%Primary-Label%&lt;/b&gt;&lt;br&gt;%Secondary-Text%" Badge-Text="" Icon-Name="instance--virtual" Primary-Label="IBM Virtual Server" Secondary-Text="" id="ZDsick0VL7lr_p7ip1dG-6">
          <mxCell style="shape=mxgraph.ibm.base;ibmType=groupp;ibmLayout=expanded;strokeColor=#198038;fillColor=default;html=1;metaEdit=1;whiteSpace=wrap;fontFamily=IBM Plex Sans;fontSize=14;image=;align=left;verticalAlign=middle;labelPosition=center;verticalLabelPosition=middle;spacing=0;spacingLeft=35;spacingRight=16;spacingTop=0;spacingBottom=58;container=1;collapsible=0;expand=0;recursiveResize=0;" parent="1" vertex="1">
            <mxGeometry x="464" y="-7893" width="240" height="98" as="geometry" />
          </mxCell>
        </UserObject>
        <mxCell id="onWr2Z88JV70dTOvfGDM-18" value="" style="rounded=0;whiteSpace=wrap;html=1;strokeColor=none;fillColor=#198038;" parent="ZDsick0VL7lr_p7ip1dG-6" vertex="1">
          <mxGeometry width="11" height="33" as="geometry" />
        </mxCell>
        <mxCell id="onWr2Z88JV70dTOvfGDM-49" value="" style="shape=image;aspect=fixed;image=data:image/svg+xml,PD94bWwgdmVyc2lvbj0iMS4wIiBlbmNvZGluZz0iVVRGLTgiPz4KPHN2ZyBpZD0iaWNvbiIgeG1sbnM9Imh0dHA6Ly93d3cudzMub3JnLzIwMDAvc3ZnIiB3aWR0aD0iMzIiIGhlaWdodD0iMzIiIHZpZXdCb3g9IjAgMCAzMiAzMiI+CiAgPGRlZnM+CiAgICA8c3R5bGU+CiAgICAgIC5jbHMtMSB7CiAgICAgICAgZmlsbDogbm9uZTsKICAgICAgfQogICAgPC9zdHlsZT4KICA8L2RlZnM+CiAgPGNpcmNsZSBjeD0iOSIgY3k9IjI2IiByPSIxIi8+CiAgPHBhdGggZD0ibTI2LDIyaC01djJoNXY0SDZ2LTRoOWMxLjEsMCwyLS45LDItMmgwdi05LjE3bDIuNTksMi41OSwxLjQxLTEuNDItNS01LTUsNSwxLjQxLDEuNDEsMi41OS0yLjU4djkuMTdINmMtMS4xLDAtMiwuOS0yLDJ2NGMwLDEuMS45LDIsMiwyaDIwYzEuMSwwLDItLjksMi0ydi00YzAtMS4xLS45LTItMi0yWiIvPgogIDxwYXRoIGQ9Im0yMy43NSw4LjA1Yy0uODgtMy41LTQuMDgtNi4wNS03Ljc1LTYuMDVzLTYuODcsMi41NS03Ljc1LDYuMDVjLTIuOTYuMzctNS4yNSwyLjktNS4yNSw1Ljk1LDAsMy4zMSwyLjY5LDYsNiw2aDJ2LTJoLTJjLTIuMjEsMC00LTEuNzktNC00LDAtMi4xOSwxLjc3LTMuOTcsMy45NS00bC45OS4wMi4xMi0uODhjLjQzLTIuOTMsMi45OC01LjE0LDUuOTQtNS4xNHM1LjUxLDIuMjEsNS45Myw1LjE1bC4xMi44OC44OC0uMDIuMTMtLjAxYzIuMTguMDMsMy45NCwxLjgxLDMuOTQsNCwwLDIuMjEtMS43OSw0LTQsNGgtMnYyaDJjMy4zMSwwLDYtMi42OSw2LTYsMC0zLjA1LTIuMjktNS41OC01LjI1LTUuOTVaIi8+CiAgPGcgaWQ9Il9UcmFuc3BhcmVudF9SZWN0YW5nbGVfIiBkYXRhLW5hbWU9IiZhbXA7bHQ7VHJhbnNwYXJlbnQgUmVjdGFuZ2xlJmFtcDtndDsiPgogICAgPHJlY3QgY2xhc3M9ImNscy0xIiB3aWR0aD0iMzIiIGhlaWdodD0iMzIiLz4KICA8L2c+Cjwvc3ZnPg==;" parent="ZDsick0VL7lr_p7ip1dG-6" vertex="1">
          <mxGeometry x="10" y="4.5" width="25" height="25" as="geometry" />
        </mxCell>
        <UserObject placeholders="1" label="&lt;b style=&#39;font-weight:600&#39;&gt;%Primary-Label%&lt;/b&gt;&lt;br&gt;%Secondary-Text%" Badge-Text="" Icon-Name="ibm-cloud--subnets" Primary-Label="VPC Endpoints" Secondary-Text="" id="ZDsick0VL7lr_p7ip1dG-7">
          <mxCell style="shape=mxgraph.ibm.base;ibmType=groupp;ibmLayout=expanded;strokeColor=#1192e8;fillColor=default;html=1;metaEdit=1;whiteSpace=wrap;fontFamily=IBM Plex Sans;fontSize=14;image=;align=left;verticalAlign=middle;labelPosition=center;verticalLabelPosition=middle;spacing=0;spacingLeft=35;spacingRight=16;spacingTop=0;spacingBottom=58;container=1;collapsible=0;expand=0;recursiveResize=0;" parent="1" vertex="1">
            <mxGeometry x="960" y="-7893" width="240" height="98" as="geometry" />
          </mxCell>
        </UserObject>
        <mxCell id="onWr2Z88JV70dTOvfGDM-12" value="" style="rounded=0;whiteSpace=wrap;html=1;strokeColor=none;fillColor=#1192E8;aspect=fixed;" parent="ZDsick0VL7lr_p7ip1dG-7" vertex="1">
          <mxGeometry width="11" height="33" as="geometry" />
        </mxCell>
        <mxCell id="onWr2Z88JV70dTOvfGDM-40" value="" style="shape=image;aspect=fixed;image=data:image/svg+xml,PHN2ZyBpZD0iaWNvbiIgeG1sbnM9Imh0dHA6Ly93d3cudzMub3JnLzIwMDAvc3ZnIiB3aWR0aD0iMzIiIGhlaWdodD0iMzIiIHZpZXdCb3g9IjAgMCAzMiAzMiI+CiAgPGRlZnM+CiAgICA8c3R5bGU+CiAgICAgIC5jbHMtMSB7CiAgICAgICAgZmlsbDogbm9uZTsKICAgICAgfQogICAgPC9zdHlsZT4KICA8L2RlZnM+CiAgPHBhdGggaWQ9Il9QYXRoXyIgZGF0YS1uYW1lPSImbHQ7UGF0aCZndDsiIGQ9Ik0yMCwyN0g3YTIuMDA1OSwyLjAwNTksMCwwLDEtMi0yVjEySDdWMjVIMjBaIiB0cmFuc2Zvcm09InRyYW5zbGF0ZSgwIDApIi8+CiAgPHBhdGggaWQ9Il9Db21wb3VuZF9QYXRoXyIgZGF0YS1uYW1lPSImbHQ7Q29tcG91bmQgUGF0aCZndDsiIGQ9Ik0yMy40LDIybC00LTRhMy42MDU3LDMuNjA1NywwLDAsMCwuNi0yLDQuMDExOCw0LjAxMTgsMCwwLDAtNC00LDMuNjA1NywzLjYwNTcsMCwwLDAtMiwuNmwtNC00VjJIMnY4SDguNmw0LDRhMy42MDU3LDMuNjA1NywwLDAsMC0uNiwyLDQuMDExOCw0LjAxMTgsMCwwLDAsNCw0LDMuNjA1NywzLjYwNTcsMCwwLDAsMi0uNmw0LDRWMzBoOFYyMlpNOCw4SDRWNEg4Wm04LDEwYTIsMiwwLDEsMSwyLTJBMi4wMDU5LDIuMDA1OSwwLDAsMSwxNiwxOFpNMjgsMjhIMjRWMjRoNFoiIHRyYW5zZm9ybT0idHJhbnNsYXRlKDAgMCkiLz4KICA8cGF0aCBpZD0iX1BhdGhfMiIgZGF0YS1uYW1lPSImbHQ7UGF0aCZndDsiIGQ9Ik0yNSwyMGgyVjdhMi4wMDU5LDIuMDA1OSwwLDAsMC0yLTJIMTJWN0gyNVoiIHRyYW5zZm9ybT0idHJhbnNsYXRlKDAgMCkiLz4KICA8cmVjdCBpZD0iX1RyYW5zcGFyZW50X1JlY3RhbmdsZV8iIGRhdGEtbmFtZT0iJmx0O1RyYW5zcGFyZW50IFJlY3RhbmdsZSZndDsiIGNsYXNzPSJjbHMtMSIgd2lkdGg9IjMyIiBoZWlnaHQ9IjMyIi8+Cjwvc3ZnPgo=;" parent="ZDsick0VL7lr_p7ip1dG-7" vertex="1">
          <mxGeometry x="13" y="8.5" width="20" height="20" as="geometry" />
        </mxCell>
        <UserObject placeholders="1" label="&lt;b style=&#39;font-weight:600&#39;&gt;%Primary-Label%&lt;/b&gt;&lt;br&gt;%Secondary-Text%" Badge-Text="" Icon-Name="data--center" Primary-Label="Zone" Secondary-Text="" id="ZDsick0VL7lr_p7ip1dG-8">
          <mxCell style="shape=mxgraph.ibm.base;ibmType=groupp;ibmLayout=expanded;strokeColor=#878d96;fillColor=default;html=1;metaEdit=1;whiteSpace=wrap;fontFamily=IBM Plex Sans;fontSize=14;image=;align=left;verticalAlign=middle;labelPosition=center;verticalLabelPosition=middle;spacing=0;spacingLeft=35;spacingRight=16;spacingTop=0;spacingBottom=58;container=1;collapsible=0;expand=0;recursiveResize=0;" parent="1" vertex="1">
            <mxGeometry x="464" y="-8113" width="240" height="98" as="geometry" />
          </mxCell>
        </UserObject>
        <mxCell id="onWr2Z88JV70dTOvfGDM-22" value="" style="rounded=0;whiteSpace=wrap;html=1;strokeColor=none;fillColor=#878d96;" parent="ZDsick0VL7lr_p7ip1dG-8" vertex="1">
          <mxGeometry width="11" height="33" as="geometry" />
        </mxCell>
        <mxCell id="onWr2Z88JV70dTOvfGDM-53" value="" style="shape=image;aspect=fixed;image=data:image/svg+xml,PHN2ZyBpZD0iaWNvbiIgeG1sbnM9Imh0dHA6Ly93d3cudzMub3JnLzIwMDAvc3ZnIiB3aWR0aD0iMzIiIGhlaWdodD0iMzIiIHZpZXdCb3g9IjAgMCAzMiAzMiI+CiAgPGRlZnM+CiAgICA8c3R5bGU+CiAgICAgIC5jbHMtMSB7CiAgICAgICAgZmlsbDogbm9uZTsKICAgICAgfQogICAgPC9zdHlsZT4KICA8L2RlZnM+CiAgPHBhdGggZD0iTTI4LDEwSDIzVjZhMi4wMDIzLDIuMDAyMywwLDAsMC0yLTJIMTFBMi4wMDIzLDIuMDAyMywwLDAsMCw5LDZ2NEg0YTIuMDAyMywyLjAwMjMsMCwwLDAtMiwyVjI4YTIuMDAyMywyLjAwMjMsMCwwLDAsMiwySDI4YTIuMDAyMywyLjAwMjMsMCwwLDAsMi0yVjEyQTIuMDAyMywyLjAwMjMsMCwwLDAsMjgsMTBaTTQsMjhWMTJIOXYySDd2Mkg5djJIN3YySDl2Mkg3djJIOXY0Wm0xNywwSDExVjZIMjFabTcsMEgyM1YyNGgyVjIySDIzVjIwaDJWMThIMjNWMTZoMlYxNEgyM1YxMmg1WiIgdHJhbnNmb3JtPSJ0cmFuc2xhdGUoMCAwKSIvPgogIDxyZWN0IHg9IjE0IiB5PSI4IiB3aWR0aD0iNCIgaGVpZ2h0PSIyIi8+CiAgPHJlY3QgeD0iMTQiIHk9IjEyIiB3aWR0aD0iNCIgaGVpZ2h0PSIyIi8+CiAgPHJlY3QgeD0iMTQiIHk9IjE2IiB3aWR0aD0iNCIgaGVpZ2h0PSIyIi8+CiAgPHJlY3QgaWQ9Il9UcmFuc3BhcmVudF9SZWN0YW5nbGVfIiBkYXRhLW5hbWU9IiZsdDtUcmFuc3BhcmVudCBSZWN0YW5nbGUmZ3Q7IiBjbGFzcz0iY2xzLTEiIHdpZHRoPSIzMiIgaGVpZ2h0PSIzMiIvPgo8L3N2Zz4K;" parent="ZDsick0VL7lr_p7ip1dG-8" vertex="1">
          <mxGeometry x="13" y="5.5" width="22" height="22" as="geometry" />
        </mxCell>
        <UserObject placeholders="1" label="&lt;b style=&#39;font-weight:600&#39;&gt;%Primary-Label%&lt;/b&gt;&lt;br&gt;%Secondary-Text%" Badge-Text="" Icon-Name="cloud-foundry--1" Primary-Label="Cloud Foundry" Secondary-Text="" id="ZDsick0VL7lr_p7ip1dG-9">
          <mxCell style="shape=mxgraph.ibm.base;ibmType=groupp;ibmLayout=expanded;strokeColor=#1192e8;fillColor=default;html=1;metaEdit=1;whiteSpace=wrap;fontFamily=IBM Plex Sans;fontSize=14;image=;align=left;verticalAlign=middle;labelPosition=center;verticalLabelPosition=middle;spacing=0;spacingLeft=35;spacingRight=16;spacingTop=0;spacingBottom=58;container=1;collapsible=0;expand=0;recursiveResize=0;" parent="1" vertex="1">
            <mxGeometry x="1210" y="-8333" width="240" height="98" as="geometry" />
          </mxCell>
        </UserObject>
        <mxCell id="onWr2Z88JV70dTOvfGDM-15" value="" style="rounded=0;whiteSpace=wrap;html=1;strokeColor=none;fillColor=#1192E8;aspect=fixed;" parent="ZDsick0VL7lr_p7ip1dG-9" vertex="1">
          <mxGeometry width="11" height="33" as="geometry" />
        </mxCell>
        <mxCell id="onWr2Z88JV70dTOvfGDM-44" value="" style="shape=image;aspect=fixed;image=data:image/svg+xml,PHN2ZyBpZD0iaWNvbiIgeG1sbnM9Imh0dHA6Ly93d3cudzMub3JnLzIwMDAvc3ZnIiB2aWV3Qm94PSIwIDAgMzIgMzIiPjxkZWZzPjxzdHlsZT4uY2xzLTF7ZmlsbDpub25lO308L3N0eWxlPjwvZGVmcz48dGl0bGU+Y2xvdWQtZm91bmRyeS0tMTwvdGl0bGU+PHBhdGggZD0iTTE2LDdoMGE3LjY2LDcuNjYsMCwwLDEsMS41MS4xNSw4LDgsMCwwLDEsNi4zNSw2LjM0bC4yNiwxLjM1LDEuMzUuMjRhNS41LDUuNSwwLDAsMS0xLDEwLjkySDcuNWE1LjUsNS41LDAsMCwxLTEtMTAuOTJsMS4zNC0uMjQuMjYtMS4zNUE4LDgsMCwwLDEsMTYsN20wLTJhMTAsMTAsMCwwLDAtOS44Myw4LjEyQTcuNSw3LjUsMCwwLDAsNy40OSwyOGgxN2E3LjUsNy41LDAsMCwwLDEuMzItMTQuODgsMTAsMTAsMCwwLDAtNy45NC03Ljk0QTEwLjI3LDEwLjI3LDAsMCwwLDE2LDVaIi8+PHBhdGggZD0iTTE0LDI0SDExYTIsMiwwLDAsMS0yLTJWMTlhMiwyLDAsMCwxLDItMmgzdjJIMTF2M2gzWiIvPjxwYXRoIGQ9Ik0yMSwxNVYxM0gxOWEyLDIsMCwwLDAtMiwydjJIMTZ2MmgxdjVoMlYxOWgyVjE3SDE5VjE1WiIvPjxyZWN0IGlkPSJfVHJhbnNwYXJlbnRfUmVjdGFuZ2xlXyIgZGF0YS1uYW1lPSImbHQ7VHJhbnNwYXJlbnQgUmVjdGFuZ2xlJmd0OyIgY2xhc3M9ImNscy0xIiB3aWR0aD0iMzIiIGhlaWdodD0iMzIiLz48L3N2Zz4=;" parent="ZDsick0VL7lr_p7ip1dG-9" vertex="1">
          <mxGeometry x="13" y="8" width="19" height="19" as="geometry" />
        </mxCell>
        <UserObject placeholders="1" label="&lt;b style=&#39;font-weight:600&#39;&gt;%Primary-Label%&lt;/b&gt;&lt;br&gt;%Secondary-Text%" Badge-Text="" Icon-Name="cloud-services" Primary-Label="Cloud Services" Secondary-Text="" id="ZDsick0VL7lr_p7ip1dG-10">
          <mxCell style="shape=mxgraph.ibm.base;ibmType=groupl;ibmLayout=expanded;strokeColor=#1192e8;fillColor=default;html=1;metaEdit=1;whiteSpace=wrap;fontFamily=IBM Plex Sans;fontSize=14;image=;align=left;verticalAlign=middle;labelPosition=center;verticalLabelPosition=middle;spacing=0;spacingLeft=35;spacingRight=16;spacingTop=0;spacingBottom=58;container=1;collapsible=0;expand=0;recursiveResize=0;" parent="1" vertex="1">
            <mxGeometry x="960" y="-8333" width="240" height="98" as="geometry" />
          </mxCell>
        </UserObject>
        <mxCell id="onWr2Z88JV70dTOvfGDM-14" value="" style="rounded=0;whiteSpace=wrap;html=1;strokeColor=none;fillColor=#1192E8;aspect=fixed;" parent="ZDsick0VL7lr_p7ip1dG-10" vertex="1">
          <mxGeometry width="11" height="33" as="geometry" />
        </mxCell>
        <mxCell id="onWr2Z88JV70dTOvfGDM-51" value="" style="shape=image;aspect=fixed;image=data:image/svg+xml,PHN2ZyBpZD0iaWNvbiIgeG1sbnM9Imh0dHA6Ly93d3cudzMub3JnLzIwMDAvc3ZnIiB3aWR0aD0iMzIiIGhlaWdodD0iMzIiIHZpZXdCb3g9IjAgMCAzMiAzMiI+CiAgPGRlZnM+CiAgICA8c3R5bGU+CiAgICAgIC5jbHMtMSB7CiAgICAgICAgZmlsbDogbm9uZTsKICAgICAgfQogICAgPC9zdHlsZT4KICA8L2RlZnM+CiAgPHBhdGggZD0iTTI1LjgyMTgsMTAuMTI0YTkuOTk5MSw5Ljk5OTEsMCwwLDAtMTkuNjQzNSwwQTcuNDk2NCw3LjQ5NjQsMCwwLDAsNy41LDI1SDhWMjNINy41YTUuNDk2MSw1LjQ5NjEsMCwwLDEtLjM3NjktMTAuOTc5NWwuODM2NC0uMDU3MS4wOS0uODMzNWE3Ljk5NzksNy45OTc5LDAsMCwxLDE1LjkwMTMsMGwuMDkuODMzNS44MzY0LjA1NzFBNS40OTYxLDUuNDk2MSwwLDAsMSwyNC41LDIzSDI0djJoLjVhNy40OTY0LDcuNDk2NCwwLDAsMCwxLjMyMTgtMTQuODc2WiIgdHJhbnNmb3JtPSJ0cmFuc2xhdGUoMCAwKSIvPgogIDxwYXRoIGQ9Ik0yMywyMlYyMEgyMC44OTg5YTQuOTY3OCw0Ljk2NzgsMCwwLDAtLjczMTktMS43NTI5bDEuNDktMS40OS0xLjQxNC0xLjQxNC0xLjQ5LDEuNDlBNC45Njc4LDQuOTY3OCwwLDAsMCwxNywxNi4xMDExVjE0SDE1djIuMTAxMWE0Ljk2NzgsNC45Njc4LDAsMCwwLTEuNzUyOS43MzE5bC0xLjQ5LTEuNDktMS40MTQsMS40MTQsMS40OSwxLjQ5QTQuOTY3OCw0Ljk2NzgsMCwwLDAsMTEuMTAxMSwyMEg5djJoMi4xMDExYTQuOTY3OCw0Ljk2NzgsMCwwLDAsLjczMTksMS43NTI5bC0xLjQ5LDEuNDksMS40MTQsMS40MTQsMS40OS0xLjQ5QTQuOTY3OCw0Ljk2NzgsMCwwLDAsMTUsMjUuODk4OVYyOGgyVjI1Ljg5ODlhNC45Njc4LDQuOTY3OCwwLDAsMCwxLjc1MjktLjczMTlsMS40OSwxLjQ5LDEuNDE0LTEuNDE0LTEuNDktMS40OUE0Ljk2NzgsNC45Njc4LDAsMCwwLDIwLjg5ODksMjJabS03LDJhMywzLDAsMSwxLDMtM0EzLjAwMzMsMy4wMDMzLDAsMCwxLDE2LDI0WiIgdHJhbnNmb3JtPSJ0cmFuc2xhdGUoMCAwKSIvPgogIDxyZWN0IGlkPSJfVHJhbnNwYXJlbnRfUmVjdGFuZ2xlXyIgZGF0YS1uYW1lPSImbHQ7VHJhbnNwYXJlbnQgUmVjdGFuZ2xlJmd0OyIgY2xhc3M9ImNscy0xIiB3aWR0aD0iMzIiIGhlaWdodD0iMzIiLz4KPC9zdmc+Cg==;" parent="ZDsick0VL7lr_p7ip1dG-10" vertex="1">
          <mxGeometry x="13" y="9" width="21" height="21" as="geometry" />
        </mxCell>
        <UserObject placeholders="1" label="&lt;b style=&#39;font-weight:600&#39;&gt;%Primary-Label%&lt;/b&gt;&lt;br&gt;%Secondary-Text%" Badge-Text="" Icon-Name="locked" Primary-Label="Subnet : ACL" Secondary-Text="" id="ZDsick0VL7lr_p7ip1dG-11">
          <mxCell style="shape=mxgraph.ibm.base;ibmType=groupl;ibmLayout=expanded;strokeColor=#1192e8;fillColor=default;html=1;metaEdit=1;whiteSpace=wrap;fontFamily=IBM Plex Sans;fontSize=14;image=;align=left;verticalAlign=middle;labelPosition=center;verticalLabelPosition=middle;spacing=0;spacingLeft=35;spacingRight=16;spacingTop=0;spacingBottom=58;container=1;collapsible=0;expand=0;recursiveResize=0;" parent="1" vertex="1">
            <mxGeometry x="464" y="-8003" width="240" height="98" as="geometry" />
          </mxCell>
        </UserObject>
        <mxCell id="onWr2Z88JV70dTOvfGDM-10" value="" style="rounded=0;whiteSpace=wrap;html=1;strokeColor=none;fillColor=#1192E8;aspect=fixed;" parent="ZDsick0VL7lr_p7ip1dG-11" vertex="1">
          <mxGeometry width="11" height="33" as="geometry" />
        </mxCell>
        <mxCell id="onWr2Z88JV70dTOvfGDM-50" value="" style="shape=image;aspect=fixed;image=data:image/svg+xml,PHN2ZyBpZD0iaWNvbiIgeG1sbnM9Imh0dHA6Ly93d3cudzMub3JnLzIwMDAvc3ZnIiB3aWR0aD0iMzIiIGhlaWdodD0iMzIiIHZpZXdCb3g9IjAgMCAzMiAzMiI+CiAgPGRlZnM+CiAgICA8c3R5bGU+CiAgICAgIC5jbHMtMSB7CiAgICAgICAgZmlsbDogbm9uZTsKICAgICAgfQogICAgPC9zdHlsZT4KICA8L2RlZnM+CiAgPHJlY3QgeD0iMTgiIHk9IjE0IiB3aWR0aD0iMTIiIGhlaWdodD0iMiIvPgogIDxyZWN0IHg9IjE4IiB5PSIxOSIgd2lkdGg9IjgiIGhlaWdodD0iMiIvPgogIDxyZWN0IHg9IjE4IiB5PSI5IiB3aWR0aD0iMTIiIGhlaWdodD0iMiIvPgogIDxwYXRoIGQ9Ik0yMiwyNHY0SDZWMTZoOFYxNEgxMFY4YTQuMDAwOCw0LjAwMDgsMCwwLDEsNy42Njc1LTEuNkwxOS41MDA1LDUuNkE2LjAwMSw2LjAwMSwwLDAsMCw4LDh2Nkg2YTIuMDAyMywyLjAwMjMsMCwwLDAtMiwyVjI4YTIuMDAyMywyLjAwMjMsMCwwLDAsMiwySDIyYTIuMDAyMywyLjAwMjMsMCwwLDAsMi0yVjI0WiIgdHJhbnNmb3JtPSJ0cmFuc2xhdGUoMCAwKSIvPgogIDxyZWN0IGlkPSJfVHJhbnNwYXJlbnRfUmVjdGFuZ2xlXyIgZGF0YS1uYW1lPSImbHQ7VHJhbnNwYXJlbnQgUmVjdGFuZ2xlJmd0OyIgY2xhc3M9ImNscy0xIiB3aWR0aD0iMzIiIGhlaWdodD0iMzIiLz4KPC9zdmc+Cg==;" parent="ZDsick0VL7lr_p7ip1dG-11" vertex="1">
          <mxGeometry x="11" y="7.5" width="23" height="23" as="geometry" />
        </mxCell>
        <UserObject placeholders="1" label="&lt;b style=&#39;font-weight:600&#39;&gt;%Primary-Label%&lt;/b&gt;&lt;br&gt;%Secondary-Text%" Badge-Text="" Icon-Name="network--overlay" Primary-Label="Overlay Network" Secondary-Text="" id="ZDsick0VL7lr_p7ip1dG-12">
          <mxCell style="shape=mxgraph.ibm.base;ibmType=groupp;ibmLayout=expanded;strokeColor=#1192e8;fillColor=default;html=1;metaEdit=1;whiteSpace=wrap;fontFamily=IBM Plex Sans;fontSize=14;image=;align=left;verticalAlign=middle;labelPosition=center;verticalLabelPosition=middle;spacing=0;spacingLeft=35;spacingRight=16;spacingTop=0;spacingBottom=58;container=1;collapsible=0;expand=0;recursiveResize=0;" parent="1" vertex="1">
            <mxGeometry x="960" y="-8003" width="240" height="98" as="geometry" />
          </mxCell>
        </UserObject>
        <mxCell id="onWr2Z88JV70dTOvfGDM-13" value="" style="rounded=0;whiteSpace=wrap;html=1;strokeColor=none;fillColor=#1192E8;aspect=fixed;" parent="ZDsick0VL7lr_p7ip1dG-12" vertex="1">
          <mxGeometry width="11" height="33" as="geometry" />
        </mxCell>
        <mxCell id="onWr2Z88JV70dTOvfGDM-39" value="" style="shape=image;aspect=fixed;image=data:image/svg+xml,PHN2ZyBpZD0iaWNvbiIgeG1sbnM9Imh0dHA6Ly93d3cudzMub3JnLzIwMDAvc3ZnIiB3aWR0aD0iMzIiIGhlaWdodD0iMzIiIHZpZXdCb3g9IjAgMCAzMiAzMiI+CiAgPGRlZnM+CiAgICA8c3R5bGU+CiAgICAgIC5jbHMtMSB7CiAgICAgICAgZmlsbDogbm9uZTsKICAgICAgfQogICAgPC9zdHlsZT4KICA8L2RlZnM+CiAgPHBvbHlnb24gcG9pbnRzPSIyMiAyMyAxMy44MyAyMyAxNi40MSAyMC40MSAxNSAxOSAxMCAyNCAxNSAyOSAxNi40MSAyNy41OSAxMy44MyAyNSAyMiAyNSAyMiAyMyIvPgogIDxwb2x5Z29uIHBvaW50cz0iMTEgMTMgMTkuMTcgMTMgMTYuNTkgMTAuNDEgMTggOSAyMyAxNCAxOCAxOSAxNi41OSAxNy41OSAxOS4xNyAxNSAxMSAxNSAxMSAxMyIvPgogIDxwYXRoIGQ9Ik0yNC41LDI1SDI0VjIzaC41YTUuNDk2MSw1LjQ5NjEsMCwwLDAsLjM3Ny0xMC45Nzk1bC0uODM2NS0uMDU2Ni0uMDktLjgzNGE3Ljk5NzksNy45OTc5LDAsMCwwLTE1LjkwMTQsMGwtLjA5LjgzNC0uODM2NS4wNTY2QTUuNDk2MSw1LjQ5NjEsMCwwLDAsNy41LDIzSDh2Mkg3LjVBNy40OTY0LDcuNDk2NCwwLDAsMSw2LjE3ODIsMTAuMTI0YTkuOTk5Miw5Ljk5OTIsMCwwLDEsMTkuNjQzNiwwQTcuNDk2NCw3LjQ5NjQsMCwwLDEsMjQuNSwyNVoiIHRyYW5zZm9ybT0idHJhbnNsYXRlKDAgMCkiLz4KICA8cmVjdCBpZD0iX1RyYW5zcGFyZW50X1JlY3RhbmdsZV8iIGRhdGEtbmFtZT0iJmx0O1RyYW5zcGFyZW50IFJlY3RhbmdsZSZndDsiIGNsYXNzPSJjbHMtMSIgd2lkdGg9IjMyIiBoZWlnaHQ9IjMyIi8+Cjwvc3ZnPgo=;" parent="ZDsick0VL7lr_p7ip1dG-12" vertex="1">
          <mxGeometry x="12" y="7.5" width="22" height="22" as="geometry" />
        </mxCell>
        <UserObject placeholders="1" label="&lt;b style=&#39;font-weight:600&#39;&gt;%Primary-Label%&lt;/b&gt;&lt;br&gt;%Secondary-Text%" Badge-Text="" Icon-Name="vlan" Primary-Label="VLAN" Secondary-Text="" id="ZDsick0VL7lr_p7ip1dG-14">
          <mxCell style="shape=mxgraph.ibm.base;ibmType=groupl;ibmLayout=expanded;strokeColor=#1192e8;fillColor=default;html=1;metaEdit=1;whiteSpace=wrap;fontFamily=IBM Plex Sans;fontSize=14;image=;align=left;verticalAlign=middle;labelPosition=center;verticalLabelPosition=middle;spacing=0;spacingLeft=35;spacingRight=16;spacingTop=0;spacingBottom=58;container=1;collapsible=0;expand=0;recursiveResize=0;" parent="1" vertex="1">
            <mxGeometry x="713" y="-7893" width="240" height="98" as="geometry" />
          </mxCell>
        </UserObject>
        <mxCell id="onWr2Z88JV70dTOvfGDM-11" value="" style="rounded=0;whiteSpace=wrap;html=1;strokeColor=none;fillColor=#1192E8;aspect=fixed;" parent="ZDsick0VL7lr_p7ip1dG-14" vertex="1">
          <mxGeometry width="11" height="33" as="geometry" />
        </mxCell>
        <mxCell id="onWr2Z88JV70dTOvfGDM-45" value="" style="shape=image;aspect=fixed;image=data:image/svg+xml,PHN2ZyBpZD0iaWNvbiIgeG1sbnM9Imh0dHA6Ly93d3cudzMub3JnLzIwMDAvc3ZnIiB3aWR0aD0iMzIiIGhlaWdodD0iMzIiIHZpZXdCb3g9IjAgMCAzMiAzMiI+CiAgPGRlZnM+CiAgICA8c3R5bGU+CiAgICAgIC5jbHMtMSB7CiAgICAgICAgZmlsbDogbm9uZTsKICAgICAgfQogICAgPC9zdHlsZT4KICA8L2RlZnM+CiAgPHBhdGggZD0iTTMwLDE3VjE1SDE3VjExaDJhMi4wMDIzLDIuMDAyMywwLDAsMCwyLTJWNGEyLjAwMjMsMi4wMDIzLDAsMCwwLTItMkgxM2EyLjAwMjMsMi4wMDIzLDAsMCwwLTIsMlY5YTIuMDAyMywyLjAwMjMsMCwwLDAsMiwyaDJ2NEgydjJIOHY0SDZhMi4wMDIzLDIuMDAyMywwLDAsMC0yLDJ2NWEyLjAwMjMsMi4wMDIzLDAsMCwwLDIsMmg2YTIuMDAyMywyLjAwMjMsMCwwLDAsMi0yVjIzYTIuMDAyMywyLjAwMjMsMCwwLDAtMi0ySDEwVjE3SDIydjRIMjBhMi4wMDIzLDIuMDAyMywwLDAsMC0yLDJ2NWEyLjAwMjMsMi4wMDIzLDAsMCwwLDIsMmg2YTIuMDAyMywyLjAwMjMsMCwwLDAsMi0yVjIzYTIuMDAyMywyLjAwMjMsMCwwLDAtMi0ySDI0VjE3Wk0xMyw0aDZWOUgxM1pNMTIsMjhINlYyM2g2Wm0xNCwwSDIwVjIzaDZaIiB0cmFuc2Zvcm09InRyYW5zbGF0ZSgwIDApIi8+CiAgPHJlY3QgaWQ9Il9UcmFuc3BhcmVudF9SZWN0YW5nbGVfIiBkYXRhLW5hbWU9IiZsdDtUcmFuc3BhcmVudCBSZWN0YW5nbGUmZ3Q7IiBjbGFzcz0iY2xzLTEiIHdpZHRoPSIzMiIgaGVpZ2h0PSIzMiIvPgo8L3N2Zz4K;" parent="ZDsick0VL7lr_p7ip1dG-14" vertex="1">
          <mxGeometry x="13" y="6.5" width="21" height="21" as="geometry" />
        </mxCell>
        <UserObject placeholders="1" label="&lt;b style=&#39;font-weight:600&#39;&gt;%Primary-Label%&lt;/b&gt;&lt;br&gt;%Secondary-Text%" Badge-Text="" Icon-Name="virtual-private-cloud" Primary-Label="VPC" Secondary-Text="" id="ZDsick0VL7lr_p7ip1dG-15">
          <mxCell style="shape=mxgraph.ibm.base;ibmType=groupl;ibmLayout=expanded;strokeColor=#1192e8;fillColor=default;html=1;metaEdit=1;whiteSpace=wrap;fontFamily=IBM Plex Sans;fontSize=14;image=;align=left;verticalAlign=middle;labelPosition=center;verticalLabelPosition=middle;spacing=0;spacingLeft=35;spacingRight=16;spacingTop=0;spacingBottom=58;container=1;collapsible=0;expand=0;recursiveResize=0;" parent="1" vertex="1">
            <mxGeometry x="215" y="-8003" width="240" height="98" as="geometry" />
          </mxCell>
        </UserObject>
        <mxCell id="onWr2Z88JV70dTOvfGDM-9" value="" style="rounded=0;whiteSpace=wrap;html=1;strokeColor=none;fillColor=#1192E8;aspect=fixed;" parent="ZDsick0VL7lr_p7ip1dG-15" vertex="1">
          <mxGeometry width="11" height="33" as="geometry" />
        </mxCell>
        <mxCell id="onWr2Z88JV70dTOvfGDM-35" value="" style="shape=image;aspect=fixed;image=data:image/svg+xml,PD94bWwgdmVyc2lvbj0iMS4wIiBlbmNvZGluZz0iVVRGLTgiPz4KPHN2ZyBpZD0iaWNvbiIgeG1sbnM9Imh0dHA6Ly93d3cudzMub3JnLzIwMDAvc3ZnIiB3aWR0aD0iMzIiIGhlaWdodD0iMzIiIHZpZXdCb3g9IjAgMCAzMiAzMiI+CiAgPGRlZnM+CiAgICA8c3R5bGU+CiAgICAgIC5jbHMtMSB7CiAgICAgICAgZmlsbDogbm9uZTsKICAgICAgfQogICAgPC9zdHlsZT4KICA8L2RlZnM+CiAgPHBhdGggZD0ibTIzLjQxNDEsMjJsLTEzLjQxNDEtMTMuNDE0MVYySDJ2OGg2LjU4NTlsMTMuNDE0MSwxMy40MTQxdjYuNTg1OWg4di04aC02LjU4NTlaTTgsOGgtNFY0aDR2NFptMjAsMjBoLTR2LTRoNHY0WiIvPgogIDxwYXRoIGQ9Im0zMCw2YzAtMi4yMDU2LTEuNzk0NC00LTQtNC0xLjg1ODQsMC0zLjQxMDYsMS4yNzk4LTMuODU3OSwzaC05LjE0MjF2Mmg5LjE0MjFjLjM2MzgsMS4zOTg5LDEuNDU5MiwyLjQ5NDEsMi44NTc5LDIuODU3OXY5LjE0MjFoMnYtOS4xNDIxYzEuNzIwMi0uNDQ3MywzLTEuOTk5NSwzLTMuODU3OVptLTQsMmMtMS4xMDMsMC0yLS44OTc1LTItMnMuODk3LTIsMi0yLDIsLjg5NzUsMiwyLS44OTcsMi0yLDJaIi8+CiAgPHBhdGggZD0ibTE5LDI1aC05LjE0MjFjLS4zNjM4LTEuMzk4OS0xLjQ1OTItMi40OTQxLTIuODU3OS0yLjg1Nzl2LTkuMTQyMWgtMnY5LjE0MjFjLTEuNzIwMi40NDczLTMsMS45OTk1LTMsMy44NTc5LDAsMi4yMDU2LDEuNzk0NCw0LDQsNCwxLjg1ODQsMCwzLjQxMDYtMS4yNzk4LDMuODU3OS0zaDkuMTQyMXYtMlptLTEzLDNjLTEuMTAzLDAtMi0uODk3NS0yLTJzLjg5Ny0yLDItMiwyLC44OTc1LDIsMi0uODk3LDItMiwyWiIvPgogIDxyZWN0IGlkPSJfVHJhbnNwYXJlbnRfUmVjdGFuZ2xlXyIgZGF0YS1uYW1lPSImYW1wO2x0O1RyYW5zcGFyZW50IFJlY3RhbmdsZSZhbXA7Z3Q7IiBjbGFzcz0iY2xzLTEiIHdpZHRoPSIzMiIgaGVpZ2h0PSIzMiIvPgo8L3N2Zz4=;" parent="ZDsick0VL7lr_p7ip1dG-15" vertex="1">
          <mxGeometry x="13" y="8.5" width="20" height="20" as="geometry" />
        </mxCell>
        <UserObject placeholders="1" label="&lt;b style=&#39;font-weight:600&#39;&gt;%Primary-Label%&lt;/b&gt;&lt;br&gt;%Secondary-Text%" Badge-Text="" Icon-Name="bare-metal-server" Primary-Label="Server Contents" Secondary-Text="" id="ZDsick0VL7lr_p7ip1dG-19">
          <mxCell style="shape=mxgraph.ibm.base;ibmType=groupl;ibmLayout=expanded;strokeColor=#198038;fillColor=default;html=1;metaEdit=1;whiteSpace=wrap;fontFamily=IBM Plex Sans;fontSize=14;image=;align=left;verticalAlign=middle;labelPosition=center;verticalLabelPosition=middle;spacing=0;spacingLeft=35;spacingRight=16;spacingTop=0;spacingBottom=58;container=1;collapsible=0;expand=0;recursiveResize=0;" parent="1" vertex="1">
            <mxGeometry x="1210" y="-8113" width="240" height="98" as="geometry" />
          </mxCell>
        </UserObject>
        <mxCell id="onWr2Z88JV70dTOvfGDM-20" value="" style="rounded=0;whiteSpace=wrap;html=1;strokeColor=none;fillColor=#198038;" parent="ZDsick0VL7lr_p7ip1dG-19" vertex="1">
          <mxGeometry width="11" height="33" as="geometry" />
        </mxCell>
        <mxCell id="onWr2Z88JV70dTOvfGDM-52" value="" style="shape=image;aspect=fixed;image=data:image/svg+xml,PD94bWwgdmVyc2lvbj0iMS4wIiBlbmNvZGluZz0iVVRGLTgiPz4KPHN2ZyBpZD0iaWNvbiIgeG1sbnM9Imh0dHA6Ly93d3cudzMub3JnLzIwMDAvc3ZnIiB3aWR0aD0iMzIiIGhlaWdodD0iMzIiIHZpZXdCb3g9IjAgMCAzMiAzMiI+CiAgPGRlZnM+CiAgICA8c3R5bGU+CiAgICAgIC5jbHMtMSB7CiAgICAgICAgZmlsbDogbm9uZTsKICAgICAgfQogICAgPC9zdHlsZT4KICA8L2RlZnM+CiAgPGNpcmNsZSBjeD0iOSIgY3k9IjI2IiByPSIxIi8+CiAgPHBhdGggZD0ibTI2LDMwSDZjLTEuMTA0MS0uMDAxMi0xLjk5ODgtLjg5NTktMi0ydi00Yy4wMDEyLTEuMTA0MS44OTU5LTEuOTk4OCwyLTJoMjBjMS4xMDQxLjAwMTIsMS45OTg4Ljg5NTksMiwydjRjLS4wMDEyLDEuMTA0MS0uODk1OSwxLjk5ODgtMiwyWm0tMjAtNnY0aDIwdi00SDZaIi8+CiAgPGNpcmNsZSBjeD0iOSIgY3k9IjE2IiByPSIxIi8+CiAgPHBhdGggZD0ibTI2LDIwSDZjLTEuMTA0MS0uMDAxMi0xLjk5ODgtLjg5NTktMi0ydi00Yy4wMDEyLTEuMTA0MS44OTU5LTEuOTk4OCwyLTJoMjBjMS4xMDQxLjAwMTIsMS45OTg4Ljg5NTksMiwydjRjLS4wMDEyLDEuMTA0MS0uODk1OSwxLjk5ODgtMiwyWk02LDE0djRoMjB2LTRINloiLz4KICA8Y2lyY2xlIGN4PSI5IiBjeT0iNiIgcj0iMSIvPgogIDxwYXRoIGQ9Im0yNiwxMEg2Yy0xLjEwNDEtLjAwMTItMS45OTg4LS44OTU5LTItMnYtNGMuMDAxMi0xLjEwNDEuODk1OS0xLjk5ODgsMi0yaDIwYzEuMTA0MS4wMDEyLDEuOTk4OC44OTU5LDIsMnY0Yy0uMDAxMiwxLjEwNDEtLjg5NTksMS45OTg4LTIsMlpNNiw0djRoMjB2LTRINloiLz4KICA8ZyBpZD0iX1RyYW5zcGFyZW50X1JlY3RhbmdsZV8iIGRhdGEtbmFtZT0iJmFtcDtsdDtUcmFuc3BhcmVudCBSZWN0YW5nbGUmYW1wO2d0OyI+CiAgICA8cmVjdCBjbGFzcz0iY2xzLTEiIHdpZHRoPSIzMiIgaGVpZ2h0PSIzMiIvPgogIDwvZz4KPC9zdmc+;" parent="ZDsick0VL7lr_p7ip1dG-19" vertex="1">
          <mxGeometry x="12" y="7" width="23" height="23" as="geometry" />
        </mxCell>
        <UserObject placeholders="1" label="&lt;b style=&#39;font-weight:600&#39;&gt;%Primary-Label%&lt;/b&gt;&lt;br&gt;%Secondary-Text%" Badge-Text="" Icon-Name="network--enterprise" Primary-Label="Enterprise Network" Secondary-Text="" id="ZDsick0VL7lr_p7ip1dG-20">
          <mxCell style="shape=mxgraph.ibm.base;ibmType=groupl;ibmLayout=expanded;strokeColor=#878d96;fillColor=default;html=1;metaEdit=1;whiteSpace=wrap;fontFamily=IBM Plex Sans;fontSize=14;image=;align=left;verticalAlign=middle;labelPosition=center;verticalLabelPosition=middle;spacing=0;spacingLeft=35;spacingRight=16;spacingTop=0;spacingBottom=58;container=1;collapsible=0;expand=0;recursiveResize=0;" parent="1" vertex="1">
            <mxGeometry x="464" y="-8223" width="240" height="98" as="geometry" />
          </mxCell>
        </UserObject>
        <mxCell id="onWr2Z88JV70dTOvfGDM-24" value="" style="rounded=0;whiteSpace=wrap;html=1;strokeColor=none;fillColor=#878d96;" parent="ZDsick0VL7lr_p7ip1dG-20" vertex="1">
          <mxGeometry width="11" height="33" as="geometry" />
        </mxCell>
        <mxCell id="onWr2Z88JV70dTOvfGDM-47" value="" style="shape=image;aspect=fixed;image=data:image/svg+xml,PHN2ZyBpZD0iaWNvbiIgeG1sbnM9Imh0dHA6Ly93d3cudzMub3JnLzIwMDAvc3ZnIiB3aWR0aD0iMzIiIGhlaWdodD0iMzIiIHZpZXdCb3g9IjAgMCAzMiAzMiI+CiAgPGRlZnM+CiAgICA8c3R5bGU+CiAgICAgIC5jbHMtMSB7CiAgICAgICAgZmlsbDogbm9uZTsKICAgICAgfQogICAgPC9zdHlsZT4KICA8L2RlZnM+CiAgPHBhdGggZD0iTTI1Ljc5ODMsMTBhMTAsMTAsMCwwLDAtMTkuNjIuMTI0QTcuNDk2NCw3LjQ5NjQsMCwwLDAsNy41LDI1SDhWMjNINy41YTUuNDk2MSw1LjQ5NjEsMCwwLDEtLjM3Ny0xMC45Nzk1bC44MzY1LS4wNTcxLjA5LS44MzM1QTcuOTkzNCw3Ljk5MzQsMCwwLDEsMjMuNzM2OCwxMFoiIHRyYW5zZm9ybT0idHJhbnNsYXRlKDAgMCkiLz4KICA8cGF0aCBkPSJNMjgsMTJIMThhMi4wMDIzLDIuMDAyMywwLDAsMC0yLDJ2NEgxMmEyLjAwMjMsMi4wMDIzLDAsMCwwLTIsMlYzMEgzMFYxNEEyLjAwMjMsMi4wMDIzLDAsMCwwLDI4LDEyWk0xMiwyOFYyMGg0djhabTE2LDBIMThWMTRIMjhaIiB0cmFuc2Zvcm09InRyYW5zbGF0ZSgwIDApIi8+CiAgPHJlY3QgeD0iMjAiIHk9IjE2IiB3aWR0aD0iMiIgaGVpZ2h0PSI0Ii8+CiAgPHJlY3QgeD0iMjQiIHk9IjE2IiB3aWR0aD0iMiIgaGVpZ2h0PSI0Ii8+CiAgPHJlY3QgeD0iMjAiIHk9IjIyIiB3aWR0aD0iMiIgaGVpZ2h0PSI0Ii8+CiAgPHJlY3QgeD0iMjQiIHk9IjIyIiB3aWR0aD0iMiIgaGVpZ2h0PSI0Ii8+CiAgPHJlY3QgaWQ9Il9UcmFuc3BhcmVudF9SZWN0YW5nbGVfIiBkYXRhLW5hbWU9IiZsdDtUcmFuc3BhcmVudCBSZWN0YW5nbGUmZ3Q7IiBjbGFzcz0iY2xzLTEiIHdpZHRoPSIzMiIgaGVpZ2h0PSIzMiIvPgo8L3N2Zz4K;" parent="ZDsick0VL7lr_p7ip1dG-20" vertex="1">
          <mxGeometry x="12" y="7" width="23" height="23" as="geometry" />
        </mxCell>
        <UserObject placeholders="1" label="&lt;b style=&#39;font-weight:600&#39;&gt;%Primary-Label%&lt;/b&gt;&lt;br&gt;%Secondary-Text%" Badge-Text="" Icon-Name="data--base--alt" Primary-Label="Data Center" Secondary-Text="" id="ZDsick0VL7lr_p7ip1dG-21">
          <mxCell style="shape=mxgraph.ibm.base;ibmType=groupl;ibmLayout=expanded;strokeColor=#878d96;fillColor=default;html=1;metaEdit=1;whiteSpace=wrap;fontFamily=IBM Plex Sans;fontSize=14;image=;align=left;verticalAlign=middle;labelPosition=center;verticalLabelPosition=middle;spacing=0;spacingLeft=35;spacingRight=16;spacingTop=0;spacingBottom=58;container=1;collapsible=0;expand=0;recursiveResize=0;" parent="1" vertex="1">
            <mxGeometry x="960" y="-8223" width="240" height="98" as="geometry" />
          </mxCell>
        </UserObject>
        <mxCell id="onWr2Z88JV70dTOvfGDM-26" value="" style="rounded=0;whiteSpace=wrap;html=1;strokeColor=none;fillColor=#878d96;" parent="ZDsick0VL7lr_p7ip1dG-21" vertex="1">
          <mxGeometry width="11" height="33" as="geometry" />
        </mxCell>
        <mxCell id="onWr2Z88JV70dTOvfGDM-38" value="" style="shape=image;aspect=fixed;image=data:image/svg+xml,PHN2ZyBpZD0iaWNvbiIgeG1sbnM9Imh0dHA6Ly93d3cudzMub3JnLzIwMDAvc3ZnIiB3aWR0aD0iMzIiIGhlaWdodD0iMzIiIHZpZXdCb3g9IjAgMCAzMiAzMiI+CiAgPGRlZnM+CiAgICA8c3R5bGU+CiAgICAgIC5jbHMtMSB7CiAgICAgICAgZmlsbDogbm9uZTsKICAgICAgfQogICAgPC9zdHlsZT4KICA8L2RlZnM+CiAgPHBhdGggZD0iTTI4LDEwSDIzVjZhMi4wMDIzLDIuMDAyMywwLDAsMC0yLTJIMTFBMi4wMDIzLDIuMDAyMywwLDAsMCw5LDZ2NEg0YTIuMDAyMywyLjAwMjMsMCwwLDAtMiwyVjI4YTIuMDAyMywyLjAwMjMsMCwwLDAsMiwySDI4YTIuMDAyMywyLjAwMjMsMCwwLDAsMi0yVjEyQTIuMDAyMywyLjAwMjMsMCwwLDAsMjgsMTBaTTQsMjhWMTJIOXYySDd2Mkg5djJIN3YySDl2Mkg3djJIOXY0Wm0xNywwSDExVjZIMjFabTcsMEgyM1YyNGgyVjIySDIzVjIwaDJWMThIMjNWMTZoMlYxNEgyM1YxMmg1WiIgdHJhbnNmb3JtPSJ0cmFuc2xhdGUoMCAwKSIvPgogIDxyZWN0IHg9IjE0IiB5PSI4IiB3aWR0aD0iNCIgaGVpZ2h0PSIyIi8+CiAgPHJlY3QgeD0iMTQiIHk9IjEyIiB3aWR0aD0iNCIgaGVpZ2h0PSIyIi8+CiAgPHJlY3QgeD0iMTQiIHk9IjE2IiB3aWR0aD0iNCIgaGVpZ2h0PSIyIi8+CiAgPHJlY3QgaWQ9Il9UcmFuc3BhcmVudF9SZWN0YW5nbGVfIiBkYXRhLW5hbWU9IiZsdDtUcmFuc3BhcmVudCBSZWN0YW5nbGUmZ3Q7IiBjbGFzcz0iY2xzLTEiIHdpZHRoPSIzMiIgaGVpZ2h0PSIzMiIvPgo8L3N2Zz4K;" parent="ZDsick0VL7lr_p7ip1dG-21" vertex="1">
          <mxGeometry x="12" y="6" width="22" height="22" as="geometry" />
        </mxCell>
        <UserObject placeholders="1" label="&lt;b style=&#39;font-weight:600&#39;&gt;%Primary-Label%&lt;/b&gt;&lt;br&gt;%Secondary-Text%" Badge-Text="" Icon-Name="point-of-presence" Primary-Label="Point of Presence" Secondary-Text="" id="ZDsick0VL7lr_p7ip1dG-23">
          <mxCell style="shape=mxgraph.ibm.base;ibmType=groupp;ibmLayout=expanded;strokeColor=#878d96;fillColor=default;html=1;metaEdit=1;whiteSpace=wrap;fontFamily=IBM Plex Sans;fontSize=14;image=;align=left;verticalAlign=middle;labelPosition=center;verticalLabelPosition=middle;spacing=0;spacingLeft=35;spacingRight=16;spacingTop=0;spacingBottom=58;container=1;collapsible=0;expand=0;recursiveResize=0;" parent="1" vertex="1">
            <mxGeometry x="1210" y="-8223" width="240" height="98" as="geometry" />
          </mxCell>
        </UserObject>
        <mxCell id="onWr2Z88JV70dTOvfGDM-31" value="" style="rounded=0;whiteSpace=wrap;html=1;strokeColor=none;fillColor=#878d96;" parent="ZDsick0VL7lr_p7ip1dG-23" vertex="1">
          <mxGeometry width="11" height="33" as="geometry" />
        </mxCell>
        <mxCell id="onWr2Z88JV70dTOvfGDM-43" value="" style="shape=image;aspect=fixed;image=data:image/svg+xml,PHN2ZyBpZD0iaWNvbiIgeG1sbnM9Imh0dHA6Ly93d3cudzMub3JnLzIwMDAvc3ZnIiB3aWR0aD0iMzIiIGhlaWdodD0iMzIiIHZpZXdCb3g9IjAgMCAzMiAzMiI+CiAgPGRlZnM+CiAgICA8c3R5bGU+CiAgICAgIC5jbHMtMSB7CiAgICAgICAgZmlsbDogbm9uZTsKICAgICAgfQogICAgPC9zdHlsZT4KICA8L2RlZnM+CiAgPHBhdGggZD0iTTI4LDMwSDE4YTIuMDAyMSwyLjAwMjEsMCwwLDEtMi0yVjE4YTIuMDAyMSwyLjAwMjEsMCwwLDEsMi0yaDJ2MkgxOFYyOEgyOFYxOEgyNlYxNmgyYTIuMDAyMSwyLjAwMjEsMCwwLDEsMiwyVjI4QTIuMDAyMSwyLjAwMjEsMCwwLDEsMjgsMzBaIiB0cmFuc2Zvcm09InRyYW5zbGF0ZSgwIDApIi8+CiAgPHBhdGggZD0iTTE0LDE2SDRhMi4wMDIxLDIuMDAyMSwwLDAsMS0yLTJWNEEyLjAwMjEsMi4wMDIxLDAsMCwxLDQsMkgxNGEyLjAwMjEsMi4wMDIxLDAsMCwxLDIsMlY2SDE0VjRINFYxNEgxNFYxMmgydjJBMi4wMDIxLDIuMDAyMSwwLDAsMSwxNCwxNloiIHRyYW5zZm9ybT0idHJhbnNsYXRlKDAgMCkiLz4KICA8cGF0aCBkPSJNMjYsOWEyLjk5MjYsMi45OTI2LDAsMCwwLTUuODE1Ny0xSDl2MkgyMC4xODQzQTIuOTkzOSwyLjk5MzksMCwwLDAsMjIsMTEuODE1NFYyM2gyVjExLjgxNTlBMi45OTU4LDIuOTk1OCwwLDAsMCwyNiw5Wm0tMywxYTEsMSwwLDEsMSwxLTFBMS4wMDA5LDEuMDAwOSwwLDAsMSwyMywxMFoiIHRyYW5zZm9ybT0idHJhbnNsYXRlKDAgMCkiLz4KICA8cmVjdCBpZD0iX1RyYW5zcGFyZW50X1JlY3RhbmdsZV8iIGRhdGEtbmFtZT0iJmx0O1RyYW5zcGFyZW50IFJlY3RhbmdsZSZndDsiIGNsYXNzPSJjbHMtMSIgd2lkdGg9IjMyIiBoZWlnaHQ9IjMyIi8+Cjwvc3ZnPgo=;" parent="ZDsick0VL7lr_p7ip1dG-23" vertex="1">
          <mxGeometry x="11" y="6" width="24" height="24" as="geometry" />
        </mxCell>
        <UserObject placeholders="1" label="&lt;b style=&#39;font-weight:600&#39;&gt;%Primary-Label%&lt;/b&gt;&lt;br&gt;%Secondary-Text%" Badge-Text="" Icon-Name="group--security" Primary-Label="Security Group" Secondary-Text="" id="ZDsick0VL7lr_p7ip1dG-24">
          <mxCell style="shape=mxgraph.ibm.base;ibmType=zone;ibmLayout=expanded;strokeColor=#fa4d56;fillColor=default;strokeWidth=2;html=1;metaEdit=1;whiteSpace=wrap;fontFamily=IBM Plex Sans;fontSize=14;image=;align=left;verticalAlign=middle;labelPosition=center;verticalLabelPosition=middle;spacing=0;spacingLeft=35;spacingRight=16;spacingTop=0;spacingBottom=58;dashed=1;" parent="1" vertex="1">
            <mxGeometry x="713" y="-8003" width="240" height="98" as="geometry" />
          </mxCell>
        </UserObject>
        <UserObject placeholders="1" label="&lt;b style=&#39;font-weight:600&#39;&gt;%Primary-Label%&lt;/b&gt;&lt;br&gt;%Secondary-Text%" Badge-Text="" Icon-Name="bare-metal-server--01" Primary-Label="IBM Bare Metal" Secondary-Text="" id="ZDsick0VL7lr_p7ip1dG-25">
          <mxCell style="shape=mxgraph.ibm.base;ibmType=groupp;ibmLayout=expanded;strokeColor=#198038;fillColor=default;html=1;metaEdit=1;whiteSpace=wrap;fontFamily=IBM Plex Sans;fontSize=14;image=;align=left;verticalAlign=middle;labelPosition=center;verticalLabelPosition=middle;spacing=0;spacingLeft=35;spacingRight=16;spacingTop=0;spacingBottom=58;container=1;collapsible=0;expand=0;recursiveResize=0;" parent="1" vertex="1">
            <mxGeometry x="215" y="-7893" width="240" height="98" as="geometry" />
          </mxCell>
        </UserObject>
        <mxCell id="onWr2Z88JV70dTOvfGDM-17" value="" style="rounded=0;whiteSpace=wrap;html=1;strokeColor=none;fillColor=#198038;" parent="ZDsick0VL7lr_p7ip1dG-25" vertex="1">
          <mxGeometry width="11" height="33" as="geometry" />
        </mxCell>
        <mxCell id="onWr2Z88JV70dTOvfGDM-36" value="" style="shape=image;aspect=fixed;image=data:image/svg+xml,PHN2ZyBpZD0iaWNvbiIgeG1sbnM9Imh0dHA6Ly93d3cudzMub3JnLzIwMDAvc3ZnIiB3aWR0aD0iMzIiIGhlaWdodD0iMzIiIHZpZXdCb3g9IjAgMCAzMiAzMiI+CiAgPGRlZnM+CiAgICA8c3R5bGU+CiAgICAgIC5jbHMtMSB7CiAgICAgICAgZmlsbDogbm9uZTsKICAgICAgfQogICAgPC9zdHlsZT4KICA8L2RlZnM+CiAgPGNpcmNsZSBjeD0iOSIgY3k9IjYiIHI9IjEiLz4KICA8cGF0aCBkPSJNMjYsMTBINkEyLjAwMjEsMi4wMDIxLDAsMCwxLDQsOFY0QTIuMDAyMSwyLjAwMjEsMCwwLDEsNiwySDI2YTIuMDAyMSwyLjAwMjEsMCwwLDEsMiwyVjhBMi4wMDIxLDIuMDAyMSwwLDAsMSwyNiwxMFpNNiw0VjhIMjZWNFoiIHRyYW5zZm9ybT0idHJhbnNsYXRlKDAgMCkiLz4KICA8Y2lyY2xlIGN4PSI5IiBjeT0iMTYiIHI9IjEiLz4KICA8cGF0aCBkPSJNMjYsMjBINmEyLjAwMjEsMi4wMDIxLDAsMCwxLTItMlYxNGEyLjAwMjEsMi4wMDIxLDAsMCwxLDItMkgyNmEyLjAwMjEsMi4wMDIxLDAsMCwxLDIsMnY0QTIuMDAyMSwyLjAwMjEsMCwwLDEsMjYsMjBaTTYsMTR2NEgyNlYxNFoiIHRyYW5zZm9ybT0idHJhbnNsYXRlKDAgMCkiLz4KICA8Y2lyY2xlIGN4PSI5IiBjeT0iMjYiIHI9IjEiLz4KICA8cGF0aCBkPSJNMjYsMzBINmEyLjAwMjEsMi4wMDIxLDAsMCwxLTItMlYyNGEyLjAwMjEsMi4wMDIxLDAsMCwxLDItMkgyNmEyLjAwMjEsMi4wMDIxLDAsMCwxLDIsMnY0QTIuMDAyMSwyLjAwMjEsMCwwLDEsMjYsMzBaTTYsMjR2NEgyNlYyNFoiIHRyYW5zZm9ybT0idHJhbnNsYXRlKDAgMCkiLz4KICA8cmVjdCBpZD0iX1RyYW5zcGFyZW50X1JlY3RhbmdsZV8iIGRhdGEtbmFtZT0iJmx0O1RyYW5zcGFyZW50IFJlY3RhbmdsZSZndDsiIGNsYXNzPSJjbHMtMSIgd2lkdGg9IjMyIiBoZWlnaHQ9IjMyIi8+Cjwvc3ZnPgo=;" parent="ZDsick0VL7lr_p7ip1dG-25" vertex="1">
          <mxGeometry x="11" y="5.5" width="22" height="22" as="geometry" />
        </mxCell>
        <UserObject placeholders="1" label="&lt;b style=&#39;font-weight:600&#39;&gt;%Primary-Label%&lt;/b&gt;&lt;br&gt;%Secondary-Text%" Badge-Text="" Icon-Name="group--account" Primary-Label="Account Group" Secondary-Text="" id="ZDsick0VL7lr_p7ip1dG-26">
          <mxCell style="shape=mxgraph.ibm.base;ibmType=zone;ibmLayout=expanded;strokeColor=#fa4d56;fillColor=default;strokeWidth=2;html=1;metaEdit=1;whiteSpace=wrap;fontFamily=IBM Plex Sans;fontSize=14;image=;align=left;verticalAlign=middle;labelPosition=center;verticalLabelPosition=middle;spacing=0;spacingLeft=35;spacingRight=16;spacingTop=0;spacingBottom=66;" parent="1" vertex="1">
            <mxGeometry x="713" y="-8333" width="240" height="98" as="geometry" />
          </mxCell>
        </UserObject>
        <UserObject placeholders="1" label="&lt;b style=&#39;font-weight:600&#39;&gt;%Primary-Label%&lt;/b&gt;&lt;br&gt;%Secondary-Text%" Badge-Text="" Icon-Name="autoscaling" Primary-Label="Instance Group" Secondary-Text="" id="ZDsick0VL7lr_p7ip1dG-27">
          <mxCell style="shape=mxgraph.ibm.base;ibmType=groupp;ibmLayout=expanded;strokeColor=#198038;fillColor=default;html=1;metaEdit=1;whiteSpace=wrap;fontFamily=IBM Plex Sans;fontSize=14;image=;align=left;verticalAlign=middle;labelPosition=center;verticalLabelPosition=middle;spacing=0;spacingLeft=35;spacingRight=16;spacingTop=0;spacingBottom=58;container=1;collapsible=0;expand=0;recursiveResize=0;" parent="1" vertex="1">
            <mxGeometry x="1210" y="-8003" width="240" height="98" as="geometry" />
          </mxCell>
        </UserObject>
        <mxCell id="onWr2Z88JV70dTOvfGDM-19" value="" style="rounded=0;whiteSpace=wrap;html=1;strokeColor=none;fillColor=#198038;" parent="ZDsick0VL7lr_p7ip1dG-27" vertex="1">
          <mxGeometry width="11" height="33" as="geometry" />
        </mxCell>
        <UserObject placeholders="1" label="&lt;b style=&#39;font-weight:600&#39;&gt;%Primary-Label%&lt;/b&gt;&lt;br&gt;%Secondary-Text%" Badge-Text="" Icon-Name="data--center" Primary-Label="General Network" Secondary-Text="" id="ZDsick0VL7lr_p7ip1dG-28">
          <mxCell style="shape=mxgraph.ibm.base;ibmType=groupp;ibmLayout=expanded;strokeColor=#1192e8;fillColor=#e5f6ff;html=1;metaEdit=1;whiteSpace=wrap;fontFamily=IBM Plex Sans;fontSize=14;image=;align=left;verticalAlign=middle;labelPosition=center;verticalLabelPosition=middle;spacing=0;spacingLeft=35;spacingRight=16;spacingTop=0;spacingBottom=58;container=1;collapsible=0;expand=0;recursiveResize=0;ibmNoIcon=1;" parent="1" vertex="1">
            <mxGeometry x="713" y="-8113" width="240" height="98" as="geometry" />
          </mxCell>
        </UserObject>
        <mxCell id="onWr2Z88JV70dTOvfGDM-27" value="" style="rounded=0;whiteSpace=wrap;html=1;strokeColor=none;fillColor=#1192E8;aspect=fixed;" parent="ZDsick0VL7lr_p7ip1dG-28" vertex="1">
          <mxGeometry width="11" height="33" as="geometry" />
        </mxCell>
        <UserObject placeholders="1" label="&lt;b style=&#39;font-weight:600&#39;&gt;%Primary-Label%&lt;/b&gt;&lt;br&gt;%Secondary-Text%" Badge-Text="" Icon-Name="ibm-cloud" Primary-Label="IBM Cloud" Secondary-Text="" id="ZDsick0VL7lr_p7ip1dG-29">
          <mxCell style="shape=mxgraph.ibm.base;ibmType=groupp;ibmLayout=expanded;strokeColor=#1192e8;fillColor=default;html=1;metaEdit=1;whiteSpace=wrap;fontFamily=IBM Plex Sans;fontSize=14;image=;align=left;verticalAlign=middle;labelPosition=center;verticalLabelPosition=middle;spacing=0;spacingLeft=42;spacingRight=16;spacingTop=0;spacingBottom=62;container=1;collapsible=0;expand=0;recursiveResize=0;" parent="1" vertex="1">
            <mxGeometry x="464" y="-8333" width="240" height="98" as="geometry" />
          </mxCell>
        </UserObject>
        <mxCell id="onWr2Z88JV70dTOvfGDM-4" value="" style="rounded=0;whiteSpace=wrap;html=1;strokeColor=none;fillColor=#1192E8;aspect=fixed;" parent="ZDsick0VL7lr_p7ip1dG-29" vertex="1">
          <mxGeometry width="11" height="33" as="geometry" />
        </mxCell>
        <mxCell id="onWr2Z88JV70dTOvfGDM-6" value="" style="shape=image;aspect=fixed;image=data:image/svg+xml,PHN2ZyBpZD0iaWNvbiIgeG1sbnM9Imh0dHA6Ly93d3cudzMub3JnLzIwMDAvc3ZnIiB3aWR0aD0iMzIiIGhlaWdodD0iMzIiIHZpZXdCb3g9IjAgMCAzMiAzMiI+PGRlZnM+PHN0eWxlPi5jbHMtMXtmaWxsOm5vbmU7fTwvc3R5bGU+PC9kZWZzPjx0aXRsZT5pYm0tY2xvdWQ8L3RpdGxlPjxwYXRoIGQ9Ik0yNC41ODA1LDEzLjY1QTkuNzMyNyw5LjczMjcsMCwwLDAsNi4yODYsMTcuNTM4Nyw2Ljc1LDYuNzUsMCwwLDAsNywzMUgyM2E4Ljc0NjUsOC43NDY1LDAsMCwwLDEuNTgwNS0xNy4zNVpNMjMsMjkuNUg3YTUuMjM3Myw1LjIzNzMsMCwwLDEtLjY5OTMtMTAuNDI5Myw5LjcyNjUsOS43MjY1LDAsMCwwLDEuMTAzNiwzLjc4MzguNzUuNzUsMCwxLDAsMS4zMjEzLS43MDlBOC4yNSw4LjI1LDAsMCwxLDIyLjc1MiwxMy41MTMzYTguNzU0LDguNzU0LDAsMCwwLTYuMzE1LDIuOTUuNzUuNzUsMCwxLDAsMS4xMjQ1Ljk5MjJBNy4yNSw3LjI1LDAsMSwxLDIzLDI5LjVaIiB0cmFuc2Zvcm09InRyYW5zbGF0ZSgwKSIvPjxwYXRoIGQ9Ik0zMS44OTgzLDEwLjI1NDhhLjc1ODIuNzU4MiwwLDAsMC0xLjAzNjQtLjI3NzZsLTMuMDIsMS43NDM4QS43NTg3Ljc1ODcsMCwxLDAsMjguNiwxMy4wMzVsMy4wMi0xLjc0MzhBLjc1ODkuNzU4OSwwLDAsMCwzMS44OTgzLDEwLjI1NDhaIiB0cmFuc2Zvcm09InRyYW5zbGF0ZSgwKSIvPjxwYXRoIGQ9Ik0yMi42NzY0LDcuODdhLjc1ODMuNzU4MywwLDAsMCwxLjAzNjQtLjI3NzZsMS43NDM4LTMuMDJhLjc1ODcuNzU4NywwLDAsMC0xLjMxNC0uNzU4OGwtMS43NDM4LDMuMDJBLjc1ODguNzU4OCwwLDAsMCwyMi42NzY0LDcuODdaIiB0cmFuc2Zvcm09InRyYW5zbGF0ZSgwKSIvPjxwYXRoIGQ9Ik0xNiw2LjA4MTFhLjc1OS43NTksMCwwLDAsLjc1ODgtLjc1ODhWMS44MzQ3YS43NTg4Ljc1ODgsMCwxLDAtMS41MTc1LDBWNS4zMjIzQS43NTg5Ljc1ODksMCwwLDAsMTYsNi4wODExWiIgdHJhbnNmb3JtPSJ0cmFuc2xhdGUoMCkiLz48cGF0aCBkPSJNOC4yODczLDcuNTkyMmEuNzU4Ny43NTg3LDAsMCwwLDEuMzE0LS43NTg4bC0xLjc0MzgtMy4wMmEuNzU4Ny43NTg3LDAsMSwwLTEuMzE0Ljc1ODhaIiB0cmFuc2Zvcm09InRyYW5zbGF0ZSgwKSIvPjxwYXRoIGQ9Ik00LjE1ODUsMTEuNzIxbC0zLjAyLTEuNzQzOGEuNzU4Ny43NTg3LDAsMSwwLS43NTg4LDEuMzE0TDMuNCwxMy4wMzVhLjc1ODcuNzU4NywwLDEsMCwuNzU4OC0xLjMxNFoiIHRyYW5zZm9ybT0idHJhbnNsYXRlKDApIi8+PHJlY3QgaWQ9Il9UcmFuc3BhcmVudF9SZWN0YW5nbGVfIiBkYXRhLW5hbWU9IiZsdDtUcmFuc3BhcmVudCBSZWN0YW5nbGUmZ3Q7IiBjbGFzcz0iY2xzLTEiIHdpZHRoPSIzMiIgaGVpZ2h0PSIzMiIvPjwvc3ZnPg==;" parent="ZDsick0VL7lr_p7ip1dG-29" vertex="1">
          <mxGeometry x="15" y="5.5" width="22" height="22" as="geometry" />
        </mxCell>
        <UserObject placeholders="1" label="&lt;b style=&#39;font-weight:600&#39;&gt;%Primary-Label%&lt;/b&gt;&lt;br&gt;%Secondary-Text%" Badge-Text="" Icon-Name="group--resource" Primary-Label="Resource Group" Secondary-Text="" id="ZDsick0VL7lr_p7ip1dG-30">
          <mxCell style="shape=mxgraph.ibm.base;ibmType=zone;ibmLayout=expanded;strokeColor=#fa4d56;fillColor=default;strokeWidth=2;html=1;metaEdit=1;whiteSpace=wrap;fontFamily=IBM Plex Sans;fontSize=14;image=;align=left;verticalAlign=middle;labelPosition=center;verticalLabelPosition=middle;spacing=0;spacingLeft=35;spacingRight=16;spacingTop=0;spacingBottom=58;" parent="1" vertex="1">
            <mxGeometry x="1210" y="-7893" width="240" height="98" as="geometry" />
          </mxCell>
        </UserObject>
        <UserObject placeholders="1" label="&lt;b style=&#39;font-weight:600&#39;&gt;%Primary-Label%&lt;/b&gt;&lt;br&gt;%Secondary-Text%" Badge-Text="" Icon-Name="location" Primary-Label="General Contents" Secondary-Text="" id="ZDsick0VL7lr_p7ip1dG-31">
          <mxCell style="shape=mxgraph.ibm.base;ibmType=groupp;ibmLayout=expanded;strokeColor=#878d96;fillColor=#f2f4f8;html=1;metaEdit=1;whiteSpace=wrap;fontFamily=IBM Plex Sans;fontSize=14;image=;align=left;verticalAlign=middle;labelPosition=center;verticalLabelPosition=middle;spacing=0;spacingLeft=35;spacingRight=16;spacingTop=0;spacingBottom=58;container=1;collapsible=0;expand=0;recursiveResize=0;ibmNoIcon=1;" parent="1" vertex="1">
            <mxGeometry x="960" y="-8113" width="240" height="98" as="geometry" />
          </mxCell>
        </UserObject>
        <mxCell id="onWr2Z88JV70dTOvfGDM-25" value="" style="rounded=0;whiteSpace=wrap;html=1;strokeColor=none;fillColor=#878d96;" parent="ZDsick0VL7lr_p7ip1dG-31" vertex="1">
          <mxGeometry width="11" height="33" as="geometry" />
        </mxCell>
        <UserObject placeholders="1" label="&lt;b style=&#39;font-weight:600&#39;&gt;%Primary-Label%&lt;/b&gt;&lt;br&gt;%Secondary-Text%" Badge-Text="" Icon-Name="bare-metal-server" Primary-Label="Classic Infrastructure" Secondary-Text="" id="ZDsick0VL7lr_p7ip1dG-33">
          <mxCell style="shape=mxgraph.ibm.base;ibmType=groupl;ibmLayout=expanded;strokeColor=#198038;fillColor=default;html=1;metaEdit=1;whiteSpace=wrap;fontFamily=IBM Plex Sans;fontSize=14;image=;align=left;verticalAlign=middle;labelPosition=center;verticalLabelPosition=middle;spacing=0;spacingLeft=35;spacingRight=16;spacingTop=0;spacingBottom=58;container=1;collapsible=0;expand=0;recursiveResize=0;" parent="1" vertex="1">
            <mxGeometry x="713" y="-8223" width="240" height="98" as="geometry" />
          </mxCell>
        </UserObject>
        <mxCell id="onWr2Z88JV70dTOvfGDM-16" value="" style="rounded=0;whiteSpace=wrap;html=1;strokeColor=none;fillColor=#198038;" parent="ZDsick0VL7lr_p7ip1dG-33" vertex="1">
          <mxGeometry width="11" height="33" as="geometry" />
        </mxCell>
        <mxCell id="onWr2Z88JV70dTOvfGDM-54" value="" style="shape=image;aspect=fixed;image=data:image/svg+xml,PD94bWwgdmVyc2lvbj0iMS4wIiBlbmNvZGluZz0iVVRGLTgiPz4KPHN2ZyBpZD0iaWNvbiIgeG1sbnM9Imh0dHA6Ly93d3cudzMub3JnLzIwMDAvc3ZnIiB3aWR0aD0iMzIiIGhlaWdodD0iMzIiIHZpZXdCb3g9IjAgMCAzMiAzMiI+CiAgPGRlZnM+CiAgICA8c3R5bGU+CiAgICAgIC5jbHMtMSB7CiAgICAgICAgZmlsbDogbm9uZTsKICAgICAgfQogICAgPC9zdHlsZT4KICA8L2RlZnM+CiAgPGNpcmNsZSBjeD0iOSIgY3k9IjI2IiByPSIxIi8+CiAgPHBhdGggZD0ibTI2LDMwSDZjLTEuMTA0MS0uMDAxMi0xLjk5ODgtLjg5NTktMi0ydi00Yy4wMDEyLTEuMTA0MS44OTU5LTEuOTk4OCwyLTJoMjBjMS4xMDQxLjAwMTIsMS45OTg4Ljg5NTksMiwydjRjLS4wMDEyLDEuMTA0MS0uODk1OSwxLjk5ODgtMiwyWm0tMjAtNnY0aDIwdi00SDZaIi8+CiAgPGNpcmNsZSBjeD0iOSIgY3k9IjE2IiByPSIxIi8+CiAgPHBhdGggZD0ibTI2LDIwSDZjLTEuMTA0MS0uMDAxMi0xLjk5ODgtLjg5NTktMi0ydi00Yy4wMDEyLTEuMTA0MS44OTU5LTEuOTk4OCwyLTJoMjBjMS4xMDQxLjAwMTIsMS45OTg4Ljg5NTksMiwydjRjLS4wMDEyLDEuMTA0MS0uODk1OSwxLjk5ODgtMiwyWk02LDE0djRoMjB2LTRINloiLz4KICA8Y2lyY2xlIGN4PSI5IiBjeT0iNiIgcj0iMSIvPgogIDxwYXRoIGQ9Im0yNiwxMEg2Yy0xLjEwNDEtLjAwMTItMS45OTg4LS44OTU5LTItMnYtNGMuMDAxMi0xLjEwNDEuODk1OS0xLjk5ODgsMi0yaDIwYzEuMTA0MS4wMDEyLDEuOTk4OC44OTU5LDIsMnY0Yy0uMDAxMiwxLjEwNDEtLjg5NTksMS45OTg4LTIsMlpNNiw0djRoMjB2LTRINloiLz4KICA8ZyBpZD0iX1RyYW5zcGFyZW50X1JlY3RhbmdsZV8iIGRhdGEtbmFtZT0iJmFtcDtsdDtUcmFuc3BhcmVudCBSZWN0YW5nbGUmYW1wO2d0OyI+CiAgICA8cmVjdCBjbGFzcz0iY2xzLTEiIHdpZHRoPSIzMiIgaGVpZ2h0PSIzMiIvPgogIDwvZz4KPC9zdmc+;" parent="ZDsick0VL7lr_p7ip1dG-33" vertex="1">
          <mxGeometry x="12" y="7" width="23" height="23" as="geometry" />
        </mxCell>
        <mxCell id="ZDsick0VL7lr_p7ip1dG-34" value="Deployment Diagram" style="text;html=1;strokeColor=none;fillColor=none;align=left;verticalAlign=middle;whiteSpace=wrap;rounded=0;fontFamily=IBM Plex Sans;fontSize=19;fontStyle=1" parent="1" vertex="1">
          <mxGeometry x="230" y="-8380" width="240" height="30" as="geometry" />
        </mxCell>
        <mxCell id="ZDsick0VL7lr_p7ip1dG-35" value="Type of Connectors" style="text;html=1;strokeColor=none;fillColor=none;align=left;verticalAlign=middle;whiteSpace=wrap;rounded=0;fontFamily=IBM Plex Sans;fontSize=19;fontStyle=1" parent="1" vertex="1">
          <mxGeometry x="231" y="-6630" width="240" height="30" as="geometry" />
        </mxCell>
        <mxCell id="onWr2Z88JV70dTOvfGDM-3" value="" style="rounded=0;whiteSpace=wrap;html=1;strokeColor=none;fillColor=#fa4d56;" parent="1" vertex="1">
          <mxGeometry x="713" y="-8333" width="11" height="33" as="geometry" />
        </mxCell>
        <mxCell id="onWr2Z88JV70dTOvfGDM-29" value="" style="rounded=0;whiteSpace=wrap;html=1;strokeColor=none;fillColor=#fa4d56;" parent="1" vertex="1">
          <mxGeometry x="713" y="-8003" width="11" height="33" as="geometry" />
        </mxCell>
        <mxCell id="onWr2Z88JV70dTOvfGDM-30" value="" style="rounded=0;whiteSpace=wrap;html=1;strokeColor=none;fillColor=#fa4d56;" parent="1" vertex="1">
          <mxGeometry x="1210" y="-7893" width="11" height="33" as="geometry" />
        </mxCell>
        <mxCell id="onWr2Z88JV70dTOvfGDM-37" value="" style="shape=image;aspect=fixed;image=data:image/svg+xml,PHN2ZyBpZD0iaWNvbiIgeG1sbnM9Imh0dHA6Ly93d3cudzMub3JnLzIwMDAvc3ZnIiB3aWR0aD0iMzIiIGhlaWdodD0iMzIiIHZpZXdCb3g9IjAgMCAzMiAzMiI+CiAgPGRlZnM+CiAgICA8c3R5bGU+CiAgICAgIC5jbHMtMSB7CiAgICAgICAgZmlsbDogbm9uZTsKICAgICAgfQogICAgPC9zdHlsZT4KICA8L2RlZnM+CiAgPHBhdGggZD0iTTE3LDExSDExYTMsMywwLDAsMC0zLDN2NGgyVjE0YTEsMSwwLDAsMSwxLTFoNmExLDEsMCwwLDEsMSwxdjFoMlYxNEEzLDMsMCwwLDAsMTcsMTFaIiB0cmFuc2Zvcm09InRyYW5zbGF0ZSgwIDApIi8+CiAgPHBhdGggZD0iTTEwLDZhNCw0LDAsMSwwLDQtNEE0LDQsMCwwLDAsMTAsNlptNiwwYTIsMiwwLDEsMS0yLTJBMiwyLDAsMCwxLDE2LDZaIiB0cmFuc2Zvcm09InRyYW5zbGF0ZSgwIDApIi8+CiAgPHBhdGggZD0iTTIyLDI3SDE2YTIuMDAyMSwyLjAwMjEsMCwwLDEtMi0yVjE5YTIuMDAyMSwyLjAwMjEsMCwwLDEsMi0yaDZhMi4wMDIxLDIuMDAyMSwwLDAsMSwyLDJ2NkEyLjAwMjEsMi4wMDIxLDAsMCwxLDIyLDI3Wm0tNi04djZoNlYxOVoiIHRyYW5zZm9ybT0idHJhbnNsYXRlKDAgMCkiLz4KICA8cGF0aCBkPSJNOCwzMEg0YTIuMDAyMSwyLjAwMjEsMCwwLDEtMi0yVjRBMi4wMDIxLDIuMDAyMSwwLDAsMSw0LDJIOFY0SDRWMjhIOFoiIHRyYW5zZm9ybT0idHJhbnNsYXRlKDAgMCkiLz4KICA8cGF0aCBkPSJNMjgsMzBIMjRWMjhoNFY0SDI0VjJoNGEyLjAwMjEsMi4wMDIxLDAsMCwxLDIsMlYyOEEyLjAwMjEsMi4wMDIxLDAsMCwxLDI4LDMwWiIgdHJhbnNmb3JtPSJ0cmFuc2xhdGUoMCAwKSIvPgogIDxyZWN0IGlkPSJfVHJhbnNwYXJlbnRfUmVjdGFuZ2xlXyIgZGF0YS1uYW1lPSImbHQ7VHJhbnNwYXJlbnQgUmVjdGFuZ2xlJmd0OyIgY2xhc3M9ImNscy0xIiB3aWR0aD0iMzIiIGhlaWdodD0iMzIiLz4KPC9zdmc+Cg==;" parent="1" vertex="1">
          <mxGeometry x="727" y="-8326" width="20" height="20" as="geometry" />
        </mxCell>
        <mxCell id="onWr2Z88JV70dTOvfGDM-41" value="" style="shape=image;aspect=fixed;image=data:image/svg+xml,PHN2ZyBpZD0iaWNvbiIgeG1sbnM9Imh0dHA6Ly93d3cudzMub3JnLzIwMDAvc3ZnIiB3aWR0aD0iMzIiIGhlaWdodD0iMzIiIHZpZXdCb3g9IjAgMCAzMiAzMiI+CiAgPGRlZnM+CiAgICA8c3R5bGU+CiAgICAgIC5jbHMtMSB7CiAgICAgICAgZmlsbDogbm9uZTsKICAgICAgfQogICAgPC9zdHlsZT4KICA8L2RlZnM+CiAgPHBhdGggZD0iTTIyLDI0SDEwYTIuMDAyMSwyLjAwMjEsMCwwLDEtMi0yVjEwYTIuMDAyMSwyLjAwMjEsMCwwLDEsMi0ySDIyYTIuMDAyMSwyLjAwMjEsMCwwLDEsMiwyVjIyQTIuMDAyMSwyLjAwMjEsMCwwLDEsMjIsMjRaTTEwLDEwVjIySDIyVjEwWiIgdHJhbnNmb3JtPSJ0cmFuc2xhdGUoMCAwKSIvPgogIDxwYXRoIGQ9Ik04LDMwSDRhMi4wMDIxLDIuMDAyMSwwLDAsMS0yLTJWNEEyLjAwMjEsMi4wMDIxLDAsMCwxLDQsMkg4VjRINFYyOEg4WiIgdHJhbnNmb3JtPSJ0cmFuc2xhdGUoMCAwKSIvPgogIDxwYXRoIGQ9Ik0yOCwzMEgyNFYyOGg0VjRIMjRWMmg0YTIuMDAyMSwyLjAwMjEsMCwwLDEsMiwyVjI4QTIuMDAyMSwyLjAwMjEsMCwwLDEsMjgsMzBaIiB0cmFuc2Zvcm09InRyYW5zbGF0ZSgwIDApIi8+CiAgPHJlY3QgaWQ9Il9UcmFuc3BhcmVudF9SZWN0YW5nbGVfIiBkYXRhLW5hbWU9IiZsdDtUcmFuc3BhcmVudCBSZWN0YW5nbGUmZ3Q7IiBjbGFzcz0iY2xzLTEiIHdpZHRoPSIzMiIgaGVpZ2h0PSIzMiIvPgo8L3N2Zz4K;" parent="1" vertex="1">
          <mxGeometry x="1221" y="-7885" width="24" height="24" as="geometry" />
        </mxCell>
        <mxCell id="onWr2Z88JV70dTOvfGDM-42" value="" style="shape=image;aspect=fixed;image=data:image/svg+xml,PHN2ZyBpZD0iaWNvbiIgeG1sbnM9Imh0dHA6Ly93d3cudzMub3JnLzIwMDAvc3ZnIiB3aWR0aD0iMzIiIGhlaWdodD0iMzIiIHZpZXdCb3g9IjAgMCAzMiAzMiI+CiAgPGRlZnM+CiAgICA8c3R5bGU+CiAgICAgIC5jbHMtMSB7CiAgICAgICAgZmlsbDogbm9uZTsKICAgICAgfQogICAgPC9zdHlsZT4KICA8L2RlZnM+CiAgPGNpcmNsZSBjeD0iNyIgY3k9IjIzIiByPSIxIi8+CiAgPHJlY3QgeD0iMiIgeT0iNiIgd2lkdGg9IjQiIGhlaWdodD0iMiIvPgogIDxyZWN0IHg9IjgiIHk9IjYiIHdpZHRoPSI0IiBoZWlnaHQ9IjIiLz4KICA8cmVjdCB4PSIxNCIgeT0iNiIgd2lkdGg9IjQiIGhlaWdodD0iMiIvPgogIDxyZWN0IHg9IjIwIiB5PSI2IiB3aWR0aD0iNCIgaGVpZ2h0PSIyIi8+CiAgPHJlY3QgeD0iMjYiIHk9IjYiIHdpZHRoPSI0IiBoZWlnaHQ9IjIiLz4KICA8cGF0aCBkPSJNMjgsMjhINGEyLjAwMjEsMi4wMDIxLDAsMCwxLTItMlYyMGEyLjAwMjEsMi4wMDIxLDAsMCwxLDItMkgyOGEyLjAwMjEsMi4wMDIxLDAsMCwxLDIsMnY2QTIuMDAyMSwyLjAwMjEsMCwwLDEsMjgsMjhaTTQsMjB2NkgyOFYyMFoiIHRyYW5zZm9ybT0idHJhbnNsYXRlKDAgMCkiLz4KICA8cmVjdCB4PSIyIiB5PSIxMiIgd2lkdGg9IjI4IiBoZWlnaHQ9IjIiLz4KICA8cmVjdCBpZD0iX1RyYW5zcGFyZW50X1JlY3RhbmdsZV8iIGRhdGEtbmFtZT0iJmx0O1RyYW5zcGFyZW50IFJlY3RhbmdsZSZndDsiIGNsYXNzPSJjbHMtMSIgd2lkdGg9IjMyIiBoZWlnaHQ9IjMyIi8+Cjwvc3ZnPgo=;" parent="1" vertex="1">
          <mxGeometry x="1222" y="-7995" width="21" height="21" as="geometry" />
        </mxCell>
        <mxCell id="onWr2Z88JV70dTOvfGDM-46" value="" style="shape=image;aspect=fixed;image=data:image/svg+xml,PHN2ZyBpZD0iaWNvbiIgeG1sbnM9Imh0dHA6Ly93d3cudzMub3JnLzIwMDAvc3ZnIiB3aWR0aD0iMzIiIGhlaWdodD0iMzIiIHZpZXdCb3g9IjAgMCAzMiAzMiI+CiAgPGRlZnM+CiAgICA8c3R5bGU+CiAgICAgIC5jbHMtMSB7CiAgICAgICAgZmlsbDogbm9uZTsKICAgICAgfQogICAgPC9zdHlsZT4KICA8L2RlZnM+CiAgPHBhdGggZD0iTTExLDIxSDlWMTlhMy4wMDMzLDMuMDAzMywwLDAsMSwzLTNoNnYySDEyYTEuMDAxMSwxLjAwMTEsMCwwLDAtMSwxWiIgdHJhbnNmb3JtPSJ0cmFuc2xhdGUoMCAwKSIvPgogIDxwYXRoIGQ9Ik0xNSwxNWE0LDQsMCwxLDEsNC00QTQuMDA0NSw0LjAwNDUsMCwwLDEsMTUsMTVabTAtNmEyLDIsMCwxLDAsMiwyQTIuMDAyMSwyLjAwMjEsMCwwLDAsMTUsOVoiIHRyYW5zZm9ybT0idHJhbnNsYXRlKDAgMCkiLz4KICA8cGF0aCBkPSJNMjQsMjJhNCw0LDAsMSwxLDQtNEE0LjAwNDUsNC4wMDQ1LDAsMCwxLDI0LDIyWm0wLTZhMiwyLDAsMSwwLDIsMkEyLjAwMjEsMi4wMDIxLDAsMCwwLDI0LDE2WiIgdHJhbnNmb3JtPSJ0cmFuc2xhdGUoMCAwKSIvPgogIDxwYXRoIGQ9Ik0zMCwyOEgyOFYyNmExLjAwMTEsMS4wMDExLDAsMCwwLTEtMUgyMWExLjAwMTEsMS4wMDExLDAsMCwwLTEsMXYySDE4VjI2YTMuMDAzMywzLjAwMzMsMCwwLDEsMy0zaDZhMy4wMDMzLDMuMDAzMywwLDAsMSwzLDNaIiB0cmFuc2Zvcm09InRyYW5zbGF0ZSgwIDApIi8+CiAgPHBhdGggZD0iTTE0LDI3LjczMzRsLTUuMjM0NC0yLjc5MUE4Ljk4NTgsOC45ODU4LDAsMCwxLDQsMTdWNEgyNHY2aDJWNGEyLjAwMjMsMi4wMDIzLDAsMCwwLTItMkg0QTIuMDAyMywyLjAwMjMsMCwwLDAsMiw0VjE3YTEwLjk4MTQsMTAuOTgxNCwwLDAsMCw1LjgyNDIsOS43MDdMMTQsMzBaIiB0cmFuc2Zvcm09InRyYW5zbGF0ZSgwIDApIi8+CiAgPHJlY3QgaWQ9Il9UcmFuc3BhcmVudF9SZWN0YW5nbGVfIiBkYXRhLW5hbWU9IiZsdDtUcmFuc3BhcmVudCBSZWN0YW5nbGUmZ3Q7IiBjbGFzcz0iY2xzLTEiIHdpZHRoPSIzMiIgaGVpZ2h0PSIzMiIvPgo8L3N2Zz4K;" parent="1" vertex="1">
          <mxGeometry x="725" y="-7996" width="23" height="23" as="geometry" />
        </mxCell>
      </root>
    </mxGraphModel>
  </diagram>
</mxfile>
